<svg width="180" height="34" viewBox="0 0 180 34" fill="none" xmlns="http://www.w3.org/2000/svg">
<path fill-rule="evenodd" clip-rule="evenodd" d="M22.3537 3.30452C15.6641 -1.00188 6.70678 0.90198 2.347 7.55693C-2.01278 14.2119 -0.12409 23.0978 6.56551 27.4042L11.5449 30.6096C18.2345 34.916 27.1917 33.0122 31.5515 26.3572C35.9113 19.7023 34.0226 10.8164 27.333 6.50995L22.3537 3.30452ZM10.1224 18.6333C9.65706 18.172 9.42874 17.5785 9.42874 16.9571C9.42874 16.3357 9.65695 15.743 10.1205 15.2819L10.1224 15.28L10.1243 15.2781C10.5894 14.8186 11.1874 14.5924 11.8142 14.5924H14.5638V11.8667C14.5638 11.2437 14.7935 10.6504 15.2583 10.1897C15.7236 9.72841 16.3224 9.50208 16.9493 9.50208C17.5761 9.50208 18.174 9.7283 18.6392 10.1878L18.6411 10.1897L18.643 10.1915C19.1065 10.6526 19.3347 11.2454 19.3347 11.8667V14.5924H22.0844C22.7113 14.5924 23.31 14.8187 23.7753 15.28C24.2401 15.7407 24.4698 16.334 24.4698 16.9571C24.4698 17.5793 24.2406 18.1727 23.7753 18.6333C23.3107 19.0945 22.7121 19.3217 22.0844 19.3217H19.3347V22.0474C19.3347 22.6688 19.1064 23.2623 18.6411 23.7236C18.1763 24.1843 17.5778 24.412 16.9493 24.412C16.3216 24.412 15.723 24.1848 15.2583 23.7236C14.793 23.263 14.5638 22.6696 14.5638 22.0474V19.3217H11.8142C11.1857 19.3217 10.5872 19.094 10.1224 18.6333Z" fill="#3C42DC"/>
<path d="M63.464 26V16.0472C63.464 14.9344 63.1988 14.0712 62.6684 13.4576C62.1484 12.8336 61.4256 12.5216 60.5 12.5216C59.9072 12.5216 59.3924 12.662 58.9556 12.9428C58.5188 13.2132 58.1756 13.598 57.926 14.0972C57.6868 14.586 57.5672 15.1528 57.5672 15.7976L55.7888 14.612C55.7888 13.4576 56.0592 12.4384 56.6 11.5544C57.1512 10.6704 57.8844 9.984 58.7996 9.4952C59.7252 8.996 60.7496 8.7464 61.8728 8.7464C63.7968 8.7464 65.2476 9.3184 66.2252 10.4624C67.2132 11.596 67.7072 13.0832 67.7072 14.924V26H63.464ZM43.1528 26V9.152H46.8968V14.7368H47.4272V26H43.1528ZM53.324 26V16.0472C53.324 14.9344 53.0588 14.0712 52.5284 13.4576C52.0084 12.8336 51.2856 12.5216 50.36 12.5216C49.476 12.5216 48.7636 12.8284 48.2228 13.442C47.6924 14.0452 47.4272 14.8304 47.4272 15.7976L45.6488 14.5496C45.6488 13.4472 45.9244 12.4592 46.4756 11.5856C47.0268 10.712 47.7652 10.0204 48.6908 9.5108C49.6268 9.0012 50.672 8.7464 51.8264 8.7464C53.1472 8.7464 54.2288 9.0272 55.0712 9.5888C55.924 10.1504 56.5532 10.8992 56.9588 11.8352C57.3644 12.7712 57.5672 13.8008 57.5672 14.924V26H53.324ZM78.4166 26.468C76.7214 26.468 75.2342 26.0884 73.955 25.3292C72.6758 24.57 71.6774 23.5248 70.9598 22.1936C70.2526 20.852 69.899 19.3128 69.899 17.576C69.899 15.8184 70.263 14.274 70.991 12.9428C71.719 11.6012 72.7226 10.556 74.0018 9.8072C75.281 9.0584 76.7526 8.684 78.4166 8.684C80.1118 8.684 81.599 9.0636 82.8782 9.8228C84.1678 10.582 85.1714 11.6324 85.889 12.974C86.6066 14.3052 86.9654 15.8392 86.9654 17.576C86.9654 19.3232 86.6014 20.8676 85.8734 22.2092C85.1558 23.5404 84.1522 24.5856 82.8626 25.3448C81.5834 26.0936 80.1014 26.468 78.4166 26.468ZM78.4166 22.5056C79.779 22.5056 80.793 22.048 81.4586 21.1328C82.1346 20.2072 82.4726 19.0216 82.4726 17.576C82.4726 16.0784 82.1294 14.8824 81.443 13.988C80.767 13.0936 79.7582 12.6464 78.4166 12.6464C77.491 12.6464 76.7318 12.8544 76.139 13.2704C75.5462 13.6864 75.1042 14.2636 74.813 15.002C74.5322 15.7404 74.3918 16.5984 74.3918 17.576C74.3918 19.084 74.7298 20.2852 75.4058 21.1796C76.0922 22.0636 77.0958 22.5056 78.4166 22.5056ZM101.254 26V18.044C101.254 17.6592 101.233 17.1704 101.191 16.5776C101.15 15.9744 101.02 15.3712 100.801 14.768C100.583 14.1648 100.224 13.6604 99.7247 13.2548C99.2359 12.8492 98.5391 12.6464 97.6343 12.6464C97.2703 12.6464 96.8803 12.7036 96.4643 12.818C96.0483 12.9324 95.6583 13.156 95.2943 13.4888C94.9303 13.8112 94.6287 14.2896 94.3895 14.924C94.1607 15.5584 94.0463 16.4008 94.0463 17.4512L91.6127 16.2968C91.6127 14.9656 91.8831 13.7176 92.4239 12.5528C92.9647 11.388 93.7759 10.4468 94.8575 9.7292C95.9495 9.0116 97.3223 8.6528 98.9759 8.6528C100.297 8.6528 101.373 8.8764 102.205 9.3236C103.037 9.7708 103.682 10.3376 104.14 11.024C104.608 11.7104 104.94 12.428 105.138 13.1768C105.336 13.9152 105.455 14.5912 105.497 15.2048C105.538 15.8184 105.559 16.2656 105.559 16.5464V26H101.254ZM89.7407 26V9.152H93.5159V14.7368H94.0463V26H89.7407ZM116.51 26.468C114.783 26.468 113.26 26.0988 111.939 25.3604C110.628 24.6116 109.599 23.5872 108.85 22.2872C108.112 20.9768 107.742 19.4792 107.742 17.7944C107.742 15.9536 108.106 14.352 108.834 12.9896C109.562 11.6272 110.566 10.5716 111.845 9.8228C113.124 9.0636 114.596 8.684 116.26 8.684C118.028 8.684 119.531 9.1 120.768 9.932C122.006 10.764 122.921 11.934 123.514 13.442C124.107 14.95 124.315 16.7232 124.138 18.7616H119.942V17.2016C119.942 15.4856 119.666 14.2532 119.115 13.5044C118.574 12.7452 117.685 12.3656 116.447 12.3656C115.002 12.3656 113.936 12.8076 113.249 13.6916C112.573 14.5652 112.235 15.86 112.235 17.576C112.235 19.1464 112.573 20.3632 113.249 21.2264C113.936 22.0792 114.939 22.5056 116.26 22.5056C117.092 22.5056 117.804 22.3236 118.397 21.9596C118.99 21.5956 119.442 21.0704 119.754 20.384L123.998 21.6008C123.363 23.14 122.36 24.336 120.987 25.1888C119.624 26.0416 118.132 26.468 116.51 26.468ZM110.925 18.7616V15.6104H122.094V18.7616H110.925ZM134.868 26.468C133.141 26.468 131.618 26.0988 130.297 25.3604C128.986 24.6116 127.957 23.5872 127.208 22.2872C126.47 20.9768 126.1 19.4792 126.1 17.7944C126.1 15.9536 126.464 14.352 127.192 12.9896C127.92 11.6272 128.924 10.5716 130.203 9.8228C131.482 9.0636 132.954 8.684 134.618 8.684C136.386 8.684 137.889 9.1 139.126 9.932C140.364 10.764 141.279 11.934 141.872 13.442C142.465 14.95 142.673 16.7232 142.496 18.7616H138.3V17.2016C138.3 15.4856 138.024 14.2532 137.473 13.5044C136.932 12.7452 136.043 12.3656 134.805 12.3656C133.36 12.3656 132.294 12.8076 131.607 13.6916C130.931 14.5652 130.593 15.86 130.593 17.576C130.593 19.1464 130.931 20.3632 131.607 21.2264C132.294 22.0792 133.297 22.5056 134.618 22.5056C135.45 22.5056 136.162 22.3236 136.755 21.9596C137.348 21.5956 137.8 21.0704 138.112 20.384L142.356 21.6008C141.721 23.14 140.718 24.336 139.345 25.1888C137.982 26.0416 136.49 26.468 134.868 26.468ZM129.283 18.7616V15.6104H140.452V18.7616H129.283ZM153.226 26.468C151.499 26.468 149.976 26.0988 148.655 25.3604C147.344 24.6116 146.315 23.5872 145.566 22.2872C144.828 20.9768 144.458 19.4792 144.458 17.7944C144.458 15.9536 144.822 14.352 145.55 12.9896C146.278 11.6272 147.282 10.5716 148.561 9.8228C149.84 9.0636 151.312 8.684 152.976 8.684C154.744 8.684 156.247 9.1 157.484 9.932C158.722 10.764 159.637 11.934 160.23 13.442C160.823 14.95 161.031 16.7232 160.854 18.7616H156.658V17.2016C156.658 15.4856 156.382 14.2532 155.831 13.5044C155.29 12.7452 154.401 12.3656 153.163 12.3656C151.718 12.3656 150.652 12.8076 149.965 13.6916C149.289 14.5652 148.951 15.86 148.951 17.576C148.951 19.1464 149.289 20.3632 149.965 21.2264C150.652 22.0792 151.655 22.5056 152.976 22.5056C153.808 22.5056 154.52 22.3236 155.113 21.9596C155.706 21.5956 156.158 21.0704 156.47 20.384L160.714 21.6008C160.079 23.14 159.076 24.336 157.703 25.1888C156.34 26.0416 154.848 26.468 153.226 26.468ZM147.641 18.7616V15.6104H158.81V18.7616H147.641ZM165.601 33.488L168.845 24.5648L168.908 27.1856L161.576 9.152H165.975L170.905 21.9128H169.906L174.805 9.152H179.048L169.532 33.488H165.601Z" fill="#3C42DC"/>
</svg>
