<svg width="161" height="161" viewBox="0 0 161 161" fill="none" xmlns="http://www.w3.org/2000/svg">
<mask id="mask0_1306_2895" style="mask-type:alpha" maskUnits="userSpaceOnUse" x="0" y="0" width="161" height="161">
<rect x="0.0241699" y="0.0241699" width="160" height="160" rx="21.9409" fill="#0E0E16"/>
</mask>
<g mask="url(#mask0_1306_2895)">
<rect x="0.0241699" y="0.0241699" width="160" height="160" rx="21.9409" fill="#212344"/>
<rect width="114.501" height="100.274" rx="50.1368" transform="matrix(0.838903 0.544281 -0.544998 0.838438 59.0439 6.76245)" fill="#133DD0"/>
<path d="M64.3263 77.9513L64.3247 77.953C63.7578 78.5214 63.4758 79.2348 63.4758 80.0474C63.4758 80.8601 63.7578 81.5733 64.3255 82.1404C64.8942 82.7086 65.6082 82.9913 66.4218 82.9913H77.1014V93.6603C77.1014 94.4733 77.3844 95.1864 77.9533 95.7532C78.5206 96.3216 79.2341 96.6042 80.0474 96.6042C80.861 96.6042 81.5751 96.3214 82.1437 95.7533C82.7114 95.1861 82.9934 94.473 82.9934 93.6603V82.9913H93.673C94.4862 82.9913 95.1997 82.7088 95.7671 82.1404C96.336 81.5736 96.619 80.8605 96.619 80.0474C96.619 79.234 96.3358 78.5204 95.7671 77.9522C95.1994 77.3851 94.4859 77.1035 93.673 77.1035H82.9934V66.4346C82.9934 65.6219 82.7115 64.9085 82.1446 64.3402L82.1429 64.3385C81.5741 63.7722 80.8603 63.4907 80.0474 63.4907C79.2345 63.4907 78.521 63.7722 77.9534 64.3393C77.3846 64.9075 77.1014 65.6212 77.1014 66.4346V77.1035H66.4218C65.6089 77.1035 64.8952 77.385 64.3263 77.9513Z" fill="white" stroke="white" stroke-width="1.35021"/>
</g>
</svg>
