<svg width="161" height="161" viewBox="0 0 161 161" fill="none" xmlns="http://www.w3.org/2000/svg">
<mask id="mask0_1306_2871" style="mask-type:alpha" maskUnits="userSpaceOnUse" x="0" y="0" width="161" height="161">
<rect x="0.628906" y="0.628906" width="160" height="160" rx="21.9409" fill="#0E0E16"/>
</mask>
<g mask="url(#mask0_1306_2871)">
<rect x="0.628906" y="0.628906" width="160" height="160" rx="21.9409" fill="#2A2C54"/>
<path d="M26.0032 33.221C25.2094 33.221 24.5194 33.101 23.9333 32.861C23.3472 32.621 22.8857 32.2841 22.5488 31.8503C22.2166 31.4119 22.0297 30.8973 21.9881 30.3066L21.9812 30.1959H23.9956L24.0026 30.2651C24.0302 30.5143 24.1318 30.7335 24.3071 30.9227C24.4871 31.1073 24.7271 31.2527 25.0271 31.3588C25.3271 31.465 25.6709 31.518 26.0585 31.518C26.4323 31.518 26.76 31.4627 27.0415 31.3519C27.323 31.2411 27.5422 31.0889 27.6992 30.895C27.8607 30.6966 27.9414 30.4704 27.9414 30.2166V30.2097C27.9414 29.882 27.8076 29.619 27.5399 29.4205C27.2769 29.2221 26.8338 29.0583 26.2108 28.929L25.1586 28.7144C24.1202 28.5022 23.3657 28.1537 22.895 27.6692C22.4242 27.1846 22.1889 26.5639 22.1889 25.807V25.8001C22.1889 25.1817 22.3527 24.6417 22.6804 24.1802C23.008 23.7187 23.458 23.3611 24.0302 23.1072C24.6025 22.8488 25.2578 22.7196 25.9962 22.7196C26.7715 22.7196 27.4361 22.8465 27.9899 23.1003C28.5483 23.3495 28.9844 23.6934 29.2982 24.1318C29.6121 24.5656 29.7897 25.0617 29.8313 25.6201L29.8382 25.7101H27.8722L27.8584 25.627C27.8168 25.387 27.7153 25.1771 27.5538 24.9971C27.3969 24.8171 27.1846 24.6763 26.9169 24.5748C26.6539 24.4687 26.347 24.4156 25.9962 24.4156C25.6547 24.4156 25.3547 24.4664 25.0963 24.5679C24.8379 24.6694 24.6371 24.8125 24.4941 24.9971C24.351 25.1771 24.2795 25.3917 24.2795 25.6409V25.6478C24.2795 25.9708 24.4087 26.2362 24.6671 26.4439C24.9302 26.6469 25.3547 26.8085 25.9408 26.9285L27 27.143C27.7061 27.2861 28.2806 27.4799 28.7237 27.7245C29.1713 27.9691 29.5013 28.276 29.7136 28.6452C29.9259 29.0144 30.032 29.4598 30.032 29.9813V29.9882C30.032 30.6481 29.8682 31.2204 29.5405 31.705C29.2175 32.1849 28.7537 32.5587 28.1491 32.8264C27.5492 33.0894 26.8338 33.221 26.0032 33.221ZM35.1616 33.1241C34.3909 33.1241 33.7263 32.9648 33.1679 32.6464C32.6141 32.3234 32.1872 31.8665 31.8872 31.2758C31.5873 30.685 31.4373 29.9813 31.4373 29.1644V29.1575C31.4373 28.3499 31.585 27.6484 31.8803 27.0531C32.1803 26.4577 32.6026 25.9962 33.1471 25.6686C33.6963 25.3409 34.3401 25.1771 35.0785 25.1771C35.8215 25.1771 36.463 25.3363 37.003 25.6547C37.5429 25.9732 37.9583 26.4185 38.249 26.9908C38.5397 27.563 38.6851 28.2345 38.6851 29.0052V29.6351H32.448V28.3683H37.716L36.7676 29.5659V28.756C36.7676 28.2991 36.6961 27.9184 36.553 27.6138C36.4145 27.3092 36.2207 27.0807 35.9715 26.9285C35.7269 26.7715 35.4408 26.6931 35.1131 26.6931C34.7901 26.6931 34.5016 26.7739 34.2478 26.9354C33.9986 27.0923 33.8002 27.3253 33.6525 27.6345C33.5094 27.9391 33.4379 28.3129 33.4379 28.756V29.5728C33.4379 30.002 33.5094 30.3689 33.6525 30.6735C33.7955 30.9781 33.9986 31.2112 34.2617 31.3727C34.5247 31.5342 34.8385 31.615 35.2031 31.615C35.4985 31.615 35.75 31.5711 35.9577 31.4834C36.1653 31.3958 36.3315 31.2942 36.4561 31.1788C36.5853 31.0589 36.673 30.9504 36.7191 30.8535L36.7399 30.812H38.6228L38.609 30.8812C38.549 31.1212 38.4405 31.3727 38.2836 31.6357C38.1267 31.8942 37.9098 32.1365 37.6329 32.3626C37.3606 32.5887 37.0191 32.7733 36.6084 32.9164C36.2023 33.0548 35.72 33.1241 35.1616 33.1241ZM40.3396 35.4915V25.3432H42.3609V26.52H42.4855C42.6194 26.2477 42.7948 26.0147 43.0117 25.8209C43.2332 25.627 43.4916 25.4793 43.787 25.3778C44.0823 25.2717 44.41 25.2186 44.77 25.2186C45.4068 25.2186 45.956 25.3778 46.4175 25.6963C46.879 26.0147 47.2344 26.467 47.4836 27.0531C47.7374 27.6345 47.8643 28.3314 47.8643 29.1436V29.1575C47.8643 29.9743 47.7397 30.6758 47.4905 31.2619C47.2413 31.848 46.8859 32.298 46.4244 32.6118C45.9629 32.9256 45.4114 33.0825 44.77 33.0825C44.4192 33.0825 44.0939 33.0295 43.7939 32.9233C43.4985 32.8125 43.2378 32.6579 43.0117 32.4595C42.7901 32.2611 42.6148 32.0234 42.4855 31.7465H42.3609V35.4915H40.3396ZM44.0777 31.4073C44.4377 31.4073 44.7446 31.3173 44.9984 31.1373C45.2568 30.9573 45.4553 30.6989 45.5937 30.362C45.7368 30.0251 45.8083 29.6236 45.8083 29.1575V29.1436C45.8083 28.6775 45.7368 28.276 45.5937 27.9391C45.4553 27.6022 45.2568 27.3438 44.9984 27.1638C44.7446 26.9838 44.4377 26.8938 44.0777 26.8938C43.7224 26.8938 43.4132 26.9838 43.1501 27.1638C42.8917 27.3438 42.6909 27.6022 42.5479 27.9391C42.4094 28.2714 42.3402 28.6729 42.3402 29.1436V29.1575C42.3402 29.619 42.4117 30.0205 42.5548 30.362C42.6978 30.6989 42.8986 30.9573 43.157 31.1373C43.4201 31.3173 43.727 31.4073 44.0777 31.4073ZM52.6823 32.9925C51.7593 32.9925 51.0948 32.831 50.6887 32.508C50.2826 32.1803 50.0795 31.6473 50.0795 30.9089V26.8661H48.9027V25.3432H50.0795V23.5226H52.1216V25.3432H53.693V26.8661H52.1216V30.4451C52.1216 30.7866 52.1978 31.0381 52.3501 31.1996C52.507 31.3565 52.7562 31.435 53.0977 31.435C53.2269 31.435 53.3331 31.4327 53.4161 31.4281C53.5038 31.4188 53.5961 31.4096 53.693 31.4004V32.9025C53.5684 32.9256 53.4184 32.9464 53.2431 32.9648C53.0677 32.9833 52.8808 32.9925 52.6823 32.9925ZM58.6703 33.1241C57.8996 33.1241 57.235 32.9648 56.6766 32.6464C56.1228 32.3234 55.6959 31.8665 55.3959 31.2758C55.096 30.685 54.946 29.9813 54.946 29.1644V29.1575C54.946 28.3499 55.0937 27.6484 55.389 27.0531C55.689 26.4577 56.1113 25.9962 56.6558 25.6686C57.205 25.3409 57.8488 25.1771 58.5872 25.1771C59.3302 25.1771 59.9717 25.3363 60.5117 25.6547C61.0516 25.9732 61.467 26.4185 61.7577 26.9908C62.0484 27.563 62.1938 28.2345 62.1938 29.0052V29.6351H55.9567V28.3683H61.2247L60.2763 29.5659V28.756C60.2763 28.2991 60.2048 27.9184 60.0617 27.6138C59.9232 27.3092 59.7294 27.0807 59.4802 26.9285C59.2356 26.7715 58.9495 26.6931 58.6218 26.6931C58.2988 26.6931 58.0103 26.7739 57.7565 26.9354C57.5073 27.0923 57.3089 27.3253 57.1612 27.6345C57.0181 27.9391 56.9466 28.3129 56.9466 28.756V29.5728C56.9466 30.002 57.0181 30.3689 57.1612 30.6735C57.3042 30.9781 57.5073 31.2112 57.7704 31.3727C58.0334 31.5342 58.3472 31.615 58.7118 31.615C59.0072 31.615 59.2587 31.5711 59.4664 31.4834C59.674 31.3958 59.8402 31.2942 59.9648 31.1788C60.094 31.0589 60.1817 30.9504 60.2278 30.8535L60.2486 30.812H62.1315L62.1177 30.8812C62.0577 31.1212 61.9492 31.3727 61.7923 31.6357C61.6354 31.8942 61.4185 32.1365 61.1416 32.3626C60.8693 32.5887 60.5278 32.7733 60.1171 32.9164C59.711 33.0548 59.2287 33.1241 58.6703 33.1241ZM63.8483 32.9648V25.3432H65.8696V26.5339H65.9942C66.1558 26.1047 66.4234 25.7724 66.7973 25.537C67.1711 25.2971 67.6072 25.1771 68.1056 25.1771C68.4517 25.1771 68.7655 25.2348 69.0471 25.3501C69.3286 25.4609 69.5685 25.6201 69.767 25.8278C69.9654 26.0355 70.1177 26.287 70.2239 26.5823H70.3485C70.4639 26.3008 70.6346 26.0562 70.8607 25.8485C71.0869 25.6363 71.3522 25.4724 71.6568 25.3571C71.9614 25.2371 72.2914 25.1771 72.6467 25.1771C73.1544 25.1771 73.5905 25.2809 73.9551 25.4886C74.3243 25.6963 74.6081 25.9916 74.8065 26.3747C75.0096 26.7531 75.1111 27.2054 75.1111 27.7315V32.9648H73.0898V28.2368C73.0898 27.9276 73.0436 27.6715 72.9513 27.4684C72.859 27.2653 72.7183 27.1131 72.5291 27.0115C72.3445 26.9054 72.1114 26.8523 71.8299 26.8523C71.5576 26.8523 71.3199 26.9146 71.1169 27.0392C70.9184 27.1638 70.7638 27.3323 70.6531 27.5446C70.5423 27.7568 70.4869 28.0014 70.4869 28.2783V32.9648H68.4656V28.1468C68.4656 27.8745 68.4148 27.6415 68.3133 27.4476C68.2164 27.2538 68.0733 27.1061 67.8841 27.0046C67.6995 26.9031 67.4757 26.8523 67.2126 26.8523C66.9495 26.8523 66.7165 26.9192 66.5134 27.0531C66.315 27.1823 66.1581 27.3623 66.0427 27.593C65.9273 27.8191 65.8696 28.0776 65.8696 28.3683V32.9648H63.8483ZM81.5698 33.0825C81.2098 33.0825 80.8822 33.0318 80.5868 32.9302C80.2915 32.8241 80.033 32.6741 79.8115 32.4803C79.5946 32.2864 79.4192 32.0534 79.2854 31.7811H79.1608V32.9648H77.1394V22.4288H79.1608V26.5616H79.2854C79.4146 26.28 79.59 26.0401 79.8115 25.8416C80.0376 25.6432 80.2984 25.4909 80.5937 25.3847C80.8937 25.274 81.2191 25.2186 81.5698 25.2186C82.2113 25.2186 82.7628 25.3755 83.2243 25.6893C83.6858 26.0031 84.0411 26.4531 84.2903 27.0392C84.5395 27.6253 84.6641 28.3268 84.6641 29.1436V29.1575C84.6641 29.9697 84.5372 30.6689 84.2834 31.255C84.0342 31.8411 83.6788 32.2934 83.2173 32.6118C82.7559 32.9256 82.2067 33.0825 81.5698 33.0825ZM80.8776 31.4073C81.2375 31.4073 81.5444 31.3173 81.7982 31.1373C82.0567 30.9573 82.2551 30.6989 82.3936 30.362C82.5366 30.0251 82.6082 29.6236 82.6082 29.1575V29.1436C82.6082 28.6775 82.5366 28.2783 82.3936 27.9461C82.2551 27.6092 82.0567 27.3507 81.7982 27.1707C81.5444 26.9861 81.2375 26.8938 80.8776 26.8938C80.5268 26.8938 80.2199 26.9861 79.9569 27.1707C79.6984 27.3507 79.4977 27.6092 79.3546 27.9461C79.2115 28.2783 79.14 28.6798 79.14 29.1506V29.1644C79.14 29.6259 79.2092 30.0251 79.3477 30.362C79.4908 30.6989 79.6915 30.9573 79.9499 31.1373C80.213 31.3173 80.5222 31.4073 80.8776 31.4073ZM89.6552 33.1241C88.8845 33.1241 88.22 32.9648 87.6616 32.6464C87.1078 32.3234 86.6809 31.8665 86.3809 31.2758C86.0809 30.685 85.931 29.9813 85.931 29.1644V29.1575C85.931 28.3499 86.0786 27.6484 86.374 27.0531C86.674 26.4577 87.0962 25.9962 87.6408 25.6686C88.19 25.3409 88.8338 25.1771 89.5722 25.1771C90.3152 25.1771 90.9567 25.3363 91.4966 25.6547C92.0366 25.9732 92.4519 26.4185 92.7427 26.9908C93.0334 27.563 93.1788 28.2345 93.1788 29.0052V29.6351H86.9416V28.3683H92.2096L91.2613 29.5659V28.756C91.2613 28.2991 91.1897 27.9184 91.0467 27.6138C90.9082 27.3092 90.7144 27.0807 90.4652 26.9285C90.2206 26.7715 89.9345 26.6931 89.6068 26.6931C89.2837 26.6931 88.9953 26.7739 88.7415 26.9354C88.4923 27.0923 88.2938 27.3253 88.1461 27.6345C88.0031 27.9391 87.9316 28.3129 87.9316 28.756V29.5728C87.9316 30.002 88.0031 30.3689 88.1461 30.6735C88.2892 30.9781 88.4923 31.2112 88.7553 31.3727C89.0184 31.5342 89.3322 31.615 89.6968 31.615C89.9921 31.615 90.2437 31.5711 90.4513 31.4834C90.659 31.3958 90.8251 31.2942 90.9497 31.1788C91.079 31.0589 91.1667 30.9504 91.2128 30.8535L91.2336 30.812H93.1165L93.1026 30.8812C93.0426 31.1212 92.9342 31.3727 92.7773 31.6357C92.6204 31.8942 92.4035 32.1365 92.1266 32.3626C91.8543 32.5887 91.5128 32.7733 91.102 32.9164C90.6959 33.0548 90.2137 33.1241 89.6552 33.1241ZM94.8333 32.9648V25.3432H96.8546V26.5269H96.9792C97.1038 26.1116 97.3323 25.7909 97.6645 25.5647C97.9968 25.334 98.4099 25.2186 98.9037 25.2186C99.0421 25.2186 99.1759 25.2278 99.3052 25.2463C99.439 25.2648 99.5567 25.2878 99.6582 25.3155V27.0807C99.5059 27.0438 99.3513 27.0161 99.1944 26.9977C99.0421 26.9746 98.8875 26.9631 98.7306 26.9631C98.3476 26.9631 98.0153 27.0346 97.7338 27.1777C97.4523 27.3161 97.2353 27.5146 97.0831 27.773C96.9308 28.0314 96.8546 28.3406 96.8546 28.7006V32.9648H94.8333Z" fill="white"/>
<path d="M53.6633 97.4271C52.7496 97.4271 51.9308 97.2877 51.2069 97.0088C50.4889 96.7299 49.9163 96.3205 49.4891 95.7805C49.0678 95.2406 48.8423 94.582 48.8127 93.8047L48.8216 93.7869H51.198V93.8047C51.2573 94.137 51.3849 94.4277 51.5807 94.6769C51.7824 94.9202 52.0583 95.1071 52.4084 95.2376C52.7585 95.3682 53.1916 95.4334 53.7078 95.4334C54.2359 95.4334 54.675 95.3771 55.0251 95.2643C55.3752 95.1457 55.6362 94.9766 55.8083 94.757C55.9863 94.5375 56.0753 94.2794 56.0753 93.9827V93.9649C56.0753 93.5555 55.9181 93.2351 55.6036 93.0037C55.2951 92.7663 54.7403 92.5557 53.9393 92.3717L52.6042 92.078C51.8328 91.9 51.1802 91.6627 50.6461 91.366C50.1121 91.0634 49.7057 90.6836 49.4268 90.2268C49.1479 89.7699 49.0085 89.224 49.0085 88.5891V88.5713C49.0085 87.8237 49.2102 87.1799 49.6137 86.6399C50.0172 86.1 50.566 85.6846 51.2603 85.3939C51.9604 85.1031 52.7585 84.9578 53.6544 84.9578C54.586 84.9578 55.3989 85.1091 56.0931 85.4117C56.7933 85.7143 57.3421 86.1415 57.7397 86.6933C58.1432 87.2451 58.3597 87.8978 58.3894 88.6514L58.3805 88.6692L56.0219 88.6781L56.013 88.6603C55.9715 88.2865 55.8469 87.975 55.6392 87.7258C55.4315 87.4706 55.1616 87.2778 54.8293 87.1472C54.497 87.0167 54.1143 86.9514 53.6811 86.9514C53.2065 86.9514 52.8059 87.0137 52.4796 87.1383C52.1533 87.2629 51.907 87.4321 51.7409 87.6457C51.5747 87.8593 51.4917 88.1025 51.4917 88.3755V88.3933C51.4917 88.6366 51.5599 88.8531 51.6964 89.043C51.8388 89.2329 52.0583 89.399 52.355 89.5414C52.6517 89.6838 53.0374 89.8114 53.512 89.9241L54.856 90.2179C56.0724 90.4908 56.9921 90.8972 57.6151 91.4372C58.244 91.9712 58.5585 92.7248 58.5585 93.6979V93.7157C58.5585 94.5048 58.3449 95.1783 57.9177 95.736C57.4964 96.2879 56.9149 96.7091 56.1732 96.9999C55.4375 97.2847 54.6008 97.4271 53.6633 97.4271ZM53.2094 98.8868V83.4803H54.2241V98.8868H53.2094ZM64.0012 97.614V87.3074H63.8499L60.6814 89.4969V87.076L64.0012 84.7709H66.6891V97.614H64.0012ZM69.2304 101.032L69.9958 95.5491H72.568L70.957 101.032H69.2304ZM75.5008 97.614L80.9745 87.0493V86.9069H74.4951V84.7709H83.6802V86.9336L78.3133 97.614H75.5008ZM90.4402 97.9344C89.5264 97.9344 88.7224 97.7683 88.0282 97.436C87.3399 97.1037 86.794 96.6528 86.3905 96.0832C85.993 95.5135 85.7675 94.8727 85.7141 94.1607L85.7052 94.0272H88.1528L88.1617 94.0895C88.2269 94.404 88.3605 94.6917 88.5622 94.9528C88.7699 95.208 89.0339 95.4127 89.3543 95.5669C89.6807 95.7153 90.0456 95.7894 90.4491 95.7894C90.9119 95.7894 91.3183 95.6915 91.6684 95.4957C92.0185 95.294 92.2914 95.0181 92.4872 94.668C92.689 94.312 92.7898 93.9055 92.7898 93.4487V93.4309C92.7898 92.974 92.689 92.5705 92.4872 92.2204C92.2914 91.8703 92.0185 91.5974 91.6684 91.4016C91.3183 91.2058 90.9148 91.1079 90.458 91.1079C90.1316 91.1079 89.832 91.1554 89.559 91.2503C89.2861 91.3393 89.0428 91.4758 88.8292 91.6597C88.7046 91.7546 88.5919 91.8644 88.491 91.989C88.3901 92.1077 88.3011 92.2353 88.224 92.3717H85.9188L86.5151 84.7709H94.5521V86.9069H88.6067L88.2952 90.565H88.4465C88.6186 90.2742 88.8381 90.025 89.1051 89.8173C89.3781 89.6097 89.6925 89.4495 90.0485 89.3367C90.4046 89.224 90.7873 89.1676 91.1967 89.1676C91.9977 89.1676 92.7068 89.3486 93.3239 89.7105C93.9469 90.0725 94.4334 90.5709 94.7835 91.2058C95.1395 91.8347 95.3175 92.5586 95.3175 93.3775V93.3953C95.3175 94.2912 95.1099 95.0834 94.6945 95.7716C94.2851 96.454 93.7125 96.9851 92.9768 97.3648C92.2469 97.7446 91.4014 97.9344 90.4402 97.9344ZM102.229 97.8988C101.262 97.8988 100.413 97.7386 99.6833 97.4182C98.9594 97.0919 98.3868 96.6409 97.9656 96.0654C97.5443 95.4839 97.301 94.8104 97.2357 94.045L97.2268 93.9382H99.799L99.8079 94.0361C99.8495 94.3624 99.9711 94.6561 100.173 94.9172C100.381 95.1724 100.659 95.3741 101.009 95.5224C101.36 95.6648 101.766 95.736 102.229 95.736C102.686 95.736 103.083 95.6589 103.421 95.5046C103.766 95.3444 104.03 95.1249 104.214 94.846C104.403 94.5671 104.498 94.2467 104.498 93.8848V93.867C104.498 93.2499 104.279 92.7782 103.84 92.4518C103.407 92.1255 102.801 91.9623 102.024 91.9623H100.556V90.0487H101.988C102.439 90.0487 102.831 89.9746 103.163 89.8262C103.496 89.6779 103.754 89.4732 103.938 89.2121C104.122 88.9451 104.214 88.6395 104.214 88.2954V88.2776C104.214 87.9216 104.133 87.616 103.973 87.3609C103.819 87.0998 103.591 86.901 103.288 86.7645C102.991 86.6281 102.632 86.5598 102.211 86.5598C101.79 86.5598 101.419 86.631 101.098 86.7734C100.778 86.9158 100.523 87.1176 100.333 87.3787C100.143 87.6397 100.03 87.9483 99.9948 88.3043L99.9859 88.3844H97.5116L97.5205 88.2776C97.5858 87.5062 97.8172 86.8387 98.2148 86.275C98.6182 85.7113 99.1582 85.2722 99.8346 84.9578C100.517 84.6433 101.309 84.486 102.211 84.486C103.131 84.486 103.932 84.6314 104.614 84.9222C105.296 85.2129 105.822 85.6164 106.189 86.1326C106.563 86.6429 106.75 87.2392 106.75 87.9216V87.9394C106.75 88.4734 106.631 88.9421 106.394 89.3456C106.157 89.7491 105.836 90.0814 105.433 90.3425C105.029 90.6035 104.576 90.7875 104.071 90.8943V90.9477C105.026 91.0367 105.792 91.3452 106.367 91.8733C106.943 92.4014 107.231 93.1016 107.231 93.9738V93.9916C107.231 94.7689 107.02 95.4512 106.599 96.0387C106.184 96.6261 105.602 97.083 104.854 97.4093C104.107 97.7357 103.232 97.8988 102.229 97.8988Z" fill="white"/>
<mask id="mask1_1306_2871" style="mask-type:alpha" maskUnits="userSpaceOnUse" x="19" y="80" width="23" height="23">
<rect x="19.8694" y="80.9666" width="21.6034" height="21.6034" fill="#D9D9D9"/>
</mask>
<g mask="url(#mask1_1306_2871)">
<path d="M27.0705 92.6684H34.2941C34.5492 92.6684 34.7592 92.582 34.9242 92.4092C35.0893 92.2369 35.1718 92.0233 35.1718 91.7683C35.1718 91.5132 35.0854 91.2993 34.9125 91.1265C34.7403 90.9542 34.5267 90.8681 34.2716 90.8681H27.048C26.793 90.8681 26.5829 90.9542 26.4179 91.1265C26.2529 91.2993 26.1704 91.5132 26.1704 91.7683C26.1704 92.0233 26.2565 92.2369 26.4287 92.4092C26.6015 92.582 26.8155 92.6684 27.0705 92.6684ZM30.6711 100.77C29.4259 100.77 28.2557 100.533 27.1605 100.06C26.0654 99.5881 25.1127 98.9469 24.3026 98.1367C23.4925 97.3266 22.8513 96.374 22.379 95.2788C21.9061 94.1836 21.6697 93.0134 21.6697 91.7683C21.6697 90.5231 21.9061 89.3529 22.379 88.2577C22.8513 87.1625 23.4925 86.2099 24.3026 85.3998C25.1127 84.5896 26.0654 83.9481 27.1605 83.4753C28.2557 83.003 29.4259 82.7668 30.6711 82.7668C31.9163 82.7668 33.0865 83.003 34.1816 83.4753C35.2768 83.9481 36.2295 84.5896 37.0396 85.3998C37.8497 86.2099 38.4909 87.1625 38.9632 88.2577C39.4361 89.3529 39.6725 90.5231 39.6725 91.7683C39.6725 93.0134 39.4361 94.1836 38.9632 95.2788C38.4909 96.374 37.8497 97.3266 37.0396 98.1367C36.2295 98.9469 35.2768 99.5881 34.1816 100.06C33.0865 100.533 31.9163 100.77 30.6711 100.77Z" fill="white"/>
</g>
<rect x="15.4812" y="111.009" width="130.295" height="1.01266" fill="#3E326A"/>
<path d="M53.6633 135.908C52.7496 135.908 51.9308 135.769 51.2069 135.49C50.4889 135.211 49.9163 134.801 49.4891 134.262C49.0678 133.722 48.8423 133.063 48.8127 132.286L48.8216 132.268H51.198V132.286C51.2573 132.618 51.3849 132.909 51.5807 133.158C51.7824 133.401 52.0583 133.588 52.4084 133.719C52.7585 133.849 53.1916 133.914 53.7078 133.914C54.2359 133.914 54.675 133.858 55.0251 133.745C55.3752 133.627 55.6362 133.458 55.8083 133.238C55.9863 133.018 56.0753 132.76 56.0753 132.464V132.446C56.0753 132.036 55.9181 131.716 55.6036 131.485C55.2951 131.247 54.7403 131.037 53.9393 130.853L52.6042 130.559C51.8328 130.381 51.1802 130.144 50.6461 129.847C50.1121 129.544 49.7057 129.165 49.4268 128.708C49.1479 128.251 49.0085 127.705 49.0085 127.07V127.052C49.0085 126.305 49.2102 125.661 49.6137 125.121C50.0172 124.581 50.566 124.166 51.2603 123.875C51.9604 123.584 52.7585 123.439 53.6544 123.439C54.586 123.439 55.3989 123.59 56.0931 123.893C56.7933 124.195 57.3421 124.622 57.7397 125.174C58.1432 125.726 58.3597 126.379 58.3894 127.132L58.3805 127.15L56.0219 127.159L56.013 127.141C55.9715 126.767 55.8469 126.456 55.6392 126.207C55.4315 125.952 55.1616 125.759 54.8293 125.628C54.497 125.498 54.1143 125.432 53.6811 125.432C53.2065 125.432 52.8059 125.495 52.4796 125.619C52.1533 125.744 51.907 125.913 51.7409 126.127C51.5747 126.34 51.4917 126.584 51.4917 126.856V126.874C51.4917 127.118 51.5599 127.334 51.6964 127.524C51.8388 127.714 52.0583 127.88 52.355 128.022C52.6517 128.165 53.0374 128.292 53.512 128.405L54.856 128.699C56.0724 128.972 56.9921 129.378 57.6151 129.918C58.244 130.452 58.5585 131.206 58.5585 132.179V132.197C58.5585 132.986 58.3449 133.659 57.9177 134.217C57.4964 134.769 56.9149 135.19 56.1732 135.481C55.4375 135.766 54.6008 135.908 53.6633 135.908ZM53.2094 137.368V121.961H54.2241V137.368H53.2094ZM65.7279 136.415C64.8141 136.415 64.0101 136.249 63.3159 135.917C62.6276 135.585 62.0817 135.134 61.6783 134.564C61.2807 133.994 61.0552 133.354 61.0018 132.642L60.9929 132.508H63.4405L63.4494 132.57C63.5147 132.885 63.6482 133.173 63.8499 133.434C64.0576 133.689 64.3217 133.894 64.6421 134.048C64.9684 134.196 65.3333 134.27 65.7368 134.27C66.1996 134.27 66.6061 134.173 66.9561 133.977C67.3062 133.775 67.5792 133.499 67.775 133.149C67.9767 132.793 68.0776 132.387 68.0776 131.93V131.912C68.0776 131.455 67.9767 131.051 67.775 130.701C67.5792 130.351 67.3062 130.078 66.9561 129.883C66.6061 129.687 66.2026 129.589 65.7457 129.589C65.4194 129.589 65.1197 129.636 64.8468 129.731C64.5738 129.82 64.3306 129.957 64.1169 130.141C63.9923 130.236 63.8796 130.345 63.7787 130.47C63.6779 130.589 63.5889 130.716 63.5117 130.853H61.2065L61.8029 123.252H69.8398V125.388H63.8944L63.5829 129.046H63.7342C63.9063 128.755 64.1258 128.506 64.3929 128.298C64.6658 128.091 64.9803 127.93 65.3363 127.818C65.6923 127.705 66.075 127.649 66.4844 127.649C67.2855 127.649 67.9945 127.83 68.6116 128.191C69.2346 128.553 69.7212 129.052 70.0713 129.687C70.4273 130.316 70.6053 131.04 70.6053 131.858V131.876C70.6053 132.772 70.3976 133.564 69.9823 134.253C69.5728 134.935 69.0002 135.466 68.2645 135.846C67.5347 136.226 66.6891 136.415 65.7279 136.415ZM71.7936 139.513L72.5591 134.03H75.1313L73.5203 139.513H71.7936ZM82.4341 136.415C81.5204 136.415 80.7164 136.249 80.0222 135.917C79.3339 135.585 78.788 135.134 78.3845 134.564C77.987 133.994 77.7615 133.354 77.7081 132.642L77.6992 132.508H80.1468L80.1557 132.57C80.2209 132.885 80.3544 133.173 80.5562 133.434C80.7639 133.689 81.0279 133.894 81.3483 134.048C81.6747 134.196 82.0396 134.27 82.443 134.27C82.9059 134.27 83.3123 134.173 83.6624 133.977C84.0125 133.775 84.2854 133.499 84.4812 133.149C84.683 132.793 84.7838 132.387 84.7838 131.93V131.912C84.7838 131.455 84.683 131.051 84.4812 130.701C84.2854 130.351 84.0125 130.078 83.6624 129.883C83.3123 129.687 82.9088 129.589 82.4519 129.589C82.1256 129.589 81.826 129.636 81.553 129.731C81.2801 129.82 81.0368 129.957 80.8232 130.141C80.6986 130.236 80.5859 130.345 80.485 130.47C80.3841 130.589 80.2951 130.716 80.218 130.853H77.9128L78.5091 123.252H86.5461V125.388H80.6007L80.2892 129.046H80.4405C80.6126 128.755 80.8321 128.506 81.0991 128.298C81.372 128.091 81.6865 127.93 82.0425 127.818C82.3985 127.705 82.7813 127.649 83.1907 127.649C83.9917 127.649 84.7008 127.83 85.3179 128.191C85.9409 128.553 86.4274 129.052 86.7775 129.687C87.1335 130.316 87.3115 131.04 87.3115 131.858V131.876C87.3115 132.772 87.1038 133.564 86.6885 134.253C86.2791 134.935 85.7065 135.466 84.9707 135.846C84.2409 136.226 83.3954 136.415 82.4341 136.415ZM94.3741 136.415C93.3179 136.415 92.4071 136.142 91.6417 135.597C90.8822 135.051 90.2978 134.273 89.8883 133.265C89.4789 132.256 89.2742 131.06 89.2742 129.678V129.66C89.2742 128.278 89.4789 127.085 89.8883 126.082C90.2978 125.073 90.8822 124.296 91.6417 123.75C92.4071 123.204 93.3179 122.931 94.3741 122.931C95.4362 122.931 96.347 123.204 97.1065 123.75C97.8719 124.296 98.4593 125.073 98.8688 126.082C99.2782 127.085 99.4829 128.278 99.4829 129.66V129.678C99.4829 131.06 99.2782 132.256 98.8688 133.265C98.4593 134.273 97.8719 135.051 97.1065 135.597C96.347 136.142 95.4362 136.415 94.3741 136.415ZM94.3741 134.297C94.8844 134.297 95.3175 134.113 95.6735 133.745C96.0296 133.377 96.2995 132.849 96.4835 132.161C96.6733 131.473 96.7683 130.645 96.7683 129.678V129.66C96.7683 128.693 96.6733 127.868 96.4835 127.186C96.2995 126.497 96.0296 125.972 95.6735 125.61C95.3175 125.243 94.8844 125.059 94.3741 125.059C93.8697 125.059 93.4396 125.243 93.0836 125.61C92.7275 125.972 92.4546 126.497 92.2647 127.186C92.0808 127.868 91.9888 128.693 91.9888 129.66V129.678C91.9888 130.645 92.0808 131.473 92.2647 132.161C92.4546 132.849 92.7275 133.377 93.0836 133.745C93.4396 134.113 93.8697 134.297 94.3741 134.297ZM106.652 136.415C105.596 136.415 104.685 136.142 103.92 135.597C103.16 135.051 102.576 134.273 102.167 133.265C101.757 132.256 101.552 131.06 101.552 129.678V129.66C101.552 128.278 101.757 127.085 102.167 126.082C102.576 125.073 103.16 124.296 103.92 123.75C104.685 123.204 105.596 122.931 106.652 122.931C107.714 122.931 108.625 123.204 109.385 123.75C110.15 124.296 110.738 125.073 111.147 126.082C111.556 127.085 111.761 128.278 111.761 129.66V129.678C111.761 131.06 111.556 132.256 111.147 133.265C110.738 134.273 110.15 135.051 109.385 135.597C108.625 136.142 107.714 136.415 106.652 136.415ZM106.652 134.297C107.163 134.297 107.596 134.113 107.952 133.745C108.308 133.377 108.578 132.849 108.762 132.161C108.952 131.473 109.046 130.645 109.046 129.678V129.66C109.046 128.693 108.952 127.868 108.762 127.186C108.578 126.497 108.308 125.972 107.952 125.61C107.596 125.243 107.163 125.059 106.652 125.059C106.148 125.059 105.718 125.243 105.362 125.61C105.006 125.972 104.733 126.497 104.543 127.186C104.359 127.868 104.267 128.693 104.267 129.66V129.678C104.267 130.645 104.359 131.473 104.543 132.161C104.733 132.849 105.006 133.377 105.362 133.745C105.718 134.113 106.148 134.297 106.652 134.297Z" fill="white"/>
<mask id="mask2_1306_2871" style="mask-type:alpha" maskUnits="userSpaceOnUse" x="19" y="119" width="23" height="23">
<rect x="19.8694" y="119.448" width="21.6034" height="21.6034" fill="#D9D9D9"/>
</mask>
<g mask="url(#mask2_1306_2871)">
<path d="M30.6711 134.75C30.9261 134.75 31.1401 134.663 31.3129 134.491C31.4851 134.318 31.5712 134.105 31.5712 133.85V131.149H34.2941C34.5492 131.149 34.7592 131.063 34.9242 130.89C35.0893 130.718 35.1718 130.504 35.1718 130.249C35.1718 129.994 35.0854 129.78 34.9125 129.607C34.7403 129.435 34.5267 129.349 34.2716 129.349H31.5712V126.626C31.5712 126.371 31.4851 126.161 31.3129 125.996C31.1401 125.831 30.9261 125.749 30.6711 125.749C30.416 125.749 30.2024 125.835 30.0302 126.007C29.8574 126.18 29.7709 126.394 29.7709 126.649V129.349H27.048C26.793 129.349 26.5829 129.435 26.4179 129.607C26.2529 129.78 26.1704 129.994 26.1704 130.249C26.1704 130.504 26.2565 130.718 26.4287 130.89C26.6015 131.063 26.8155 131.149 27.0705 131.149H29.7709V133.872C29.7709 134.127 29.8574 134.337 30.0302 134.502C30.2024 134.667 30.416 134.75 30.6711 134.75ZM30.6711 139.251C29.4259 139.251 28.2557 139.014 27.1605 138.541C26.0654 138.069 25.1127 137.428 24.3026 136.618C23.4925 135.808 22.8513 134.855 22.379 133.76C21.9061 132.665 21.6697 131.494 21.6697 130.249C21.6697 129.004 21.9061 127.834 22.379 126.739C22.8513 125.643 23.4925 124.691 24.3026 123.881C25.1127 123.071 26.0654 122.429 27.1605 121.956C28.2557 121.484 29.4259 121.248 30.6711 121.248C31.9163 121.248 33.0865 121.484 34.1816 121.956C35.2768 122.429 36.2295 123.071 37.0396 123.881C37.8497 124.691 38.4909 125.643 38.9632 126.739C39.4361 127.834 39.6725 129.004 39.6725 130.249C39.6725 131.494 39.4361 132.665 38.9632 133.76C38.4909 134.855 37.8497 135.808 37.0396 136.618C36.2295 137.428 35.2768 138.069 34.1816 138.541C33.0865 139.014 31.9163 139.251 30.6711 139.251Z" fill="white"/>
</g>
</g>
</svg>
