<svg width="340" height="73" viewBox="0 0 340 73" fill="none" xmlns="http://www.w3.org/2000/svg">
<rect width="339.405" height="72.6" rx="36.3" fill="#23283E"/>
<path d="M-7.54201e-06 36.3C-3.37668e-06 16.2521 16.2521 0 36.3 0H142.478L142.478 72.6H36.3C16.2521 72.6 -1.17074e-05 56.3479 -7.54201e-06 36.3V36.3Z" fill="#C67A4C"/>
<path d="M-7.54201e-06 36.3C-3.37668e-06 16.2521 16.2521 0 36.3 0H55.3575L55.3575 72.6H36.3C16.252 72.6 -1.17074e-05 56.3479 -7.54201e-06 36.3V36.3Z" fill="#C67A4C"/>
<path d="M261.774 43.3874C261.647 43.3874 261.539 43.343 261.45 43.254C261.361 43.1651 261.317 43.0571 261.317 42.9301L261.317 40.4907H255.275C255.136 40.4907 255.021 40.4462 254.932 40.3573C254.856 40.2684 254.818 40.1604 254.818 40.0333L254.818 38.7374C254.818 38.6612 254.831 38.5723 254.856 38.4706C254.894 38.3563 254.951 38.2546 255.028 38.1657L260.65 30.3712C260.815 30.1552 261.05 30.0472 261.355 30.0472H263.432C263.559 30.0472 263.667 30.0917 263.756 30.1806C263.845 30.2695 263.889 30.3775 263.889 30.5046L263.889 38.2419H265.586C265.738 38.2419 265.852 38.2864 265.929 38.3753C266.017 38.4516 266.062 38.5595 266.062 38.6993L266.062 40.0333C266.062 40.1604 266.017 40.2684 265.929 40.3573C265.84 40.4462 265.732 40.4907 265.605 40.4907H263.889L263.889 42.9301C263.889 43.0571 263.845 43.1651 263.756 43.254C263.667 43.343 263.559 43.3874 263.432 43.3874H261.774ZM257.467 38.3182H261.374L261.374 32.8105L257.467 38.3182ZM273.12 43.578C272.281 43.578 271.532 43.4764 270.871 43.2731C270.21 43.0698 269.651 42.784 269.194 42.4155C268.749 42.0471 268.406 41.6151 268.165 41.1196C267.936 40.6241 267.822 40.0714 267.822 39.4616C267.822 38.7247 268 38.0895 268.355 37.5559C268.724 37.0095 269.2 36.5903 269.785 36.2981C269.315 36.0058 268.946 35.631 268.679 35.1737C268.425 34.7163 268.298 34.1827 268.298 33.5728C268.298 32.8359 268.482 32.1943 268.851 31.648C269.232 31.089 269.778 30.6507 270.49 30.3331C271.214 30.0154 272.091 29.8566 273.12 29.8566C274.149 29.8566 275.019 30.0154 275.731 30.3331C276.442 30.638 276.982 31.07 277.351 31.629C277.719 32.1753 277.903 32.8169 277.903 33.5538C277.903 34.1636 277.776 34.6972 277.522 35.1546C277.268 35.612 276.912 35.9931 276.455 36.2981C277.052 36.5776 277.528 36.9968 277.884 37.5559C278.24 38.1022 278.418 38.7438 278.418 39.4807C278.418 40.2811 278.208 40.9926 277.789 41.6151C277.382 42.2249 276.779 42.7077 275.978 43.0635C275.191 43.4065 274.238 43.578 273.12 43.578ZM273.12 41.596C273.615 41.596 274.06 41.5135 274.454 41.3483C274.86 41.1704 275.178 40.9227 275.407 40.6051C275.648 40.2874 275.769 39.9126 275.769 39.4807C275.769 39.036 275.648 38.6612 275.407 38.3563C275.178 38.0386 274.86 37.7972 274.454 37.6321C274.06 37.4542 273.615 37.3653 273.12 37.3653C272.624 37.3653 272.173 37.4542 271.767 37.6321C271.373 37.7972 271.055 38.0386 270.814 38.3563C270.585 38.6612 270.471 39.036 270.471 39.4807C270.471 39.9126 270.585 40.2874 270.814 40.6051C271.055 40.9227 271.373 41.1704 271.767 41.3483C272.173 41.5135 272.624 41.596 273.12 41.596ZM273.12 35.4786C273.539 35.4659 273.92 35.3833 274.263 35.2308C274.619 35.0784 274.898 34.8751 275.102 34.621C275.318 34.3542 275.426 34.0366 275.426 33.6681C275.426 33.2997 275.324 32.9821 275.121 32.7152C274.93 32.4357 274.657 32.2198 274.301 32.0673C273.958 31.9148 273.564 31.8386 273.12 31.8386C272.675 31.8386 272.275 31.9148 271.919 32.0673C271.576 32.2198 271.303 32.4357 271.1 32.7152C270.909 32.9821 270.814 33.2997 270.814 33.6681C270.814 34.0366 270.909 34.3542 271.1 34.621C271.303 34.8878 271.576 35.0974 271.919 35.2499C272.275 35.4024 272.675 35.4786 273.12 35.4786ZM285.817 43.578C284.915 43.578 284.146 43.4446 283.511 43.1778C282.876 42.911 282.355 42.5426 281.948 42.0725C281.542 41.6024 281.237 41.0624 281.033 40.4526C280.83 39.83 280.709 39.1694 280.671 38.4706C280.659 38.1276 280.646 37.7528 280.633 37.3462C280.633 36.927 280.633 36.5077 280.633 36.0884C280.646 35.6692 280.659 35.2817 280.671 34.9259C280.697 34.2271 280.817 33.5728 281.033 32.963C281.249 32.3405 281.561 31.8005 281.967 31.3431C282.386 30.8857 282.914 30.5236 283.549 30.2568C284.184 29.99 284.94 29.8566 285.817 29.8566C286.706 29.8566 287.468 29.99 288.104 30.2568C288.739 30.5236 289.26 30.8857 289.666 31.3431C290.086 31.8005 290.397 32.3405 290.6 32.963C290.816 33.5728 290.937 34.2271 290.962 34.9259C290.988 35.2817 291 35.6692 291 36.0884C291 36.5077 291 36.927 291 37.3462C291 37.7528 290.988 38.1276 290.962 38.4706C290.937 39.1694 290.823 39.83 290.619 40.4526C290.416 41.0624 290.111 41.6024 289.705 42.0725C289.298 42.5426 288.771 42.911 288.123 43.1778C287.488 43.4446 286.719 43.578 285.817 43.578ZM285.817 41.3864C286.643 41.3864 287.246 41.1196 287.627 40.586C288.021 40.0397 288.224 39.3028 288.237 38.3753C288.263 38.0069 288.275 37.6384 288.275 37.27C288.275 36.8888 288.275 36.5077 288.275 36.1265C288.275 35.7454 288.263 35.3833 288.237 35.0403C288.224 34.1382 288.021 33.414 287.627 32.8677C287.246 32.3087 286.643 32.0292 285.817 32.0292C285.004 32.0292 284.4 32.3087 284.006 32.8677C283.625 33.414 283.422 34.1382 283.397 35.0403C283.397 35.3833 283.39 35.7454 283.377 36.1265C283.377 36.5077 283.377 36.8888 283.377 37.27C283.39 37.6384 283.397 38.0069 283.397 38.3753C283.422 39.3028 283.632 40.0397 284.025 40.586C284.419 41.1196 285.016 41.3864 285.817 41.3864ZM297.808 45.2932C297.681 45.2932 297.573 45.2487 297.484 45.1598C297.395 45.0709 297.351 44.9629 297.351 44.8358L297.351 43.5018C296.411 43.4129 295.617 43.1905 294.969 42.8348C294.321 42.4663 293.832 42.028 293.501 41.5198C293.171 40.9989 292.993 40.4589 292.968 39.8999C292.968 39.7856 293.006 39.6903 293.082 39.6141C293.171 39.5378 293.273 39.4997 293.387 39.4997H295.083C295.236 39.4997 295.356 39.5378 295.445 39.6141C295.534 39.6776 295.604 39.7602 295.655 39.8618C295.744 40.1032 295.89 40.3446 296.093 40.586C296.309 40.8147 296.608 41.0053 296.989 41.1577C297.37 41.3102 297.846 41.3864 298.418 41.3864C299.333 41.3864 300.013 41.234 300.457 40.929C300.902 40.6241 301.124 40.2112 301.124 39.6903C301.124 39.3218 301.004 39.0296 300.762 38.8136C300.534 38.585 300.165 38.3817 299.657 38.2038C299.149 38.0132 298.482 37.8163 297.656 37.613C296.716 37.3843 295.922 37.1112 295.274 36.7936C294.626 36.4632 294.137 36.0503 293.806 35.5548C293.489 35.0593 293.33 34.4304 293.33 33.6681C293.33 32.6898 293.686 31.8577 294.397 31.1716C295.109 30.4855 296.093 30.0663 297.351 29.9138L297.351 28.5988C297.351 28.4718 297.395 28.3638 297.484 28.2749C297.573 28.1859 297.681 28.1414 297.808 28.1414H298.971C299.098 28.1414 299.206 28.1859 299.295 28.2749C299.384 28.3638 299.428 28.4718 299.428 28.5988L299.428 29.9519C300.292 30.079 301.016 30.3331 301.601 30.7142C302.185 31.0954 302.63 31.5337 302.935 32.0292C303.24 32.512 303.399 32.9821 303.411 33.4394C303.411 33.5411 303.373 33.6364 303.297 33.7253C303.233 33.8015 303.138 33.8396 303.011 33.8396H301.239C301.124 33.8396 301.016 33.8142 300.915 33.7634C300.813 33.7126 300.73 33.6173 300.667 33.4775C300.603 33.0837 300.362 32.747 299.943 32.4675C299.524 32.188 298.977 32.0482 298.304 32.0482C297.618 32.0482 297.065 32.1753 296.646 32.4294C296.239 32.6835 296.036 33.0773 296.036 33.611C296.036 33.9667 296.138 34.2653 296.341 34.5067C296.544 34.7353 296.875 34.9386 297.332 35.1165C297.802 35.2944 298.425 35.4849 299.2 35.6882C300.279 35.9296 301.156 36.2091 301.829 36.5267C302.516 36.8444 303.017 37.2509 303.335 37.7464C303.665 38.2292 303.83 38.8454 303.83 39.595C303.83 40.3319 303.646 40.9799 303.278 41.5389C302.922 42.0852 302.414 42.5299 301.753 42.8729C301.093 43.2032 300.318 43.4192 299.428 43.5209L299.428 44.8358C299.428 44.9629 299.384 45.0709 299.295 45.1598C299.206 45.2487 299.098 45.2932 298.971 45.2932H297.808Z" fill="white"/>
<path d="M35.3745 41.8325C35.2547 41.8325 35.1621 41.7998 35.0968 41.7345C35.0314 41.6583 34.9988 41.5657 34.9988 41.4568L34.9988 30.7901C34.9988 30.6703 35.0315 30.5777 35.0968 30.5124C35.1621 30.4361 35.2547 30.398 35.3745 30.398L42.0392 30.398C42.159 30.398 42.2515 30.4361 42.3169 30.5124C42.3822 30.5777 42.4149 30.6703 42.4149 30.7901L42.4149 31.4435C42.4149 31.5632 42.3822 31.6558 42.3169 31.7212C42.2515 31.7865 42.159 31.8192 42.0392 31.8192H36.5833L36.5833 35.6252H41.7125C41.8323 35.6252 41.9248 35.6633 41.9902 35.7396C42.0555 35.8049 42.0882 35.8975 42.0882 36.0173L42.0882 36.6707C42.0882 36.7796 42.0555 36.8721 41.9902 36.9484C41.9248 37.0137 41.8323 37.0464 41.7125 37.0464H36.5833L36.5833 41.4568C36.5833 41.5657 36.5452 41.6583 36.4689 41.7345C36.4036 41.7998 36.311 41.8325 36.1912 41.8325H35.3745ZM44.5545 41.8325C44.4456 41.8325 44.353 41.7998 44.2768 41.7345C44.2115 41.6583 44.1788 41.5657 44.1788 41.4568L44.1788 30.6104C44.1788 30.5015 44.2115 30.4144 44.2768 30.349C44.353 30.2728 44.4456 30.2347 44.5545 30.2347H45.3222C45.442 30.2347 45.5346 30.2728 45.5999 30.349C45.6653 30.4144 45.698 30.5015 45.698 30.6104L45.698 41.4568C45.698 41.5657 45.6653 41.6583 45.5999 41.7345C45.5346 41.7998 45.442 41.8325 45.3222 41.8325H44.5545ZM50.3398 41.9959C49.7953 41.9959 49.2998 41.887 48.8533 41.6692C48.4068 41.4514 48.0474 41.1573 47.7752 40.7871C47.5029 40.4168 47.3668 39.9976 47.3668 39.5293C47.3668 38.7779 47.6717 38.1789 48.2816 37.7324C48.8914 37.2859 49.6864 36.9919 50.6665 36.8503L53.1004 36.5073L53.1004 36.0336C53.1004 35.5109 52.9479 35.1025 52.643 34.8085C52.349 34.5144 51.8644 34.3674 51.1892 34.3674C50.6991 34.3674 50.3017 34.4654 49.9967 34.6615C49.7027 34.8575 49.4958 35.1079 49.376 35.4129C49.3107 35.5762 49.1963 35.6579 49.033 35.6579H48.2979C48.1781 35.6579 48.0855 35.6252 48.0202 35.5599C47.9658 35.4836 47.9385 35.3965 47.9385 35.2985C47.9385 35.1352 47.9984 34.9337 48.1182 34.6941C48.2489 34.4545 48.4449 34.2204 48.7063 33.9917C48.9676 33.763 49.2998 33.5725 49.7027 33.42C50.1165 33.2566 50.6175 33.175 51.2055 33.175C51.8589 33.175 52.4089 33.2621 52.8554 33.4363C53.3019 33.5997 53.6503 33.8229 53.9008 34.1061C54.1622 34.3892 54.3473 34.7105 54.4562 35.0698C54.576 35.4292 54.6359 35.794 54.6359 36.1643L54.6359 41.4568C54.6359 41.5657 54.5978 41.6583 54.5215 41.7345C54.4562 41.7998 54.3691 41.8325 54.2602 41.8325H53.5088C53.389 41.8325 53.2964 41.7998 53.2311 41.7345C53.1657 41.6583 53.1331 41.5657 53.1331 41.4568L53.1331 40.7544C52.9915 40.9504 52.8009 41.1464 52.5613 41.3425C52.3218 41.5276 52.0223 41.6855 51.6629 41.8162C51.3035 41.936 50.8625 41.9959 50.3398 41.9959ZM50.6828 40.7707C51.1293 40.7707 51.5377 40.6782 51.9079 40.493C52.2782 40.297 52.5668 39.9976 52.7737 39.5946C52.9915 39.1917 53.1004 38.6853 53.1004 38.0755L53.1004 37.6181L51.2055 37.8958C50.4323 38.0047 49.8497 38.1898 49.4577 38.4512C49.0656 38.7016 48.8696 39.0229 48.8696 39.4149C48.8696 39.7199 48.9567 39.9758 49.131 40.1827C49.3161 40.3787 49.5448 40.5257 49.8171 40.6237C50.1002 40.7217 50.3888 40.7707 50.6828 40.7707ZM60.0571 41.8325C59.4472 41.8325 58.9517 41.7182 58.5706 41.4895C58.1894 41.2499 57.9117 40.9178 57.7375 40.493C57.5632 40.0574 57.4761 39.5456 57.4761 38.9576L57.4761 34.6451H56.202C56.0931 34.6451 56.0005 34.6124 55.9243 34.5471C55.859 34.4709 55.8263 34.3783 55.8263 34.2694L55.8263 33.714C55.8263 33.6051 55.859 33.518 55.9243 33.4527C56.0005 33.3764 56.0931 33.3383 56.202 33.3383H57.4761L57.4761 30.6104C57.4761 30.5015 57.5088 30.4144 57.5741 30.349C57.6504 30.2728 57.7429 30.2347 57.8518 30.2347H58.6196C58.7285 30.2347 58.8156 30.2728 58.8809 30.349C58.9572 30.4144 58.9953 30.5015 58.9953 30.6104L58.9953 33.3383H61.0208C61.1297 33.3383 61.2168 33.3764 61.2822 33.4527C61.3584 33.518 61.3965 33.6051 61.3965 33.714L61.3965 34.2694C61.3965 34.3783 61.3584 34.4709 61.2822 34.5471C61.2168 34.6124 61.1297 34.6451 61.0208 34.6451H58.9953L58.9953 38.8432C58.9953 39.355 59.0824 39.758 59.2566 40.052C59.4309 40.346 59.7412 40.493 60.1877 40.493H61.1842C61.2931 40.493 61.3802 40.5312 61.4455 40.6074C61.5218 40.6727 61.5599 40.7599 61.5599 40.8688L61.5599 41.4568C61.5599 41.5657 61.5218 41.6583 61.4455 41.7345C61.3802 41.7998 61.2931 41.8325 61.1842 41.8325H60.0571ZM67.1749 41.8325C67.066 41.8325 66.9734 41.7998 66.8972 41.7345C66.8319 41.6583 66.7992 41.5657 66.7992 41.4568L66.7992 33.7304C66.7992 33.6215 66.8319 33.5289 66.8972 33.4527C66.9734 33.3764 67.066 33.3383 67.1749 33.3383H67.9263C68.0352 33.3383 68.1278 33.3764 68.204 33.4527C68.2802 33.5289 68.3184 33.6215 68.3184 33.7304L68.3184 34.4491C68.5362 34.0788 68.8356 33.8011 69.2168 33.616C69.5979 33.4309 70.0553 33.3383 70.5889 33.3383H71.2423C71.3512 33.3383 71.4383 33.3764 71.5037 33.4527C71.569 33.518 71.6017 33.6051 71.6017 33.714L71.6017 34.3838C71.6017 34.4927 71.569 34.5798 71.5037 34.6451C71.4383 34.7105 71.3512 34.7431 71.2423 34.7431H70.2622C69.6742 34.7431 69.2113 34.9174 68.8737 35.2658C68.5362 35.6034 68.3674 36.0663 68.3674 36.6543L68.3674 41.4568C68.3674 41.5657 68.3292 41.6583 68.253 41.7345C68.1768 41.7998 68.0842 41.8325 67.9753 41.8325H67.1749ZM76.0631 41.9959C74.9414 41.9959 74.0484 41.6528 73.3841 40.9668C72.7198 40.2698 72.355 39.3224 72.2897 38.1245C72.2788 37.9829 72.2733 37.8032 72.2733 37.5854C72.2733 37.3567 72.2788 37.1716 72.2897 37.03C72.3332 36.2568 72.5129 35.5817 72.8287 35.0045C73.1445 34.4164 73.5747 33.9645 74.1192 33.6487C74.6746 33.3329 75.3225 33.175 76.0631 33.175C76.8907 33.175 77.5822 33.3492 78.1376 33.6977C78.7039 34.0462 79.134 34.5417 79.4281 35.1842C79.7221 35.8267 79.8691 36.5781 79.8691 37.4384L79.8691 37.7161C79.8691 37.8359 79.831 37.9285 79.7548 37.9938C79.6894 38.0591 79.6023 38.0918 79.4934 38.0918H73.8415C73.8415 38.1027 73.8415 38.1245 73.8415 38.1571C73.8415 38.1898 73.8415 38.217 73.8415 38.2388C73.8633 38.6853 73.9613 39.1046 74.1355 39.4966C74.3098 39.8778 74.5602 40.1881 74.8869 40.4277C75.2136 40.6673 75.6057 40.7871 76.0631 40.7871C76.4551 40.7871 76.7818 40.7272 77.0432 40.6074C77.3045 40.4876 77.5169 40.3569 77.6802 40.2154C77.8436 40.0629 77.9525 39.9485 78.0069 39.8723C78.1049 39.7307 78.1812 39.6491 78.2356 39.6273C78.2901 39.5946 78.3772 39.5783 78.497 39.5783H79.2811C79.39 39.5783 79.4771 39.611 79.5424 39.6763C79.6186 39.7307 79.6513 39.8124 79.6404 39.9213C79.6295 40.0847 79.5424 40.2861 79.3791 40.5257C79.2157 40.7544 78.9816 40.9831 78.6767 41.2118C78.3717 41.4405 78.0015 41.6311 77.5659 41.7835C77.1303 41.9251 76.6293 41.9959 76.0631 41.9959ZM73.8415 36.9647H78.3173L78.3173 36.9157C78.3173 36.4256 78.2247 35.99 78.0396 35.6089C77.8654 35.2277 77.6094 34.9283 77.2719 34.7105C76.9343 34.4818 76.5313 34.3674 76.0631 34.3674C75.5948 34.3674 75.1919 34.4818 74.8543 34.7105C74.5276 34.9283 74.2771 35.2277 74.1029 35.6089C73.9286 35.99 73.8415 36.4256 73.8415 36.9157L73.8415 36.9647ZM82.0347 41.8325C81.9258 41.8325 81.8332 41.7998 81.757 41.7345C81.6916 41.6583 81.6589 41.5657 81.6589 41.4568L81.6589 33.714C81.6589 33.6051 81.6916 33.518 81.757 33.4527C81.8332 33.3764 81.9258 33.3383 82.0347 33.3383H82.8024C82.9113 33.3383 82.9984 33.3764 83.0638 33.4527C83.14 33.518 83.1781 33.6051 83.1781 33.714L83.1781 34.4328C83.4612 34.0625 83.8152 33.763 84.2399 33.5343C84.6755 33.2948 85.2309 33.175 85.906 33.175C86.6139 33.175 87.2128 33.3329 87.7029 33.6487C88.2038 33.9536 88.5795 34.3838 88.83 34.9391C89.0805 35.4836 89.2057 36.1207 89.2057 36.8503L89.2057 41.4568C89.2057 41.5657 89.173 41.6583 89.1077 41.7345C89.0424 41.7998 88.9552 41.8325 88.8463 41.8325H88.0296C87.9207 41.8325 87.8281 41.7998 87.7519 41.7345C87.6866 41.6583 87.6539 41.5657 87.6539 41.4568L87.6539 36.932C87.6539 36.1697 87.4688 35.5762 87.0985 35.1515C86.7282 34.7159 86.1837 34.4981 85.465 34.4981C84.7898 34.4981 84.2453 34.7159 83.8315 35.1515C83.4286 35.5762 83.2271 36.1697 83.2271 36.932L83.2271 41.4568C83.2271 41.5657 83.189 41.6583 83.1128 41.7345C83.0474 41.7998 82.9603 41.8325 82.8514 41.8325H82.0347ZM94.6062 41.8325C93.9964 41.8325 93.5009 41.7182 93.1197 41.4895C92.7386 41.2499 92.4609 40.9178 92.2867 40.493C92.1124 40.0574 92.0253 39.5456 92.0253 38.9576L92.0253 34.6451H90.7512C90.6423 34.6451 90.5497 34.6124 90.4735 34.5471C90.4081 34.4709 90.3755 34.3783 90.3755 34.2694L90.3755 33.714C90.3755 33.6051 90.4081 33.518 90.4735 33.4527C90.5497 33.3764 90.6423 33.3383 90.7512 33.3383H92.0253L92.0253 30.6104C92.0253 30.5015 92.058 30.4144 92.1233 30.349C92.1995 30.2728 92.2921 30.2347 92.401 30.2347H93.1687C93.2776 30.2347 93.3648 30.2728 93.4301 30.349C93.5063 30.4144 93.5444 30.5015 93.5444 30.6104L93.5444 33.3383H95.57C95.6789 33.3383 95.766 33.3764 95.8313 33.4527C95.9076 33.518 95.9457 33.6051 95.9457 33.714L95.9457 34.2694C95.9457 34.3783 95.9076 34.4709 95.8313 34.5471C95.766 34.6124 95.6789 34.6451 95.57 34.6451H93.5444L93.5444 38.8432C93.5444 39.355 93.6316 39.758 93.8058 40.052C93.98 40.346 94.2904 40.493 94.7369 40.493H95.7333C95.8422 40.493 95.9294 40.5312 95.9947 40.6074C96.0709 40.6727 96.109 40.7599 96.109 40.8688L96.109 41.4568C96.109 41.5657 96.0709 41.6583 95.9947 41.7345C95.9294 41.7998 95.8422 41.8325 95.7333 41.8325H94.6062Z" fill="white"/>
</svg>
