<svg width="180" height="60" viewBox="0 0 180 60" fill="none" xmlns="http://www.w3.org/2000/svg">
<g clip-path="url(#clip0_1304_2792)">
<path d="M165.202 0.000195H14.302C13.752 0.000195 13.2085 0.000195 12.6599 0.003195C12.2007 0.006195 11.7451 0.01491 11.2815 0.022245C10.2743 0.0340977 9.26941 0.122709 8.27565 0.28731C7.28329 0.455494 6.32201 0.772569 5.42433 1.22781C4.52775 1.6869 3.70852 2.28345 2.99635 2.9958C2.28045 3.70615 1.68369 4.52722 1.22902 5.42743C0.7731 6.32586 0.456961 7.2886 0.291525 8.28242C0.124516 9.27497 0.0346476 10.279 0.022725 11.2854C0.008805 11.7453 0.007335 12.2067 0 12.6667V47.3381C0.007335 47.8038 0.008805 48.255 0.022725 48.7209C0.0346512 49.7273 0.12452 50.7313 0.291525 51.7238C0.456504 52.7182 0.772662 53.6815 1.22902 54.5802C1.68349 55.4775 2.28033 56.2953 2.99635 57.0017C3.70582 57.7172 4.52558 58.3142 5.42433 58.7697C6.322 59.2262 7.28317 59.5452 8.27565 59.7159C9.26958 59.8792 10.2743 59.9679 11.2815 59.9811C11.7451 59.9913 12.2007 59.9972 12.6599 59.9972C13.2085 60.0002 13.752 60.0002 14.302 60.0002H165.202C165.741 60.0002 166.289 60.0002 166.828 59.9972C167.285 59.9972 167.754 59.9913 168.211 59.9811C169.216 59.9686 170.219 59.8799 171.211 59.7159C172.207 59.544 173.171 59.2251 174.073 58.7697C174.971 58.3139 175.79 57.717 176.499 57.0017C177.213 56.2925 177.811 55.4754 178.271 54.5802C178.724 53.6808 179.038 52.7176 179.2 51.7238C179.367 50.7311 179.46 49.7274 179.479 48.7209C179.484 48.255 179.484 47.8038 179.484 47.3381C179.496 46.7931 179.496 46.2512 179.496 45.6974V14.3044C179.496 13.7551 179.496 13.2102 179.484 12.6667C179.484 12.2067 179.484 11.7453 179.479 11.2854C179.46 10.2788 179.367 9.27505 179.2 8.28236C179.037 7.28912 178.724 6.32645 178.271 5.42737C177.346 3.62299 175.877 2.15423 174.073 1.22767C173.171 0.773546 172.207 0.456556 171.211 0.287175C170.219 0.121849 169.216 0.0332066 168.211 0.022035C167.754 0.014715 167.285 0.005925 166.828 0.003C166.289 0 165.741 0.000195 165.202 0.000195Z" fill="#A6A6A6"/>
<path d="M12.6672 58.6875C12.2102 58.6875 11.7642 58.6816 11.3107 58.6714C10.3714 58.6592 9.43428 58.5774 8.50703 58.4268C7.64242 58.2779 6.80484 58.0009 6.02192 57.605C5.24619 57.2123 4.53865 56.6974 3.92642 56.08C3.30533 55.47 2.78825 54.7624 2.39566 53.9853C1.99874 53.2032 1.72405 52.3648 1.58116 51.4995C1.42684 50.5697 1.34335 49.6295 1.33141 48.687C1.3219 48.3707 1.30945 47.3174 1.30945 47.3174V12.6665C1.30945 12.6665 1.32271 11.6294 1.33148 11.3247C1.34292 10.3837 1.42593 9.44498 1.57978 8.5166C1.72294 7.64888 1.99784 6.80812 2.39497 6.02344C2.78612 5.24692 3.30033 4.53879 3.91768 3.92652C4.53433 3.30843 5.24413 2.79091 6.02119 2.39281C6.80231 1.99814 7.6383 1.7231 8.50117 1.57691C9.43146 1.42475 10.3718 1.34249 11.3144 1.33082L12.6679 1.3125H166.821L168.19 1.33155C169.124 1.34265 170.056 1.42417 170.978 1.57543C171.85 1.72346 172.694 2.00042 173.484 2.39721C175.041 3.19948 176.308 4.46874 177.107 6.02711C177.498 6.80637 177.768 7.64026 177.91 8.50048C178.065 9.43649 178.152 10.3826 178.17 11.3313C178.175 11.7561 178.175 12.2124 178.175 12.6665C178.187 13.229 178.187 13.7644 178.187 14.3042V45.6972C178.187 46.2421 178.187 46.7739 178.175 47.31C178.175 47.7978 178.175 48.2446 178.169 48.7045C178.151 49.6363 178.066 50.5655 177.912 51.4848C177.773 52.3564 177.499 53.2013 177.102 53.9898C176.707 54.7584 176.193 55.4599 175.579 56.0683C174.966 56.689 174.258 57.2069 173.48 57.6021C172.692 58.0011 171.849 58.2791 170.978 58.4268C170.051 58.5782 169.114 58.66 168.174 58.6714C167.735 58.6816 167.275 58.6875 166.828 58.6875L165.202 58.6905L12.6672 58.6875Z" fill="black"/>
<path d="M37.1534 30.4511C37.1695 29.1991 37.502 27.9715 38.1201 26.8826C38.7381 25.7937 39.6216 24.8788 40.6882 24.223C40.0106 23.2553 39.1167 22.4589 38.0774 21.897C37.0382 21.3352 35.8823 21.0234 34.7015 20.9865C32.1826 20.7221 29.7407 22.4937 28.4571 22.4937C27.1487 22.4937 25.1725 21.0127 23.0444 21.0565C21.6679 21.101 20.3263 21.5013 19.1505 22.2184C17.9747 22.9355 17.0047 23.9449 16.335 25.1483C13.434 30.171 15.5979 37.5525 18.3768 41.6125C19.7671 43.6005 21.3921 45.8212 23.5182 45.7424C25.5988 45.6561 26.3759 44.4157 28.8873 44.4157C31.3755 44.4157 32.1045 45.7424 34.2738 45.6923C36.5064 45.6561 37.913 43.6955 39.2546 41.6886C40.2536 40.2721 41.0223 38.7065 41.5322 37.0499C40.2352 36.5013 39.1283 35.583 38.3496 34.4096C37.5709 33.2361 37.1549 31.8594 37.1534 30.4511Z" fill="#F5F5F5"/>
<path d="M33.0559 18.3164C34.2732 16.8551 34.8729 14.9768 34.7276 13.0804C32.8679 13.2758 31.15 14.1646 29.9163 15.5699C29.3131 16.2564 28.8511 17.055 28.5567 17.9202C28.2623 18.7853 28.1414 19.7 28.2007 20.6119C29.1309 20.6215 30.0512 20.4199 30.8922 20.0223C31.7332 19.6246 32.473 19.0414 33.0559 18.3164Z" fill="#F5F5F5"/>
<path d="M63.4535 40.7095H56.3534L54.6483 45.7442H51.641L58.3661 27.1172H61.4906L68.2157 45.7442H65.1571L63.4535 40.7095ZM57.0887 38.3863H62.7167L59.9423 30.2154H59.8647L57.0887 38.3863Z" fill="#F5F5F5"/>
<path d="M82.74 38.9547C82.74 43.1749 80.4812 45.8863 77.0726 45.8863C76.2091 45.9315 75.3503 45.7326 74.5946 45.3124C73.8389 44.8922 73.2169 44.2676 72.7996 43.5103H72.7351V50.2369H69.9475V32.1636H72.6458V34.4224H72.6971C73.1335 33.6687 73.7661 33.0474 74.5275 32.6247C75.289 32.2019 76.1508 31.9935 77.0213 32.0215C80.468 32.0216 82.74 34.7462 82.74 38.9547ZM79.8748 38.9547C79.8748 36.2052 78.4539 34.3975 76.2859 34.3975C74.156 34.3975 72.7234 36.2432 72.7234 38.9547C72.7234 41.691 74.156 43.5235 76.2859 43.5235C78.4539 43.5235 79.8748 41.7291 79.8748 38.9547Z" fill="#F5F5F5"/>
<path d="M97.6873 38.9547C97.6873 43.1749 95.4285 45.8863 92.0198 45.8863C91.1563 45.9315 90.2976 45.7326 89.5419 45.3123C88.7862 44.8921 88.1641 44.2676 87.7469 43.5103H87.6824V50.2369H84.8948V32.1636H87.593V34.4224H87.6443C88.0807 33.6687 88.7133 33.0474 89.4748 32.6247C90.2362 32.2019 91.098 31.9935 91.9685 32.0215C95.4153 32.0215 97.6873 34.7461 97.6873 38.9547ZM94.8221 38.9547C94.8221 36.2052 93.4012 34.3975 91.2332 34.3975C89.1033 34.3975 87.6707 36.2432 87.6707 38.9547C87.6707 41.691 89.1033 43.5235 91.2332 43.5235C93.4012 43.5235 94.8221 41.7291 94.8221 38.9547Z" fill="#F5F5F5"/>
<path d="M107.566 40.5542C107.773 42.4013 109.567 43.6142 112.019 43.6142C114.369 43.6142 116.059 42.4013 116.059 40.7357C116.059 39.2899 115.04 38.4242 112.626 37.8309L110.212 37.2494C106.791 36.4232 105.203 34.8236 105.203 32.2279C105.203 29.014 108.004 26.8065 111.981 26.8065C115.917 26.8065 118.616 29.014 118.706 32.2279H115.892C115.724 30.369 114.187 29.247 111.942 29.247C109.696 29.247 108.159 30.3822 108.159 32.0346C108.159 33.3515 109.141 34.1264 111.542 34.7196L113.594 35.2235C117.416 36.1273 119.004 37.6625 119.004 40.387C119.004 43.8719 116.228 46.0545 111.813 46.0545C107.682 46.0545 104.893 43.9232 104.713 40.554L107.566 40.5542Z" fill="#F5F5F5"/>
<path d="M125.019 28.9498V32.1637H127.602V34.3712H125.019V41.858C125.019 43.0211 125.536 43.5631 126.672 43.5631C126.978 43.5578 127.284 43.5362 127.589 43.4986V45.6929C127.078 45.7883 126.56 45.8315 126.04 45.8219C123.291 45.8219 122.219 44.7891 122.219 42.1553V34.3712H120.244V32.1637H122.219V28.9498H125.019Z" fill="#F5F5F5"/>
<path d="M129.098 38.9547C129.098 34.6818 131.614 31.9967 135.538 31.9967C139.476 31.9967 141.981 34.6817 141.981 38.9547C141.981 43.2394 139.489 45.9127 135.538 45.9127C131.589 45.9127 129.098 43.2394 129.098 38.9547ZM139.14 38.9547C139.14 36.0236 137.797 34.2936 135.538 34.2936C133.28 34.2936 131.938 36.0367 131.938 38.9547C131.938 41.8976 133.28 43.6144 135.538 43.6144C137.797 43.6144 139.14 41.8976 139.14 38.9547Z" fill="#F5F5F5"/>
<path d="M144.279 32.1636H146.938V34.4751H147.002C147.182 33.7532 147.605 33.1152 148.2 32.6684C148.795 32.2216 149.526 31.9931 150.269 32.0215C150.59 32.0204 150.911 32.0553 151.224 32.1255V34.733C150.819 34.609 150.395 34.5521 149.972 34.5645C149.567 34.5481 149.163 34.6195 148.788 34.7738C148.413 34.9281 148.076 35.1617 147.8 35.4586C147.524 35.7554 147.316 36.1085 147.189 36.4935C147.063 36.8785 147.021 37.2863 147.067 37.689V45.7442H144.279L144.279 32.1636Z" fill="#F5F5F5"/>
<path d="M164.077 41.7555C163.702 44.2208 161.301 45.9127 158.229 45.9127C154.278 45.9127 151.826 43.2657 151.826 39.0192C151.826 34.7594 154.291 31.9967 158.112 31.9967C161.869 31.9967 164.232 34.5778 164.232 38.6954V39.6505H154.64V39.819C154.596 40.3188 154.658 40.8223 154.824 41.296C154.989 41.7698 155.253 42.203 155.599 42.5668C155.944 42.9306 156.363 43.2167 156.828 43.4062C157.292 43.5957 157.792 43.6841 158.293 43.6656C158.952 43.7274 159.613 43.5748 160.178 43.2306C160.743 42.8865 161.182 42.3691 161.43 41.7555L164.077 41.7555ZM154.653 37.7023H161.443C161.468 37.2529 161.4 36.8032 161.243 36.3813C161.086 35.9595 160.843 35.5747 160.53 35.2511C160.218 34.9274 159.841 34.6719 159.425 34.5006C159.009 34.3293 158.562 34.2458 158.112 34.2555C157.658 34.2528 157.208 34.34 156.788 34.5121C156.368 34.6842 155.986 34.9378 155.664 35.2583C155.343 35.5787 155.088 35.9597 154.914 36.3792C154.741 36.7986 154.652 37.2483 154.653 37.7023Z" fill="#F5F5F5"/>
<path d="M56.7393 13.0965C57.3237 13.0545 57.9101 13.1428 58.4563 13.355C59.0025 13.5671 59.4947 13.8978 59.8976 14.3233C60.3005 14.7487 60.6039 15.2583 60.786 15.8152C60.9681 16.3721 61.0244 16.9624 60.9507 17.5437C60.9507 20.4031 59.4053 22.0467 56.7393 22.0467H53.5063V13.0965H56.7393ZM54.8965 20.781H56.584C57.0016 20.8059 57.4195 20.7375 57.8073 20.5805C58.1951 20.4236 58.5431 20.1822 58.8258 19.8738C59.1085 19.5655 59.319 19.198 59.4418 18.798C59.5645 18.3981 59.5966 17.9758 59.5356 17.562C59.5922 17.1497 59.5569 16.7301 59.4322 16.3331C59.3075 15.9361 59.0966 15.5716 58.8145 15.2657C58.5324 14.9598 58.1861 14.7201 57.8005 14.5637C57.4149 14.4073 56.9994 14.3382 56.584 14.3613H54.8965V20.781Z" fill="#F5F5F5"/>
<path d="M62.5209 18.6666C62.4785 18.2227 62.5292 17.7748 62.67 17.3517C62.8108 16.9286 63.0384 16.5396 63.3383 16.2096C63.6382 15.8797 64.0038 15.616 64.4116 15.4356C64.8193 15.2552 65.2603 15.162 65.7062 15.162C66.1521 15.162 66.5931 15.2552 67.0009 15.4356C67.4087 15.616 67.7742 15.8797 68.0741 16.2096C68.3741 16.5396 68.6017 16.9286 68.7425 17.3517C68.8832 17.7748 68.934 18.2227 68.8915 18.6666C68.9348 19.1109 68.8846 19.5594 68.7442 19.9831C68.6039 20.4069 68.3764 20.7967 68.0764 21.1273C67.7764 21.4579 67.4105 21.7221 67.0023 21.9029C66.5942 22.0837 66.1527 22.1771 65.7062 22.1771C65.2598 22.1771 64.8183 22.0837 64.4101 21.9029C64.0019 21.7221 63.6361 21.4579 63.3361 21.1273C63.0361 20.7967 62.8086 20.4069 62.6682 19.9831C62.5278 19.5594 62.4777 19.1109 62.5209 18.6666ZM67.5204 18.6666C67.5204 17.2024 66.8627 16.3463 65.7084 16.3463C64.5497 16.3463 63.8979 17.2025 63.8979 18.6666C63.8979 20.1424 64.5498 20.992 65.7084 20.992C66.8627 20.992 67.5204 20.1365 67.5204 18.6666Z" fill="#F5F5F5"/>
<path d="M77.3599 22.0466H75.9771L74.5811 17.072H74.4756L73.0855 22.0466H71.7158L69.854 15.2922H71.2061L72.416 20.4462H72.5156L73.9043 15.2922H75.1831L76.5718 20.4462H76.6773L77.8813 15.2922H79.2143L77.3599 22.0466Z" fill="#F5F5F5"/>
<path d="M80.7803 15.2923H82.0635V16.3653H82.1631C82.3321 15.9799 82.6171 15.6569 82.9784 15.4411C83.3397 15.2254 83.7593 15.1278 84.1787 15.1619C84.5074 15.1372 84.8374 15.1868 85.1443 15.3069C85.4512 15.4271 85.7271 15.6147 85.9516 15.856C86.1761 16.0972 86.3435 16.3859 86.4413 16.7007C86.5391 17.0154 86.5648 17.3481 86.5166 17.6741V22.0466H85.1836V18.0089C85.1836 16.9234 84.7119 16.3836 83.7261 16.3836C83.5029 16.3732 83.2802 16.4112 83.0731 16.4949C82.866 16.5787 82.6795 16.7062 82.5263 16.8688C82.3731 17.0314 82.2569 17.2252 82.1856 17.4368C82.1143 17.6485 82.0896 17.8732 82.1133 18.0953V22.0467H80.7803L80.7803 15.2923Z" fill="#F5F5F5"/>
<path d="M88.6406 12.6555H89.9736V22.0466H88.6406V12.6555Z" fill="#F5F5F5"/>
<path d="M91.8267 18.6666C91.7842 18.2227 91.8351 17.7748 91.9758 17.3517C92.1166 16.9285 92.3443 16.5395 92.6443 16.2095C92.9442 15.8795 93.3098 15.6159 93.7176 15.4355C94.1254 15.2551 94.5664 15.1619 95.0124 15.1619C95.4583 15.1619 95.8993 15.2551 96.3071 15.4355C96.7149 15.6159 97.0805 15.8795 97.3804 16.2095C97.6804 16.5395 97.908 16.9285 98.0488 17.3517C98.1896 17.7748 98.2404 18.2227 98.198 18.6666C98.2412 19.1109 98.191 19.5594 98.0506 19.9832C97.9101 20.407 97.6826 20.7967 97.3826 21.1273C97.0826 21.4579 96.7167 21.7221 96.3085 21.9029C95.9003 22.0837 95.4588 22.1771 95.0124 22.1771C94.5659 22.1771 94.1244 22.0837 93.7162 21.9029C93.308 21.7221 92.9421 21.4579 92.6421 21.1273C92.3421 20.7967 92.1145 20.407 91.9741 19.9832C91.8337 19.5594 91.7835 19.1109 91.8267 18.6666ZM96.8262 18.6666C96.8262 17.2025 96.1685 16.3463 95.0142 16.3463C93.8555 16.3463 93.2037 17.2025 93.2037 18.6666C93.2037 20.1424 93.8555 20.992 95.0142 20.992C96.1685 20.992 96.8262 20.1365 96.8262 18.6666Z" fill="#F5F5F5"/>
<path d="M99.6013 20.1365C99.6013 18.9206 100.507 18.2197 102.114 18.1201L103.943 18.0146V17.4316C103.943 16.7183 103.471 16.3154 102.56 16.3154C101.816 16.3154 101.301 16.5886 101.153 17.0662H99.8621C99.9983 15.906 101.09 15.1619 102.622 15.1619C104.315 15.1619 105.27 16.0049 105.27 17.4316V22.0466H103.987V21.0974H103.882C103.668 21.4379 103.367 21.7155 103.01 21.9018C102.654 22.0881 102.255 22.1765 101.853 22.1579C101.569 22.1874 101.283 22.1572 101.012 22.0691C100.74 21.9811 100.491 21.8372 100.279 21.6467C100.066 21.4563 99.8966 21.2235 99.7799 20.9633C99.6633 20.7032 99.6024 20.4215 99.6013 20.1365ZM103.943 19.5593V18.9946L102.294 19.1001C101.364 19.1623 100.942 19.4787 100.942 20.0742C100.942 20.6821 101.469 21.0359 102.194 21.0359C102.407 21.0574 102.621 21.0359 102.825 20.9728C103.029 20.9096 103.218 20.8061 103.382 20.6684C103.545 20.5306 103.679 20.3614 103.775 20.1709C103.872 19.9804 103.929 19.7724 103.943 19.5593Z" fill="#F5F5F5"/>
<path d="M107.022 18.6665C107.022 16.5323 108.119 15.1802 109.826 15.1802C110.248 15.1607 110.667 15.2619 111.034 15.4717C111.401 15.6815 111.7 15.9914 111.897 16.3652H111.997V12.6555H113.33V22.0466H112.053V20.9795H111.947C111.735 21.3507 111.425 21.6568 111.051 21.8645C110.677 22.0722 110.253 22.1737 109.826 22.1579C108.108 22.158 107.022 20.8059 107.022 18.6665ZM108.399 18.6665C108.399 20.0991 109.075 20.9612 110.204 20.9612C111.327 20.9612 112.022 20.0867 112.022 18.6724C112.022 17.2647 111.32 16.3777 110.204 16.3777C109.082 16.3777 108.399 17.2456 108.399 18.6665Z" fill="#F5F5F5"/>
<path d="M118.845 18.6666C118.802 18.2227 118.853 17.7748 118.994 17.3517C119.135 16.9286 119.362 16.5396 119.662 16.2096C119.962 15.8797 120.328 15.616 120.736 15.4356C121.143 15.2552 121.584 15.162 122.03 15.162C122.476 15.162 122.917 15.2552 123.325 15.4356C123.733 15.616 124.098 15.8797 124.398 16.2096C124.698 16.5396 124.926 16.9286 125.066 17.3517C125.207 17.7748 125.258 18.2227 125.216 18.6666C125.259 19.1109 125.209 19.5594 125.068 19.9831C124.928 20.4069 124.7 20.7967 124.4 21.1273C124.1 21.4579 123.735 21.7221 123.326 21.9029C122.918 22.0837 122.477 22.1771 122.03 22.1771C121.584 22.1771 121.142 22.0837 120.734 21.9029C120.326 21.7221 119.96 21.4579 119.66 21.1273C119.36 20.7967 119.133 20.4069 118.992 19.9831C118.852 19.5594 118.802 19.1109 118.845 18.6666ZM123.844 18.6666C123.844 17.2024 123.187 16.3463 122.032 16.3463C120.874 16.3463 120.222 17.2025 120.222 18.6666C120.222 20.1424 120.874 20.992 122.032 20.992C123.187 20.992 123.844 20.1365 123.844 18.6666Z" fill="#F5F5F5"/>
<path d="M127.004 15.2923H128.287V16.3653H128.387C128.556 15.9799 128.841 15.6569 129.202 15.4411C129.564 15.2254 129.983 15.1278 130.403 15.1619C130.731 15.1372 131.061 15.1868 131.368 15.3069C131.675 15.4271 131.951 15.6147 132.175 15.856C132.4 16.0972 132.567 16.3859 132.665 16.7007C132.763 17.0154 132.789 17.3481 132.74 17.6741V22.0466H131.407V18.0089C131.407 16.9234 130.936 16.3836 129.95 16.3836C129.727 16.3732 129.504 16.4112 129.297 16.4949C129.09 16.5787 128.903 16.7062 128.75 16.8688C128.597 17.0314 128.481 17.2252 128.409 17.4368C128.338 17.6485 128.314 17.8732 128.337 18.0953V22.0467H127.004V15.2923Z" fill="#F5F5F5"/>
<path d="M140.273 13.6106V15.323H141.736V16.4458H140.273V19.919C140.273 20.6265 140.564 20.9363 141.228 20.9363C141.398 20.9357 141.567 20.9255 141.736 20.9055V22.0159C141.497 22.0587 141.254 22.0815 141.011 22.084C139.529 22.084 138.938 21.5625 138.938 20.2602V16.4457H137.866V15.3229H138.938V13.6106H140.273Z" fill="#F5F5F5"/>
<path d="M143.557 12.6555H144.878V16.3777H144.984C145.161 15.9887 145.454 15.6638 145.822 15.4473C146.191 15.2308 146.617 15.1332 147.043 15.1677C147.37 15.1499 147.697 15.2045 148 15.3276C148.304 15.4507 148.576 15.6392 148.798 15.8797C149.021 16.1202 149.187 16.4068 149.286 16.719C149.384 17.0312 149.413 17.3613 149.369 17.6858V22.0466H148.035V18.0146C148.035 16.9358 147.532 16.3894 146.591 16.3894C146.362 16.3706 146.131 16.4021 145.915 16.4817C145.7 16.5613 145.504 16.687 145.342 16.8501C145.18 17.0132 145.056 17.2097 144.978 17.426C144.9 17.6422 144.87 17.8728 144.89 18.1018V22.0466H143.557L143.557 12.6555Z" fill="#F5F5F5"/>
<path d="M157.142 20.2229C156.961 20.8402 156.568 21.3742 156.033 21.7314C155.498 22.0886 154.855 22.2463 154.215 22.177C153.77 22.1887 153.328 22.1035 152.919 21.9272C152.51 21.7509 152.145 21.4878 151.848 21.1561C151.551 20.8244 151.33 20.432 151.2 20.0063C151.07 19.5806 151.034 19.1316 151.095 18.6907C151.036 18.2483 151.072 17.7984 151.202 17.3714C151.332 16.9444 151.552 16.5503 151.847 16.2157C152.142 15.8811 152.506 15.6138 152.914 15.432C153.321 15.2502 153.763 15.1581 154.209 15.1619C156.089 15.1619 157.222 16.4459 157.222 18.5669V19.032H152.453V19.1067C152.432 19.3546 152.463 19.6041 152.544 19.8392C152.626 20.0743 152.755 20.2899 152.924 20.4721C153.094 20.6542 153.299 20.799 153.528 20.8971C153.756 20.9952 154.003 21.0445 154.252 21.0417C154.571 21.08 154.894 21.0226 155.18 20.8767C155.466 20.7309 155.702 20.5033 155.859 20.2228L157.142 20.2229ZM152.453 18.0461H155.864C155.881 17.8194 155.85 17.5917 155.774 17.3777C155.698 17.1636 155.577 16.9679 155.421 16.8031C155.264 16.6383 155.075 16.5081 154.865 16.4208C154.655 16.3336 154.429 16.2912 154.202 16.2964C153.971 16.2935 153.743 16.3368 153.529 16.4237C153.315 16.5106 153.121 16.6394 152.958 16.8025C152.795 16.9655 152.667 17.1596 152.58 17.3732C152.493 17.5868 152.45 17.8156 152.453 18.0461Z" fill="#F5F5F5"/>
</g>
<defs>
<clipPath id="clip0_1304_2792">
<rect width="179.496" height="60" fill="white"/>
</clipPath>
</defs>
</svg>
