<svg width="341" height="73" viewBox="0 0 341 73" fill="none" xmlns="http://www.w3.org/2000/svg">
<rect x="0.834229" y="0.239014" width="339.405" height="72.6" rx="36.3" fill="#23283E"/>
<path d="M0.834213 36.539C0.834221 16.4911 17.0863 0.239014 37.1342 0.239014L216.819 0.239014L216.819 72.839H37.1342C17.0863 72.839 0.834204 56.587 0.834213 36.539V36.539Z" fill="#2B30DB"/>
<path d="M0.834213 36.539C0.834221 16.4911 17.0863 0.239014 37.1342 0.239014L143.312 0.239014L143.312 72.839H37.1342C17.0863 72.839 0.834204 56.587 0.834213 36.539V36.539Z" fill="#2B30DB"/>
<path d="M0.834213 36.539C0.834221 16.4911 17.0863 0.239014 37.1342 0.239014L56.1917 0.239014L56.1917 72.839H37.1342C17.0863 72.839 0.834204 56.587 0.834213 36.539V36.539Z" fill="#2B30DB"/>
<path d="M262.332 43.8173C261.239 43.8173 260.299 43.614 259.512 43.2074C258.724 42.7882 258.114 42.2292 257.682 41.5304C257.25 40.8189 257.034 40.0248 257.034 39.1482C257.034 38.7543 257.085 38.3732 257.187 38.0047C257.288 37.6363 257.422 37.2869 257.587 36.9566C257.752 36.6263 257.911 36.334 258.063 36.0799C258.228 35.8131 258.374 35.6035 258.502 35.451L261.989 30.6676C262.04 30.6041 262.116 30.5279 262.218 30.4389C262.319 30.3373 262.459 30.2865 262.637 30.2865H264.409C264.524 30.2865 264.619 30.3309 264.695 30.4199C264.771 30.4961 264.81 30.5914 264.81 30.7057C264.81 30.7565 264.797 30.8074 264.771 30.8582C264.759 30.8963 264.74 30.9281 264.714 30.9535L262.046 34.6506C262.161 34.6125 262.294 34.5871 262.446 34.5744C262.599 34.5617 262.739 34.5553 262.866 34.5553C263.501 34.568 264.104 34.6951 264.676 34.9365C265.248 35.1652 265.75 35.4828 266.182 35.8894C266.614 36.2959 266.95 36.7724 267.192 37.3187C267.446 37.865 267.573 38.4621 267.573 39.1101C267.573 39.9486 267.363 40.73 266.944 41.4542C266.525 42.1656 265.921 42.7374 265.134 43.1693C264.359 43.6013 263.425 43.8173 262.332 43.8173ZM262.313 41.6257C262.77 41.6257 263.19 41.5304 263.571 41.3398C263.965 41.1492 264.282 40.8697 264.524 40.5013C264.765 40.1328 264.886 39.6755 264.886 39.1291C264.886 38.5955 264.765 38.1445 264.524 37.7761C264.282 37.4076 263.965 37.1281 263.571 36.9375C263.19 36.747 262.77 36.6517 262.313 36.6517C261.856 36.6517 261.43 36.747 261.036 36.9375C260.655 37.1281 260.344 37.4076 260.102 37.7761C259.861 38.1445 259.74 38.5955 259.74 39.1291C259.74 39.6755 259.861 40.1328 260.102 40.5013C260.344 40.8697 260.655 41.1492 261.036 41.3398C261.43 41.5304 261.856 41.6257 262.313 41.6257ZM274.223 43.8363C273.13 43.8363 272.209 43.6585 271.46 43.3027C270.71 42.9343 270.138 42.4578 269.745 41.8734C269.363 41.289 269.16 40.6664 269.135 40.0058C269.122 39.8914 269.154 39.8025 269.23 39.739C269.319 39.6627 269.421 39.6246 269.535 39.6246H271.307C271.447 39.6246 271.561 39.6564 271.65 39.7199C271.752 39.7707 271.828 39.866 271.879 40.0058C272.006 40.3869 272.184 40.6982 272.413 40.9396C272.654 41.181 272.927 41.3589 273.232 41.4732C273.55 41.5876 273.88 41.6447 274.223 41.6447C274.68 41.6447 275.093 41.5558 275.462 41.3779C275.843 41.1873 276.148 40.9078 276.377 40.5394C276.605 40.1709 276.72 39.7199 276.72 39.1863C276.72 38.7162 276.612 38.3097 276.396 37.9666C276.18 37.6236 275.881 37.3568 275.5 37.1662C275.132 36.9629 274.706 36.8613 274.223 36.8613C273.867 36.8613 273.575 36.9058 273.346 36.9947C273.118 37.0836 272.921 37.1853 272.756 37.2996C272.603 37.414 272.463 37.5156 272.336 37.6045C272.222 37.6935 272.089 37.7379 271.936 37.7379H270.183C270.069 37.7379 269.967 37.6998 269.878 37.6236C269.802 37.5347 269.764 37.433 269.764 37.3187L270.431 30.801C270.443 30.6358 270.501 30.5088 270.602 30.4199C270.704 30.3309 270.825 30.2865 270.964 30.2865H278.13C278.257 30.2865 278.365 30.3309 278.454 30.4199C278.543 30.5088 278.587 30.6168 278.587 30.7438L278.587 32.0207C278.587 32.1477 278.543 32.2557 278.454 32.3447C278.365 32.4336 278.257 32.4781 278.13 32.4781H272.622L272.317 35.5844C272.546 35.432 272.851 35.2859 273.232 35.1461C273.613 35.0064 274.141 34.9365 274.814 34.9365C275.424 34.9365 276.002 35.0381 276.548 35.2414C277.107 35.432 277.603 35.7178 278.035 36.099C278.467 36.4674 278.803 36.9185 279.045 37.4521C279.299 37.973 279.426 38.5701 279.426 39.2435C279.426 40.1709 279.21 40.9777 278.778 41.6638C278.346 42.3499 277.742 42.8835 276.967 43.2646C276.192 43.6458 275.278 43.8363 274.223 43.8363ZM286.651 43.8173C285.749 43.8173 284.98 43.6839 284.345 43.4171C283.71 43.1503 283.189 42.7818 282.782 42.3117C282.376 41.8417 282.071 41.3017 281.867 40.6919C281.664 40.0693 281.543 39.4086 281.505 38.7099C281.493 38.3668 281.48 37.992 281.467 37.5855C281.467 37.1662 281.467 36.747 281.467 36.3277C281.48 35.9084 281.493 35.5209 281.505 35.1652C281.531 34.4664 281.651 33.8121 281.867 33.2023C282.083 32.5797 282.395 32.0397 282.801 31.5824C283.22 31.125 283.748 30.7629 284.383 30.4961C285.018 30.2293 285.774 30.0959 286.651 30.0959C287.54 30.0959 288.302 30.2293 288.938 30.4961C289.573 30.7629 290.094 31.125 290.5 31.5824C290.92 32.0397 291.231 32.5797 291.434 33.2023C291.65 33.8121 291.771 34.4664 291.796 35.1652C291.822 35.5209 291.834 35.9084 291.834 36.3277C291.834 36.747 291.834 37.1662 291.834 37.5855C291.834 37.992 291.822 38.3668 291.796 38.7099C291.771 39.4086 291.657 40.0693 291.453 40.6919C291.25 41.3017 290.945 41.8417 290.539 42.3117C290.132 42.7818 289.605 43.1503 288.957 43.4171C288.322 43.6839 287.553 43.8173 286.651 43.8173ZM286.651 41.6257C287.477 41.6257 288.08 41.3589 288.461 40.8253C288.855 40.2789 289.058 39.5421 289.071 38.6146C289.097 38.2461 289.109 37.8777 289.109 37.5093C289.109 37.1281 289.109 36.747 289.109 36.3658C289.109 35.9847 289.097 35.6226 289.071 35.2795C289.058 34.3775 288.855 33.6533 288.461 33.107C288.08 32.5479 287.477 32.2684 286.651 32.2684C285.838 32.2684 285.234 32.5479 284.84 33.107C284.459 33.6533 284.256 34.3775 284.231 35.2795C284.231 35.6226 284.224 35.9847 284.211 36.3658C284.211 36.747 284.211 37.1281 284.211 37.5093C284.224 37.8777 284.231 38.2461 284.231 38.6146C284.256 39.5421 284.466 40.2789 284.859 40.8253C285.253 41.3589 285.85 41.6257 286.651 41.6257ZM298.642 45.5325C298.515 45.5325 298.407 45.488 298.318 45.3991C298.229 45.3101 298.185 45.2021 298.185 45.0751L298.185 43.7411C297.245 43.6521 296.451 43.4298 295.803 43.074C295.155 42.7056 294.666 42.2673 294.335 41.7591C294.005 41.2382 293.827 40.6982 293.802 40.1392C293.802 40.0248 293.84 39.9296 293.916 39.8533C294.005 39.7771 294.107 39.739 294.221 39.739H295.917C296.07 39.739 296.19 39.7771 296.279 39.8533C296.368 39.9168 296.438 39.9994 296.489 40.1011C296.578 40.3425 296.724 40.5839 296.927 40.8253C297.143 41.0539 297.442 41.2445 297.823 41.397C298.204 41.5494 298.68 41.6257 299.252 41.6257C300.167 41.6257 300.847 41.4732 301.291 41.1683C301.736 40.8634 301.958 40.4505 301.958 39.9296C301.958 39.5611 301.838 39.2689 301.596 39.0529C301.368 38.8242 300.999 38.6209 300.491 38.4431C299.983 38.2525 299.316 38.0556 298.49 37.8523C297.55 37.6236 296.756 37.3504 296.108 37.0328C295.46 36.7025 294.971 36.2896 294.64 35.7941C294.323 35.2986 294.164 34.6697 294.164 33.9074C294.164 32.9291 294.52 32.0969 295.231 31.4108C295.942 30.7248 296.927 30.3055 298.185 30.1531L298.185 28.8381C298.185 28.711 298.229 28.603 298.318 28.5141C298.407 28.4252 298.515 28.3807 298.642 28.3807H299.805C299.932 28.3807 300.04 28.4252 300.129 28.5141C300.218 28.603 300.262 28.711 300.262 28.8381L300.262 30.1912C301.126 30.3182 301.85 30.5723 302.435 30.9535C303.019 31.3346 303.464 31.7729 303.769 32.2684C304.074 32.7512 304.233 33.2213 304.245 33.6787C304.245 33.7803 304.207 33.8756 304.131 33.9646C304.067 34.0408 303.972 34.0789 303.845 34.0789H302.073C301.958 34.0789 301.85 34.0535 301.749 34.0027C301.647 33.9519 301.564 33.8566 301.501 33.7168C301.437 33.323 301.196 32.9863 300.777 32.7068C300.357 32.4272 299.811 32.2875 299.138 32.2875C298.452 32.2875 297.899 32.4145 297.48 32.6686C297.073 32.9227 296.87 33.3166 296.87 33.8502C296.87 34.2059 296.972 34.5045 297.175 34.7459C297.378 34.9746 297.708 35.1779 298.166 35.3558C298.636 35.5336 299.258 35.7242 300.034 35.9275C301.113 36.1689 301.99 36.4484 302.663 36.766C303.35 37.0836 303.851 37.4902 304.169 37.9857C304.499 38.4685 304.664 39.0847 304.664 39.8343C304.664 40.5712 304.48 41.2191 304.112 41.7781C303.756 42.3244 303.248 42.7691 302.587 43.1122C301.927 43.4425 301.152 43.6585 300.262 43.7601L300.262 45.0751C300.262 45.2021 300.218 45.3101 300.129 45.3991C300.04 45.488 299.932 45.5325 299.805 45.5325H298.642Z" fill="white"/>
<path d="M39.9492 42.2349C38.9473 42.2349 38.1142 42.0498 37.4499 41.6795C36.7965 41.3092 36.301 40.792 35.9634 40.1277C35.6259 39.4634 35.4407 38.6902 35.4081 37.8081C35.3972 37.3616 35.3917 36.8824 35.3917 36.3706C35.3917 35.8588 35.3972 35.3687 35.4081 34.9005C35.4407 34.0184 35.6259 33.2452 35.9634 32.5809C36.301 31.9166 36.7965 31.3993 37.4499 31.0291C38.1142 30.6588 38.9473 30.4737 39.9492 30.4737C40.7006 30.4737 41.3594 30.5771 41.9257 30.784C42.492 30.991 42.9603 31.2687 43.3305 31.6171C43.7117 31.9656 44.0003 32.3577 44.1963 32.7933C44.3923 33.218 44.5012 33.659 44.523 34.1164C44.5339 34.2144 44.5012 34.2961 44.425 34.3614C44.3596 34.4268 44.278 34.4594 44.18 34.4594H43.2815C43.1835 34.4594 43.0964 34.4322 43.0202 34.3777C42.9548 34.3233 42.9058 34.2253 42.8731 34.0837C42.688 33.2343 42.3395 32.6517 41.8277 32.3359C41.3268 32.0201 40.6952 31.8622 39.9329 31.8622C39.0617 31.8622 38.3701 32.1126 37.8583 32.6136C37.3465 33.1036 37.0688 33.8931 37.0252 34.9821C36.9925 35.8751 36.9925 36.7899 37.0252 37.7264C37.0688 38.8154 37.3465 39.6104 37.8583 40.1113C38.3701 40.6014 39.0616 40.8464 39.9328 40.8464C40.6951 40.8464 41.3268 40.6885 41.8277 40.3727C42.3395 40.0569 42.688 39.4743 42.8731 38.6248C42.9058 38.4833 42.9548 38.3853 43.0202 38.3308C43.0964 38.2764 43.1835 38.2491 43.2815 38.2491H44.1799C44.278 38.2491 44.3596 38.2818 44.425 38.3472C44.5012 38.4125 44.5339 38.4942 44.523 38.5922C44.5012 39.0496 44.3923 39.496 44.1963 39.9316C44.0003 40.3564 43.7117 40.743 43.3305 41.0914C42.9603 41.4399 42.492 41.7176 41.9257 41.9245C41.3594 42.1314 40.7006 42.2349 39.9492 42.2349ZM49.8158 42.2349C48.9881 42.2349 48.2966 42.077 47.7412 41.7612C47.1858 41.4454 46.7611 41.0098 46.4671 40.4544C46.1731 39.8881 46.0097 39.2456 45.9771 38.5268C45.9662 38.3417 45.9607 38.1076 45.9607 37.8244C45.9607 37.5304 45.9662 37.2963 45.9771 37.122C46.0097 36.3924 46.1731 35.7499 46.4671 35.1945C46.772 34.6391 47.2022 34.2035 47.7576 33.8877C48.313 33.5719 48.999 33.414 49.8158 33.414C50.6325 33.414 51.3186 33.5719 51.874 33.8877C52.4294 34.2035 52.8541 34.6391 53.1481 35.1945C53.453 35.7499 53.6218 36.3924 53.6545 37.122C53.6654 37.2963 53.6708 37.5304 53.6708 37.8244C53.6708 38.1076 53.6654 38.3417 53.6545 38.5268C53.6218 39.2456 53.4585 39.8881 53.1645 40.4544C52.8704 41.0098 52.4457 41.4454 51.8903 41.7612C51.3349 42.077 50.6434 42.2349 49.8158 42.2349ZM49.8158 40.9771C50.491 40.9771 51.03 40.7647 51.4329 40.34C51.8359 39.9044 52.0537 39.2728 52.0863 38.4452C52.0972 38.2818 52.1027 38.0749 52.1027 37.8244C52.1027 37.574 52.0972 37.3671 52.0863 37.2037C52.0537 36.3761 51.8359 35.7499 51.4329 35.3252C51.03 34.8896 50.491 34.6718 49.8158 34.6718C49.1406 34.6718 48.5961 34.8896 48.1823 35.3252C47.7793 35.7499 47.567 36.3761 47.5452 37.2037C47.5343 37.3671 47.5289 37.574 47.5289 37.8244C47.5289 38.0749 47.5343 38.2818 47.5452 38.4452C47.567 39.2728 47.7793 39.9044 48.1823 40.34C48.5961 40.7647 49.1406 40.9771 49.8158 40.9771ZM56.6823 42.0715C56.5734 42.0715 56.4809 42.0389 56.4047 41.9735C56.3393 41.8973 56.3066 41.8047 56.3066 41.6958L56.3066 34.8841H54.9182C54.8093 34.8841 54.7167 34.8515 54.6405 34.7861C54.5751 34.7099 54.5425 34.6173 54.5425 34.5084L54.5425 33.953C54.5425 33.8441 54.5751 33.757 54.6405 33.6917C54.7167 33.6154 54.8093 33.5773 54.9182 33.5773H56.3066L56.3066 32.7606C56.3066 32.2052 56.3992 31.7206 56.5843 31.3068C56.7695 30.8821 57.0635 30.5554 57.4664 30.3267C57.8803 30.098 58.4302 29.9836 59.1163 29.9836H60.0964C60.2053 29.9836 60.2924 30.0217 60.3577 30.098C60.4231 30.1633 60.4557 30.2504 60.4557 30.3593L60.4557 30.9147C60.4557 31.0236 60.4231 31.1162 60.3577 31.1924C60.2924 31.2578 60.2053 31.2904 60.0964 31.2904H59.1489C58.6371 31.2904 58.2886 31.4266 58.1035 31.6988C57.9184 31.9602 57.8258 32.3413 57.8258 32.8423L57.8258 33.5773H61.3215L61.3215 32.7606C61.3215 32.2052 61.4086 31.7206 61.5829 31.3068C61.768 30.8821 62.062 30.5554 62.4649 30.3267C62.8788 30.098 63.4287 29.9836 64.1148 29.9836H65.0949C65.2038 29.9836 65.2909 30.0217 65.3562 30.098C65.4325 30.1633 65.4706 30.2504 65.4706 30.3593L65.4706 30.9147C65.4706 31.0236 65.4325 31.1162 65.3562 31.1924C65.2909 31.2578 65.2038 31.2904 65.0949 31.2904H64.1474C63.6356 31.2904 63.2871 31.4266 63.102 31.6988C62.9169 31.9602 62.8243 32.3413 62.8243 32.8423L62.8243 33.5773H64.9315C65.0404 33.5773 65.1275 33.6154 65.1929 33.6917C65.2691 33.757 65.3072 33.8441 65.3072 33.953L65.3072 34.5084C65.3072 34.6173 65.2691 34.7099 65.1929 34.7861C65.1275 34.8515 65.0404 34.8841 64.9315 34.8841H62.8243L62.8243 41.6958C62.8243 41.8047 62.7916 41.8973 62.7263 41.9735C62.661 42.0389 62.5684 42.0715 62.4486 42.0715H61.6972C61.5883 42.0715 61.4957 42.0389 61.4195 41.9735C61.3542 41.8973 61.3215 41.8047 61.3215 41.6958L61.3215 34.8841H57.8258L57.8258 41.6958C57.8258 41.8047 57.7877 41.8973 57.7115 41.9735C57.6461 42.0389 57.559 42.0715 57.4501 42.0715H56.6823ZM69.8098 42.2349C68.6881 42.2349 67.7952 41.8918 67.1309 41.2058C66.4666 40.5088 66.1018 39.5614 66.0364 38.3635C66.0255 38.2219 66.0201 38.0422 66.0201 37.8244C66.0201 37.5957 66.0255 37.4106 66.0364 37.269C66.08 36.4959 66.2597 35.8207 66.5755 35.2435C66.8913 34.6554 67.3215 34.2035 67.866 33.8877C68.4213 33.5719 69.0693 33.414 69.8098 33.414C70.6375 33.414 71.329 33.5882 71.8844 33.9367C72.4506 34.2852 72.8808 34.7807 73.1748 35.4232C73.4689 36.0657 73.6159 36.8171 73.6159 37.6774L73.6159 37.9551C73.6159 38.0749 73.5778 38.1675 73.5015 38.2328C73.4362 38.2981 73.3491 38.3308 73.2402 38.3308H67.5883C67.5883 38.3417 67.5883 38.3635 67.5883 38.3962C67.5883 38.4288 67.5883 38.4561 67.5883 38.4778C67.61 38.9243 67.7081 39.3436 67.8823 39.7356C68.0565 40.1168 68.307 40.4271 68.6337 40.6667C68.9604 40.9063 69.3524 41.0261 69.8098 41.0261C70.2019 41.0261 70.5286 40.9662 70.7899 40.8464C71.0513 40.7266 71.2636 40.5959 71.427 40.4544C71.5903 40.3019 71.6992 40.1876 71.7537 40.1113C71.8517 39.9698 71.9279 39.8881 71.9824 39.8663C72.0368 39.8336 72.1239 39.8173 72.2437 39.8173H73.0278C73.1367 39.8173 73.2238 39.85 73.2892 39.9153C73.3654 39.9698 73.3981 40.0514 73.3872 40.1603C73.3763 40.3237 73.2892 40.5252 73.1258 40.7647C72.9625 40.9934 72.7283 41.2221 72.4234 41.4508C72.1185 41.6795 71.7482 41.8701 71.3126 42.0225C70.877 42.1641 70.3761 42.2349 69.8098 42.2349ZM67.5883 37.2037H72.0641L72.0641 37.1547C72.0641 36.6646 71.9715 36.229 71.7864 35.8479C71.6121 35.4667 71.3562 35.1673 71.0186 34.9495C70.681 34.7208 70.2781 34.6064 69.8098 34.6064C69.3416 34.6064 68.9386 34.7208 68.601 34.9495C68.2743 35.1673 68.0239 35.4667 67.8496 35.8479C67.6754 36.229 67.5883 36.6646 67.5883 37.1547L67.5883 37.2037ZM78.7871 42.2349C77.6654 42.2349 76.7724 41.8918 76.1081 41.2058C75.4438 40.5088 75.079 39.5614 75.0137 38.3635C75.0028 38.2219 74.9973 38.0422 74.9973 37.8244C74.9973 37.5957 75.0028 37.4106 75.0137 37.269C75.0572 36.4959 75.2369 35.8207 75.5527 35.2435C75.8685 34.6554 76.2987 34.2035 76.8432 33.8877C77.3986 33.5719 78.0465 33.414 78.7871 33.414C79.6147 33.414 80.3062 33.5882 80.8616 33.9367C81.4279 34.2852 81.858 34.7807 82.1521 35.4232C82.4461 36.0657 82.5931 36.8171 82.5931 37.6774L82.5931 37.9551C82.5931 38.0749 82.555 38.1675 82.4788 38.2328C82.4134 38.2981 82.3263 38.3308 82.2174 38.3308H76.5655C76.5655 38.3417 76.5655 38.3635 76.5655 38.3962C76.5655 38.4288 76.5655 38.4561 76.5655 38.4778C76.5873 38.9243 76.6853 39.3436 76.8595 39.7356C77.0338 40.1168 77.2842 40.4271 77.6109 40.6667C77.9376 40.9063 78.3297 41.0261 78.7871 41.0261C79.1791 41.0261 79.5058 40.9662 79.7672 40.8464C80.0285 40.7266 80.2409 40.5959 80.4042 40.4544C80.5676 40.3019 80.6765 40.1876 80.7309 40.1113C80.8289 39.9698 80.9052 39.8881 80.9596 39.8663C81.0141 39.8336 81.1012 39.8173 81.221 39.8173H82.005C82.114 39.8173 82.2011 39.85 82.2664 39.9153C82.3426 39.9698 82.3753 40.0514 82.3644 40.1603C82.3535 40.3237 82.2664 40.5252 82.1031 40.7647C81.9397 40.9934 81.7056 41.2221 81.4007 41.4508C81.0957 41.6795 80.7255 41.8701 80.2899 42.0225C79.8543 42.1641 79.3533 42.2349 78.7871 42.2349ZM76.5655 37.2037H81.0413L81.0413 37.1547C81.0413 36.6646 80.9487 36.229 80.7636 35.8479C80.5894 35.4667 80.3334 35.1673 79.9958 34.9495C79.6583 34.7208 79.2553 34.6064 78.7871 34.6064C78.3188 34.6064 77.9159 34.7208 77.5783 34.9495C77.2516 35.1673 77.0011 35.4667 76.8269 35.8479C76.6526 36.229 76.5655 36.6646 76.5655 37.1547L76.5655 37.2037ZM91.7029 42.2349C90.9515 42.2349 90.2927 42.0988 89.7264 41.8265C89.1601 41.5543 88.7191 41.1786 88.4033 40.6994C88.0875 40.2093 87.9295 39.6485 87.9295 39.0169C87.9295 38.5159 88.033 38.0803 88.2399 37.7101C88.4577 37.3289 88.7409 36.9913 89.0893 36.6973C89.4378 36.4033 89.819 36.1365 90.2328 35.8969C89.721 35.3524 89.3561 34.8732 89.1383 34.4594C88.9314 34.0456 88.828 33.6154 88.828 33.169C88.828 32.6789 88.9532 32.2324 89.2037 31.8295C89.4542 31.4266 89.8081 31.0999 90.2655 30.8494C90.7228 30.5989 91.2619 30.4737 91.8826 30.4737C92.4816 30.4737 93.0043 30.5935 93.4508 30.8331C93.9082 31.0726 94.2621 31.3939 94.5126 31.7968C94.763 32.1997 94.8883 32.6517 94.8883 33.1526C94.8883 33.6318 94.7739 34.051 94.5452 34.4104C94.3165 34.7698 94.0116 35.091 93.6305 35.3742C93.2602 35.6573 92.8518 35.9241 92.4053 36.1746L95.1823 38.9025C95.3565 38.5976 95.5199 38.2437 95.6723 37.8408C95.8357 37.4378 95.9609 36.9641 96.048 36.4196C96.0807 36.2018 96.2005 36.0929 96.4074 36.0929H97.1262C97.2242 36.0929 97.3058 36.1256 97.3712 36.1909C97.4365 36.2563 97.4692 36.3379 97.4692 36.436C97.4583 36.6755 97.4202 36.9315 97.3548 37.2037C97.3004 37.476 97.2133 37.7645 97.0935 38.0695C96.9846 38.3744 96.8485 38.6793 96.6851 38.9842C96.5327 39.2782 96.353 39.5723 96.1461 39.8663L97.8122 41.5161C97.9102 41.6033 97.9592 41.6849 97.9592 41.7612C97.9592 41.8592 97.932 41.9354 97.8776 41.9899C97.8231 42.0443 97.7414 42.0715 97.6325 42.0715H96.7178C96.6089 42.0715 96.5163 42.0552 96.4401 42.0225C96.3747 41.9899 96.3203 41.9517 96.2767 41.9082L95.1986 40.8464C94.7739 41.2602 94.273 41.5978 93.6958 41.8592C93.1186 42.1096 92.4543 42.2349 91.7029 42.2349ZM91.7029 40.9281C92.1385 40.9281 92.5741 40.841 93.0097 40.6667C93.4453 40.4816 93.8483 40.2093 94.2185 39.85L91.1639 36.8607C90.6956 37.122 90.2872 37.4215 89.9388 37.7591C89.6012 38.0858 89.4324 38.4942 89.4324 38.9842C89.4324 39.398 89.5358 39.752 89.7427 40.046C89.9605 40.3291 90.2437 40.5469 90.5922 40.6994C90.9406 40.8519 91.3109 40.9281 91.7029 40.9281ZM91.5069 35.2272C91.8554 35.0311 92.1767 34.8351 92.4707 34.6391C92.7756 34.4431 93.0152 34.2253 93.1894 33.9857C93.3746 33.7461 93.4671 33.4739 93.4671 33.169C93.4671 32.7334 93.3147 32.3849 93.0097 32.1235C92.7048 31.8622 92.3291 31.7315 91.8826 31.7315C91.4579 31.7315 91.0822 31.8622 90.7555 32.1235C90.4397 32.374 90.2818 32.7279 90.2818 33.1853C90.2818 33.3704 90.3145 33.561 90.3798 33.757C90.456 33.9421 90.5813 34.1491 90.7555 34.3777C90.9297 34.6064 91.1802 34.8896 91.5069 35.2272ZM106.183 42.2349C105.573 42.2349 105.051 42.1587 104.615 42.0062C104.179 41.8537 103.825 41.6686 103.553 41.4508C103.281 41.233 103.074 41.0152 102.932 40.7974C102.802 40.5796 102.731 40.4054 102.72 40.2747C102.709 40.1549 102.747 40.0623 102.834 39.997C102.922 39.9316 103.009 39.899 103.096 39.899H103.815C103.88 39.899 103.929 39.9099 103.962 39.9316C104.005 39.9425 104.06 39.9861 104.125 40.0623C104.267 40.2148 104.424 40.3672 104.599 40.5197C104.773 40.6722 104.985 40.7974 105.236 40.8954C105.497 40.9934 105.818 41.0424 106.199 41.0424C106.755 41.0424 107.212 40.939 107.572 40.7321C107.931 40.5143 108.111 40.1985 108.111 39.7846C108.111 39.5124 108.034 39.2946 107.882 39.1312C107.74 38.9679 107.479 38.8209 107.098 38.6902C106.728 38.5595 106.216 38.4234 105.562 38.2818C104.909 38.1294 104.392 37.9442 104.011 37.7264C103.629 37.4977 103.357 37.2309 103.194 36.926C103.03 36.6102 102.949 36.2563 102.949 35.8642C102.949 35.4613 103.069 35.0747 103.308 34.7044C103.548 34.3233 103.896 34.0129 104.354 33.7734C104.822 33.5338 105.405 33.414 106.101 33.414C106.668 33.414 107.152 33.4848 107.555 33.6263C107.958 33.7679 108.29 33.9476 108.552 34.1654C108.813 34.3723 109.009 34.5792 109.14 34.7861C109.27 34.993 109.341 35.1673 109.352 35.3088C109.363 35.4177 109.33 35.5103 109.254 35.5865C109.178 35.6519 109.091 35.6845 108.993 35.6845H108.307C108.23 35.6845 108.165 35.6682 108.111 35.6355C108.067 35.6029 108.024 35.5648 107.98 35.5212C107.871 35.3796 107.74 35.2381 107.588 35.0965C107.446 34.9549 107.256 34.8406 107.016 34.7535C106.788 34.6554 106.483 34.6064 106.101 34.6064C105.557 34.6064 105.149 34.7208 104.876 34.9495C104.604 35.1782 104.468 35.4667 104.468 35.8152C104.468 36.0221 104.528 36.2073 104.648 36.3706C104.767 36.534 104.996 36.681 105.334 36.8117C105.671 36.9423 106.172 37.0839 106.837 37.2364C107.555 37.3779 108.122 37.5685 108.535 37.8081C108.949 38.0477 109.243 38.3254 109.417 38.6412C109.592 38.957 109.679 39.3218 109.679 39.7356C109.679 40.193 109.543 40.6123 109.27 40.9934C109.009 41.3746 108.617 41.6795 108.094 41.9082C107.583 42.126 106.945 42.2349 106.183 42.2349ZM113.437 42.0715C113.296 42.0715 113.187 42.0389 113.111 41.9735C113.034 41.8973 112.969 41.7938 112.915 41.6632L110.595 34.0837C110.573 34.0293 110.562 33.9748 110.562 33.9204C110.562 33.8224 110.595 33.7407 110.66 33.6753C110.737 33.61 110.818 33.5773 110.905 33.5773H111.624C111.744 33.5773 111.837 33.61 111.902 33.6753C111.967 33.7407 112.011 33.8006 112.033 33.855L113.846 40.0133L115.79 33.9204C115.811 33.8441 115.855 33.7679 115.92 33.6917C115.997 33.6154 116.105 33.5773 116.247 33.5773H116.802C116.944 33.5773 117.053 33.6154 117.129 33.6917C117.205 33.7679 117.249 33.8441 117.26 33.9204L119.204 40.0133L121.017 33.855C121.028 33.8006 121.066 33.7407 121.131 33.6753C121.197 33.61 121.289 33.5773 121.409 33.5773H122.128C122.226 33.5773 122.307 33.61 122.373 33.6753C122.438 33.7407 122.471 33.8224 122.471 33.9204C122.471 33.9748 122.46 34.0293 122.438 34.0837L120.118 41.6632C120.086 41.7938 120.026 41.8973 119.939 41.9735C119.863 42.0389 119.748 42.0715 119.596 42.0715H118.959C118.817 42.0715 118.697 42.0389 118.599 41.9735C118.512 41.8973 118.452 41.7938 118.42 41.6632L116.525 35.8152L114.63 41.6632C114.586 41.7938 114.521 41.8973 114.434 41.9735C114.347 42.0389 114.227 42.0715 114.074 42.0715H113.437ZM127.275 42.2349C126.153 42.2349 125.26 41.8918 124.596 41.2058C123.931 40.5088 123.567 39.5614 123.501 38.3635C123.49 38.2219 123.485 38.0422 123.485 37.8244C123.485 37.5957 123.49 37.4106 123.501 37.269C123.545 36.4959 123.724 35.8207 124.04 35.2435C124.356 34.6554 124.786 34.2035 125.331 33.8877C125.886 33.5719 126.534 33.414 127.275 33.414C128.102 33.414 128.794 33.5882 129.349 33.9367C129.915 34.2852 130.346 34.7807 130.64 35.4232C130.934 36.0657 131.081 36.8171 131.081 37.6774L131.081 37.9551C131.081 38.0749 131.043 38.1675 130.966 38.2328C130.901 38.2981 130.814 38.3308 130.705 38.3308H125.053C125.053 38.3417 125.053 38.3635 125.053 38.3962C125.053 38.4288 125.053 38.4561 125.053 38.4778C125.075 38.9243 125.173 39.3436 125.347 39.7356C125.521 40.1168 125.772 40.4271 126.098 40.6667C126.425 40.9063 126.817 41.0261 127.275 41.0261C127.667 41.0261 127.993 40.9662 128.255 40.8464C128.516 40.7266 128.728 40.5959 128.892 40.4544C129.055 40.3019 129.164 40.1876 129.218 40.1113C129.316 39.9698 129.393 39.8881 129.447 39.8663C129.502 39.8336 129.589 39.8173 129.708 39.8173H130.493C130.601 39.8173 130.689 39.85 130.754 39.9153C130.83 39.9698 130.863 40.0514 130.852 40.1603C130.841 40.3237 130.754 40.5252 130.591 40.7647C130.427 40.9934 130.193 41.2221 129.888 41.4508C129.583 41.6795 129.213 41.8701 128.777 42.0225C128.342 42.1641 127.841 42.2349 127.275 42.2349ZM125.053 37.2037H129.529L129.529 37.1547C129.529 36.6646 129.436 36.229 129.251 35.8479C129.077 35.4667 128.821 35.1673 128.483 34.9495C128.146 34.7208 127.743 34.6064 127.275 34.6064C126.806 34.6064 126.403 34.7208 126.066 34.9495C125.739 35.1673 125.489 35.4667 125.314 35.8479C125.14 36.229 125.053 36.6646 125.053 37.1547L125.053 37.2037ZM136.252 42.2349C135.13 42.2349 134.237 41.8918 133.573 41.2058C132.909 40.5088 132.544 39.5614 132.478 38.3635C132.468 38.2219 132.462 38.0422 132.462 37.8244C132.462 37.5957 132.468 37.4106 132.478 37.269C132.522 36.4959 132.702 35.8207 133.017 35.2435C133.333 34.6554 133.763 34.2035 134.308 33.8877C134.863 33.5719 135.511 33.414 136.252 33.414C137.079 33.414 137.771 33.5882 138.326 33.9367C138.893 34.2852 139.323 34.7807 139.617 35.4232C139.911 36.0657 140.058 36.8171 140.058 37.6774L140.058 37.9551C140.058 38.0749 140.02 38.1675 139.944 38.2328C139.878 38.2981 139.791 38.3308 139.682 38.3308H134.03C134.03 38.3417 134.03 38.3635 134.03 38.3962C134.03 38.4288 134.03 38.4561 134.03 38.4778C134.052 38.9243 134.15 39.3436 134.324 39.7356C134.499 40.1168 134.749 40.4271 135.076 40.6667C135.402 40.9063 135.794 41.0261 136.252 41.0261C136.644 41.0261 136.971 40.9662 137.232 40.8464C137.493 40.7266 137.706 40.5959 137.869 40.4544C138.032 40.3019 138.141 40.1876 138.196 40.1113C138.294 39.9698 138.37 39.8881 138.424 39.8663C138.479 39.8336 138.566 39.8173 138.686 39.8173H139.47C139.579 39.8173 139.666 39.85 139.731 39.9153C139.807 39.9698 139.84 40.0514 139.829 40.1603C139.818 40.3237 139.731 40.5252 139.568 40.7647C139.404 40.9934 139.17 41.2221 138.865 41.4508C138.56 41.6795 138.19 41.8701 137.755 42.0225C137.319 42.1641 136.818 42.2349 136.252 42.2349ZM134.03 37.2037H138.506L138.506 37.1547C138.506 36.6646 138.413 36.229 138.228 35.8479C138.054 35.4667 137.798 35.1673 137.461 34.9495C137.123 34.7208 136.72 34.6064 136.252 34.6064C135.784 34.6064 135.381 34.7208 135.043 34.9495C134.716 35.1673 134.466 35.4667 134.292 35.8479C134.117 36.229 134.03 36.6646 134.03 37.1547L134.03 37.2037ZM145.116 42.0715C144.506 42.0715 144.011 41.9572 143.629 41.7285C143.248 41.4889 142.971 41.1568 142.796 40.7321C142.622 40.2965 142.535 39.7846 142.535 39.1966L142.535 34.8841H141.261C141.152 34.8841 141.059 34.8515 140.983 34.7861C140.918 34.7099 140.885 34.6173 140.885 34.5084L140.885 33.953C140.885 33.8441 140.918 33.757 140.983 33.6917C141.059 33.6154 141.152 33.5773 141.261 33.5773H142.535L142.535 30.8494C142.535 30.7405 142.568 30.6534 142.633 30.588C142.709 30.5118 142.802 30.4737 142.911 30.4737H143.678C143.787 30.4737 143.874 30.5118 143.94 30.588C144.016 30.6534 144.054 30.7405 144.054 30.8494L144.054 33.5773H146.08C146.189 33.5773 146.276 33.6154 146.341 33.6917C146.417 33.757 146.455 33.8441 146.455 33.953L146.455 34.5084C146.455 34.6173 146.417 34.7099 146.341 34.7861C146.276 34.8515 146.189 34.8841 146.08 34.8841H144.054L144.054 39.0822C144.054 39.5941 144.141 39.997 144.315 40.291C144.49 40.585 144.8 40.7321 145.247 40.7321H146.243C146.352 40.7321 146.439 40.7702 146.504 40.8464C146.581 40.9117 146.619 40.9989 146.619 41.1078L146.619 41.6958C146.619 41.8047 146.581 41.8973 146.504 41.9735C146.439 42.0389 146.352 42.0715 146.243 42.0715H145.116ZM150.958 42.2349C150.348 42.2349 149.825 42.1587 149.389 42.0062C148.954 41.8537 148.6 41.6686 148.328 41.4508C148.055 41.233 147.849 41.0152 147.707 40.7974C147.576 40.5796 147.506 40.4054 147.495 40.2747C147.484 40.1549 147.522 40.0623 147.609 39.997C147.696 39.9316 147.783 39.899 147.87 39.899H148.589C148.654 39.899 148.703 39.9099 148.736 39.9316C148.78 39.9425 148.834 39.9861 148.899 40.0623C149.041 40.2148 149.199 40.3672 149.373 40.5197C149.547 40.6722 149.76 40.7974 150.01 40.8954C150.272 40.9934 150.593 41.0424 150.974 41.0424C151.529 41.0424 151.987 40.939 152.346 40.7321C152.705 40.5143 152.885 40.1985 152.885 39.7846C152.885 39.5124 152.809 39.2946 152.656 39.1312C152.515 38.9679 152.254 38.8209 151.872 38.6902C151.502 38.5595 150.99 38.4234 150.337 38.2818C149.684 38.1294 149.166 37.9442 148.785 37.7264C148.404 37.4977 148.132 37.2309 147.968 36.926C147.805 36.6102 147.723 36.2563 147.723 35.8642C147.723 35.4613 147.843 35.0747 148.083 34.7044C148.322 34.3233 148.671 34.0129 149.128 33.7734C149.596 33.5338 150.179 33.414 150.876 33.414C151.442 33.414 151.927 33.4848 152.33 33.6263C152.733 33.7679 153.065 33.9476 153.326 34.1654C153.588 34.3723 153.784 34.5792 153.914 34.7861C154.045 34.993 154.116 35.1673 154.127 35.3088C154.138 35.4177 154.105 35.5103 154.029 35.5865C153.952 35.6519 153.865 35.6845 153.767 35.6845H153.081C153.005 35.6845 152.94 35.6682 152.885 35.6355C152.842 35.6029 152.798 35.5648 152.754 35.5212C152.646 35.3796 152.515 35.2381 152.362 35.0965C152.221 34.9549 152.03 34.8406 151.791 34.7535C151.562 34.6554 151.257 34.6064 150.876 34.6064C150.331 34.6064 149.923 34.7208 149.651 34.9495C149.379 35.1782 149.242 35.4667 149.242 35.8152C149.242 36.0221 149.302 36.2073 149.422 36.3706C149.542 36.534 149.771 36.681 150.108 36.8117C150.446 36.9423 150.947 37.0839 151.611 37.2364C152.33 37.3779 152.896 37.5685 153.31 37.8081C153.724 38.0477 154.018 38.3254 154.192 38.6412C154.366 38.957 154.453 39.3218 154.453 39.7356C154.453 40.193 154.317 40.6123 154.045 40.9934C153.784 41.3746 153.392 41.6795 152.869 41.9082C152.357 42.126 151.72 42.2349 150.958 42.2349Z" fill="white"/>
</svg>
