<svg width="340" height="73" viewBox="0 0 340 73" fill="none" xmlns="http://www.w3.org/2000/svg">
<rect width="339.405" height="72.6" rx="36.3" fill="#23283E"/>
<path d="M-4.85934e-06 36.3C-2.1756e-06 16.2521 16.2521 0 36.3 0H55.3575L55.3575 72.6H36.3C16.252 72.6 -7.54308e-06 56.3479 -4.85934e-06 36.3V36.3Z" fill="#44862E"/>
<path d="M263.523 43.5783C262.634 43.5783 261.865 43.4703 261.217 43.2543C260.569 43.0383 260.029 42.7588 259.597 42.4158C259.178 42.06 258.86 41.6789 258.644 41.2723C258.428 40.853 258.314 40.4401 258.301 40.0336C258.301 39.9192 258.339 39.8303 258.416 39.7668C258.505 39.6905 258.606 39.6524 258.721 39.6524H260.436C260.563 39.6524 260.671 39.6778 260.76 39.7287C260.849 39.7795 260.925 39.8811 260.988 40.0336C261.103 40.3766 261.287 40.6498 261.541 40.853C261.808 41.0563 262.113 41.2024 262.456 41.2914C262.799 41.3676 263.161 41.4057 263.542 41.4057C264.304 41.4057 264.908 41.2278 265.353 40.8721C265.81 40.5037 266.039 39.9828 266.039 39.3094C266.039 38.636 265.829 38.1532 265.41 37.861C264.991 37.5561 264.406 37.4036 263.657 37.4036H261.694C261.554 37.4036 261.44 37.3655 261.351 37.2893C261.262 37.2004 261.217 37.086 261.217 36.9463L261.217 36.1458C261.217 36.0188 261.243 35.9108 261.293 35.8219C261.357 35.7202 261.42 35.6376 261.484 35.5741L264.895 32.2391H259.445C259.305 32.2391 259.191 32.1946 259.102 32.1057C259.026 32.0167 258.987 31.9087 258.987 31.7817L258.987 30.5239C258.987 30.3841 259.026 30.2698 259.102 30.1808C259.191 30.0919 259.305 30.0474 259.445 30.0474H267.62C267.76 30.0474 267.875 30.0919 267.964 30.1808C268.052 30.2698 268.097 30.3841 268.097 30.5239L268.097 31.6673C268.097 31.7817 268.072 31.8833 268.021 31.9723C267.97 32.0612 267.913 32.1374 267.849 32.2009L264.552 35.5932L264.781 35.6122C265.556 35.6758 266.242 35.8536 266.839 36.1458C267.449 36.4254 267.919 36.8383 268.249 37.3846C268.592 37.9309 268.764 38.617 268.764 39.4428C268.764 40.3067 268.535 41.05 268.078 41.6725C267.633 42.2824 267.017 42.7524 266.229 43.0828C265.442 43.4131 264.54 43.5783 263.523 43.5783ZM272.554 43.3877C272.44 43.3877 272.345 43.3496 272.268 43.2734C272.192 43.1844 272.154 43.0828 272.154 42.9684C272.154 42.9176 272.167 42.8604 272.192 42.7969L276.785 32.3153H270.801C270.661 32.3153 270.547 32.2708 270.458 32.1819C270.382 32.0929 270.343 31.985 270.343 31.8579L270.343 30.5239C270.343 30.3841 270.382 30.2698 270.458 30.1808C270.547 30.0919 270.661 30.0474 270.801 30.0474H279.167C279.307 30.0474 279.415 30.0919 279.491 30.1808C279.58 30.2698 279.624 30.3841 279.624 30.5239L279.624 31.7054C279.624 31.8833 279.605 32.0358 279.567 32.1628C279.542 32.2772 279.504 32.3979 279.453 32.5249L274.898 42.9303C274.86 43.0193 274.79 43.1209 274.689 43.2352C274.6 43.3369 274.466 43.3877 274.288 43.3877H272.554ZM283.836 43.3877C283.721 43.3877 283.626 43.3496 283.55 43.2734C283.474 43.1844 283.435 43.0828 283.435 42.9684C283.435 42.9049 283.442 42.8541 283.454 42.816C283.48 42.7779 283.499 42.7461 283.512 42.7207L286.313 38.852C286.059 38.9155 285.792 38.9409 285.513 38.9282C284.877 38.9155 284.28 38.7948 283.721 38.5661C283.175 38.3248 282.692 38.0071 282.273 37.6133C281.866 37.2067 281.542 36.743 281.301 36.2221C281.072 35.6885 280.958 35.1104 280.958 34.4878C280.958 33.9161 281.066 33.3571 281.282 32.8108C281.498 32.2518 281.816 31.7499 282.235 31.3052C282.667 30.8606 283.2 30.5112 283.836 30.2571C284.484 29.9903 285.24 29.8569 286.103 29.8569C286.955 29.8569 287.704 29.9776 288.352 30.219C289 30.4604 289.54 30.797 289.972 31.229C290.417 31.6483 290.747 32.1311 290.963 32.6774C291.192 33.2237 291.306 33.8018 291.306 34.4116C291.306 34.9579 291.217 35.4661 291.039 35.9362C290.861 36.4063 290.639 36.8383 290.372 37.2321C290.118 37.6133 289.864 37.9881 289.61 38.3565L286.256 43.0065C286.205 43.0701 286.129 43.1527 286.027 43.2543C285.938 43.3432 285.799 43.3877 285.608 43.3877H283.836ZM286.123 36.9081C286.58 36.9081 286.993 36.8129 287.361 36.6223C287.742 36.419 288.041 36.1395 288.257 35.7838C288.486 35.4153 288.6 34.9833 288.6 34.4878C288.6 33.9796 288.486 33.5477 288.257 33.1919C288.041 32.8235 287.742 32.544 287.361 32.3534C286.98 32.1501 286.567 32.0485 286.123 32.0485C285.665 32.0485 285.246 32.1501 284.865 32.3534C284.496 32.544 284.198 32.8235 283.969 33.1919C283.753 33.5477 283.645 33.9796 283.645 34.4878C283.645 34.9833 283.753 35.4153 283.969 35.7838C284.198 36.1395 284.496 36.419 284.865 36.6223C285.246 36.8129 285.665 36.9081 286.123 36.9081ZM297.808 45.2934C297.681 45.2934 297.573 45.249 297.484 45.16C297.395 45.0711 297.351 44.9631 297.351 44.8361L297.351 43.502C296.411 43.4131 295.617 43.1908 294.969 42.835C294.321 42.4666 293.832 42.0283 293.501 41.5201C293.171 40.9992 292.993 40.4592 292.968 39.9002C292.968 39.7858 293.006 39.6905 293.082 39.6143C293.171 39.5381 293.273 39.5 293.387 39.5H295.083C295.236 39.5 295.356 39.5381 295.445 39.6143C295.534 39.6778 295.604 39.7604 295.655 39.8621C295.744 40.1035 295.89 40.3448 296.093 40.5862C296.309 40.8149 296.608 41.0055 296.989 41.158C297.37 41.3104 297.846 41.3867 298.418 41.3867C299.333 41.3867 300.013 41.2342 300.457 40.9293C300.902 40.6244 301.124 40.2114 301.124 39.6905C301.124 39.3221 301.004 39.0299 300.762 38.8139C300.534 38.5852 300.165 38.3819 299.657 38.2041C299.149 38.0135 298.482 37.8166 297.656 37.6133C296.716 37.3846 295.922 37.1114 295.274 36.7938C294.626 36.4635 294.137 36.0506 293.806 35.5551C293.489 35.0596 293.33 34.4307 293.33 33.6684C293.33 32.6901 293.686 31.8579 294.397 31.1718C295.109 30.4858 296.093 30.0665 297.351 29.914L297.351 28.5991C297.351 28.472 297.395 28.364 297.484 28.2751C297.573 28.1862 297.681 28.1417 297.808 28.1417H298.971C299.098 28.1417 299.206 28.1862 299.295 28.2751C299.384 28.364 299.428 28.472 299.428 28.5991L299.428 29.9522C300.292 30.0792 301.016 30.3333 301.601 30.7145C302.185 31.0956 302.63 31.5339 302.935 32.0294C303.24 32.5122 303.399 32.9823 303.411 33.4397C303.411 33.5413 303.373 33.6366 303.297 33.7255C303.233 33.8018 303.138 33.8399 303.011 33.8399H301.239C301.124 33.8399 301.016 33.8145 300.915 33.7637C300.813 33.7128 300.73 33.6175 300.667 33.4778C300.603 33.0839 300.362 32.7473 299.943 32.4677C299.523 32.1882 298.977 32.0485 298.304 32.0485C297.618 32.0485 297.065 32.1755 296.646 32.4296C296.239 32.6837 296.036 33.0776 296.036 33.6112C296.036 33.9669 296.138 34.2655 296.341 34.5069C296.544 34.7356 296.875 34.9389 297.332 35.1167C297.802 35.2946 298.425 35.4852 299.2 35.6885C300.279 35.9299 301.156 36.2094 301.829 36.527C302.516 36.8446 303.017 37.2512 303.335 37.7467C303.665 38.2295 303.83 38.8457 303.83 39.5953C303.83 40.3321 303.646 40.9801 303.278 41.5391C302.922 42.0854 302.414 42.5301 301.753 42.8731C301.093 43.2035 300.318 43.4195 299.428 43.5211L299.428 44.8361C299.428 44.9631 299.384 45.0711 299.295 45.16C299.206 45.249 299.098 45.2934 298.971 45.2934H297.808Z" fill="white"/>
<path d="M35.3745 41.8325C35.2547 41.8325 35.1621 41.7998 35.0968 41.7345C35.0315 41.6583 34.9988 41.5657 34.9988 41.4568L34.9988 30.7901C34.9988 30.6703 35.0315 30.5777 35.0968 30.5124C35.1621 30.4361 35.2547 30.398 35.3745 30.398H36.2076C36.3274 30.398 36.4199 30.4361 36.4853 30.5124C36.5615 30.5777 36.5996 30.6703 36.5996 30.7901L36.5996 35.2985H42.2189L42.2189 30.7901C42.2189 30.6703 42.2515 30.5777 42.3169 30.5124C42.3931 30.4361 42.4857 30.398 42.5946 30.398H43.4276C43.5474 30.398 43.64 30.4361 43.7053 30.5124C43.7816 30.5777 43.8197 30.6703 43.8197 30.7901L43.8197 41.4568C43.8197 41.5657 43.7816 41.6583 43.7053 41.7345C43.64 41.7998 43.5474 41.8325 43.4276 41.8325H42.5946C42.4857 41.8325 42.3931 41.7998 42.3169 41.7345C42.2515 41.6583 42.2189 41.5657 42.2189 41.4568L42.2189 36.7687H36.5996L36.5996 41.4568C36.5996 41.5657 36.5615 41.6583 36.4853 41.7345C36.4199 41.7998 36.3274 41.8325 36.2076 41.8325H35.3745ZM49.6495 41.9959C48.5278 41.9959 47.6348 41.6528 46.9705 40.9668C46.3063 40.2698 45.9414 39.3224 45.8761 38.1245C45.8652 37.9829 45.8598 37.8032 45.8598 37.5854C45.8598 37.3567 45.8652 37.1716 45.8761 37.03C45.9197 36.2568 46.0994 35.5817 46.4152 35.0045C46.731 34.4164 47.1611 33.9645 47.7056 33.6487C48.261 33.3329 48.909 33.175 49.6495 33.175C50.4771 33.175 51.1686 33.3492 51.724 33.6977C52.2903 34.0462 52.7205 34.5417 53.0145 35.1842C53.3085 35.8267 53.4555 36.5781 53.4555 37.4384L53.4555 37.7161C53.4555 37.8359 53.4174 37.9285 53.3412 37.9938C53.2759 38.0591 53.1887 38.0918 53.0798 38.0918H47.4279C47.4279 38.1027 47.4279 38.1245 47.4279 38.1571C47.4279 38.1898 47.4279 38.217 47.4279 38.2388C47.4497 38.6853 47.5477 39.1046 47.722 39.4966C47.8962 39.8778 48.1467 40.1881 48.4734 40.4277C48.8001 40.6673 49.1921 40.7871 49.6495 40.7871C50.0415 40.7871 50.3682 40.7272 50.6296 40.6074C50.891 40.4876 51.1033 40.3569 51.2667 40.2154C51.43 40.0629 51.5389 39.9485 51.5934 39.8723C51.6914 39.7307 51.7676 39.6491 51.822 39.6273C51.8765 39.5946 51.9636 39.5783 52.0834 39.5783H52.8675C52.9764 39.5783 53.0635 39.611 53.1288 39.6763C53.2051 39.7307 53.2377 39.8124 53.2269 39.9213C53.216 40.0847 53.1288 40.2861 52.9655 40.5257C52.8021 40.7544 52.568 40.9831 52.2631 41.2118C51.9582 41.4405 51.5879 41.6311 51.1523 41.7835C50.7167 41.9251 50.2158 41.9959 49.6495 41.9959ZM47.4279 36.9647H51.9037L51.9037 36.9157C51.9037 36.4256 51.8112 35.99 51.626 35.6089C51.4518 35.2277 51.1959 34.9283 50.8583 34.7105C50.5207 34.4818 50.1178 34.3674 49.6495 34.3674C49.1812 34.3674 48.7783 34.4818 48.4407 34.7105C48.114 34.9283 47.8635 35.2277 47.6893 35.6089C47.5151 35.99 47.4279 36.4256 47.4279 36.9157L47.4279 36.9647ZM57.614 41.9959C57.0695 41.9959 56.574 41.887 56.1275 41.6692C55.681 41.4514 55.3216 41.1573 55.0494 40.7871C54.7771 40.4168 54.641 39.9976 54.641 39.5293C54.641 38.7779 54.9459 38.1789 55.5557 37.7324C56.1656 37.2859 56.9606 36.9919 57.9407 36.8503L60.3746 36.5073L60.3746 36.0336C60.3746 35.5109 60.2221 35.1025 59.9172 34.8085C59.6232 34.5144 59.1386 34.3674 58.4634 34.3674C57.9733 34.3674 57.5758 34.4654 57.2709 34.6615C56.9769 34.8575 56.77 35.1079 56.6502 35.4129C56.5848 35.5762 56.4705 35.6579 56.3072 35.6579H55.5721C55.4523 35.6579 55.3597 35.6252 55.2944 35.5599C55.2399 35.4836 55.2127 35.3965 55.2127 35.2985C55.2127 35.1352 55.2726 34.9337 55.3924 34.6941C55.5231 34.4545 55.7191 34.2204 55.9805 33.9917C56.2418 33.763 56.574 33.5725 56.9769 33.42C57.3907 33.2566 57.8916 33.175 58.4797 33.175C59.1331 33.175 59.6831 33.2621 60.1295 33.4363C60.576 33.5997 60.9245 33.8229 61.175 34.1061C61.4363 34.3892 61.6215 34.7105 61.7304 35.0698C61.8502 35.4292 61.9101 35.794 61.9101 36.1643L61.9101 41.4568C61.9101 41.5657 61.8719 41.6583 61.7957 41.7345C61.7304 41.7998 61.6433 41.8325 61.5344 41.8325H60.7829C60.6632 41.8325 60.5706 41.7998 60.5052 41.7345C60.4399 41.6583 60.4072 41.5657 60.4072 41.4568L60.4072 40.7544C60.2657 40.9504 60.0751 41.1464 59.8355 41.3425C59.5959 41.5276 59.2965 41.6855 58.9371 41.8162C58.5777 41.936 58.1367 41.9959 57.614 41.9959ZM57.957 40.7707C58.4035 40.7707 58.8119 40.6782 59.1821 40.493C59.5524 40.297 59.841 39.9976 60.0479 39.5946C60.2657 39.1917 60.3746 38.6853 60.3746 38.0755L60.3746 37.6181L58.4797 37.8958C57.7065 38.0047 57.1239 38.1898 56.7319 38.4512C56.3398 38.7016 56.1438 39.0229 56.1438 39.4149C56.1438 39.7199 56.2309 39.9758 56.4052 40.1827C56.5903 40.3787 56.819 40.5257 57.0912 40.6237C57.3744 40.7217 57.663 40.7707 57.957 40.7707ZM64.487 41.8325C64.3781 41.8325 64.2856 41.7998 64.2093 41.7345C64.144 41.6583 64.1113 41.5657 64.1113 41.4568L64.1113 30.6104C64.1113 30.5015 64.144 30.4144 64.2093 30.349C64.2856 30.2728 64.3781 30.2347 64.487 30.2347H65.2548C65.3746 30.2347 65.4671 30.2728 65.5325 30.349C65.5978 30.4144 65.6305 30.5015 65.6305 30.6104L65.6305 41.4568C65.6305 41.5657 65.5978 41.6583 65.5325 41.7345C65.4671 41.7998 65.3746 41.8325 65.2548 41.8325H64.487ZM71.2197 41.8325C70.6099 41.8325 70.1144 41.7182 69.7332 41.4895C69.3521 41.2499 69.0744 40.9178 68.9002 40.493C68.7259 40.0574 68.6388 39.5456 68.6388 38.9576L68.6388 34.6451H67.3647C67.2558 34.6451 67.1632 34.6124 67.087 34.5471C67.0216 34.4709 66.989 34.3783 66.989 34.2694L66.989 33.714C66.989 33.6051 67.0216 33.518 67.087 33.4527C67.1632 33.3764 67.2558 33.3383 67.3647 33.3383H68.6388L68.6388 30.6104C68.6388 30.5015 68.6715 30.4144 68.7368 30.349C68.813 30.2728 68.9056 30.2347 69.0145 30.2347H69.7823C69.8912 30.2347 69.9783 30.2728 70.0436 30.349C70.1198 30.4144 70.158 30.5015 70.158 30.6104L70.158 33.3383H72.1835C72.2924 33.3383 72.3795 33.3764 72.4449 33.4527C72.5211 33.518 72.5592 33.6051 72.5592 33.714L72.5592 34.2694C72.5592 34.3783 72.5211 34.4709 72.4449 34.5471C72.3795 34.6124 72.2924 34.6451 72.1835 34.6451H70.158L70.158 38.8432C70.158 39.355 70.2451 39.758 70.4193 40.052C70.5936 40.346 70.9039 40.493 71.3504 40.493H72.3468C72.4557 40.493 72.5429 40.5312 72.6082 40.6074C72.6844 40.6727 72.7226 40.7599 72.7226 40.8688L72.7226 41.4568C72.7226 41.5657 72.6844 41.6583 72.6082 41.7345C72.5429 41.7998 72.4557 41.8325 72.3468 41.8325H71.2197ZM74.5133 41.8325C74.4044 41.8325 74.3118 41.7998 74.2356 41.7345C74.1702 41.6583 74.1376 41.5657 74.1376 41.4568L74.1376 30.6104C74.1376 30.5015 74.1702 30.4144 74.2356 30.349C74.3118 30.2728 74.4044 30.2347 74.5133 30.2347H75.33C75.4498 30.2347 75.5424 30.2728 75.6077 30.349C75.6731 30.4144 75.7057 30.5015 75.7057 30.6104L75.7057 34.4164C75.9998 34.0462 76.3591 33.7467 76.7838 33.518C77.2086 33.2893 77.7476 33.175 78.401 33.175C79.1089 33.175 79.7078 33.3329 80.1979 33.6487C80.6988 33.9536 81.0745 34.3838 81.325 34.9391C81.5863 35.4836 81.717 36.1207 81.717 36.8503L81.717 41.4568C81.717 41.5657 81.6843 41.6583 81.619 41.7345C81.5537 41.7998 81.4611 41.8325 81.3413 41.8325H80.5246C80.4157 41.8325 80.3231 41.7998 80.2469 41.7345C80.1815 41.6583 80.1489 41.5657 80.1489 41.4568L80.1489 36.932C80.1489 36.1697 79.9637 35.5762 79.5935 35.1515C79.2232 34.7159 78.6787 34.4981 77.96 34.4981C77.2848 34.4981 76.7403 34.7159 76.3265 35.1515C75.9126 35.5762 75.7057 36.1697 75.7057 36.932L75.7057 41.4568C75.7057 41.5657 75.6731 41.6583 75.6077 41.7345C75.5424 41.7998 75.4498 41.8325 75.33 41.8325H74.5133Z" fill="white"/>
</svg>
