<svg width="340" height="73" viewBox="0 0 340 73" fill="none" xmlns="http://www.w3.org/2000/svg">
<rect width="339.405" height="72.6" rx="36.3" fill="#B85CA2"/>
<path d="M1.69176e-05 36.3C7.57425e-06 16.2521 16.2521 0 36.3 0L286.77 0L286.77 72.6L36.3 72.6C16.2521 72.6 2.62609e-05 56.3479 1.69176e-05 36.3V36.3Z" fill="#B85CA2"/>
<path d="M1.69176e-05 36.3C7.57425e-06 16.2521 16.2521 0 36.3 0L215.985 0L215.985 72.6H36.3001C16.2521 72.6 2.62609e-05 56.3479 1.69176e-05 36.3V36.3Z" fill="#B85CA2"/>
<path d="M1.69176e-05 36.3C7.57425e-06 16.2521 16.2521 0 36.3 0L142.478 0L142.478 72.6H36.3C16.2521 72.6 2.62609e-05 56.3479 1.69176e-05 36.3V36.3Z" fill="#B85CA2"/>
<path d="M1.69176e-05 36.3C7.57425e-06 16.2521 16.2521 0 36.3 0L55.3575 0L55.3575 72.6H36.3C16.2521 72.6 2.62609e-05 56.3479 1.69176e-05 36.3V36.3Z" fill="#B85CA2"/>
<path d="M250.416 43.3875C250.276 43.3875 250.162 43.343 250.073 43.254C249.996 43.1651 249.958 43.0571 249.958 42.9301L249.958 33.0583L247.061 35.288C246.947 35.3642 246.833 35.396 246.718 35.3833C246.604 35.3579 246.502 35.288 246.414 35.1737L245.613 34.1446C245.537 34.0302 245.505 33.9095 245.518 33.7825C245.543 33.6554 245.613 33.5538 245.727 33.4775L249.996 30.1806C250.073 30.1171 250.149 30.079 250.225 30.0663C250.301 30.0536 250.384 30.0472 250.473 30.0472H252.15C252.277 30.0472 252.385 30.0917 252.474 30.1806C252.563 30.2695 252.607 30.3775 252.607 30.5046L252.607 42.9301C252.607 43.0571 252.563 43.1651 252.474 43.254C252.385 43.343 252.277 43.3875 252.15 43.3875H250.416ZM255.292 44.8168C255.178 44.8168 255.089 44.7786 255.025 44.7024C254.962 44.6262 254.937 44.5309 254.949 44.4166L255.464 41.1768C255.489 41.0116 255.546 40.8719 255.635 40.7575C255.737 40.6305 255.883 40.5669 256.074 40.5669H257.827C257.929 40.5669 258.011 40.6051 258.075 40.6813C258.138 40.7448 258.17 40.8274 258.17 40.929C258.17 41.018 258.151 41.1006 258.113 41.1768L256.893 44.3403C256.842 44.4674 256.766 44.5754 256.664 44.6643C256.575 44.7659 256.442 44.8168 256.264 44.8168H255.292ZM265.291 43.578C264.402 43.578 263.633 43.47 262.985 43.254C262.337 43.0381 261.797 42.7586 261.365 42.4155C260.946 42.0598 260.628 41.6786 260.412 41.2721C260.196 40.8528 260.082 40.4399 260.069 40.0333C260.069 39.919 260.108 39.8301 260.184 39.7665C260.273 39.6903 260.374 39.6522 260.489 39.6522H262.204C262.331 39.6522 262.439 39.6776 262.528 39.7284C262.617 39.7792 262.693 39.8809 262.757 40.0333C262.871 40.3764 263.055 40.6495 263.309 40.8528C263.576 41.0561 263.881 41.2022 264.224 41.2911C264.567 41.3674 264.929 41.4055 265.31 41.4055C266.073 41.4055 266.676 41.2276 267.121 40.8719C267.578 40.5034 267.807 39.9825 267.807 39.3091C267.807 38.6358 267.597 38.153 267.178 37.8608C266.759 37.5559 266.174 37.4034 265.425 37.4034H263.462C263.322 37.4034 263.208 37.3653 263.119 37.289C263.03 37.2001 262.985 37.0858 262.985 36.946L262.985 36.1456C262.985 36.0185 263.011 35.9106 263.061 35.8216C263.125 35.72 263.188 35.6374 263.252 35.5739L266.663 32.2388H261.213C261.073 32.2388 260.959 32.1943 260.87 32.1054C260.794 32.0165 260.755 31.9085 260.755 31.7814L260.755 30.5236C260.755 30.3839 260.794 30.2695 260.87 30.1806C260.959 30.0917 261.073 30.0472 261.213 30.0472H269.389C269.528 30.0472 269.643 30.0917 269.732 30.1806C269.821 30.2695 269.865 30.3839 269.865 30.5236L269.865 31.6671C269.865 31.7814 269.84 31.8831 269.789 31.972C269.738 32.0609 269.681 32.1372 269.617 32.2007L266.32 35.5929L266.549 35.612C267.324 35.6755 268.01 35.8534 268.607 36.1456C269.217 36.4251 269.687 36.838 270.017 37.3843C270.36 37.9307 270.532 38.6167 270.532 39.4425C270.532 40.3065 270.303 41.0497 269.846 41.6723C269.401 42.2821 268.785 42.7522 267.997 43.0825C267.21 43.4129 266.308 43.578 265.291 43.578ZM276.54 43.3875C276.4 43.3875 276.286 43.343 276.197 43.254C276.121 43.1651 276.083 43.0571 276.083 42.9301L276.083 33.0583L273.186 35.288C273.072 35.3642 272.957 35.396 272.843 35.3833C272.729 35.3579 272.627 35.288 272.538 35.1737L271.738 34.1446C271.661 34.0302 271.63 33.9095 271.642 33.7825C271.668 33.6554 271.738 33.5538 271.852 33.4775L276.121 30.1806C276.197 30.1171 276.273 30.079 276.349 30.0663C276.426 30.0536 276.508 30.0472 276.597 30.0472H278.274C278.401 30.0472 278.509 30.0917 278.598 30.1806C278.687 30.2695 278.732 30.3775 278.732 30.5046L278.732 42.9301C278.732 43.0571 278.687 43.1651 278.598 43.254C278.509 43.343 278.401 43.3875 278.274 43.3875H276.54ZM286.105 43.5971C285.012 43.5971 284.091 43.4192 283.341 43.0635C282.592 42.695 282.02 42.2186 281.626 41.6342C281.245 41.0497 281.042 40.4272 281.016 39.7665C281.004 39.6522 281.035 39.5632 281.112 39.4997C281.201 39.4235 281.302 39.3854 281.417 39.3854H283.189C283.329 39.3854 283.443 39.4171 283.532 39.4807C283.634 39.5315 283.71 39.6268 283.761 39.7665C283.888 40.1477 284.066 40.4589 284.294 40.7003C284.536 40.9417 284.809 41.1196 285.114 41.234C285.431 41.3483 285.762 41.4055 286.105 41.4055C286.562 41.4055 286.975 41.3165 287.344 41.1387C287.725 40.9481 288.03 40.6686 288.258 40.3001C288.487 39.9317 288.601 39.4807 288.601 38.9471C288.601 38.477 288.493 38.0704 288.277 37.7274C288.061 37.3843 287.763 37.1175 287.382 36.927C287.013 36.7237 286.588 36.622 286.105 36.622C285.749 36.622 285.457 36.6665 285.228 36.7554C284.999 36.8444 284.803 36.946 284.637 37.0604C284.485 37.1747 284.345 37.2763 284.218 37.3653C284.104 37.4542 283.97 37.4987 283.818 37.4987H282.065C281.95 37.4987 281.849 37.4606 281.76 37.3843C281.683 37.2954 281.645 37.1938 281.645 37.0794L282.312 30.5618C282.325 30.3966 282.382 30.2695 282.484 30.1806C282.586 30.0917 282.706 30.0472 282.846 30.0472H290.012C290.139 30.0472 290.247 30.0917 290.336 30.1806C290.424 30.2695 290.469 30.3775 290.469 30.5046L290.469 31.7814C290.469 31.9085 290.424 32.0165 290.336 32.1054C290.247 32.1943 290.139 32.2388 290.012 32.2388H284.504L284.199 35.3452C284.428 35.1927 284.733 35.0466 285.114 34.9069C285.495 34.7671 286.022 34.6972 286.696 34.6972C287.305 34.6972 287.883 34.7989 288.43 35.0021C288.989 35.1927 289.484 35.4786 289.916 35.8597C290.348 36.2282 290.685 36.6792 290.926 37.2128C291.18 37.7337 291.307 38.3309 291.307 39.0042C291.307 39.9317 291.092 40.7385 290.66 41.4245C290.228 42.1106 289.624 42.6442 288.849 43.0254C288.074 43.4065 287.159 43.5971 286.105 43.5971ZM297.808 45.2932C297.681 45.2932 297.573 45.2487 297.484 45.1598C297.395 45.0709 297.351 44.9629 297.351 44.8358L297.351 43.5018C296.411 43.4129 295.617 43.1905 294.969 42.8348C294.321 42.4663 293.832 42.028 293.501 41.5198C293.171 40.9989 292.993 40.4589 292.968 39.8999C292.968 39.7856 293.006 39.6903 293.082 39.6141C293.171 39.5378 293.273 39.4997 293.387 39.4997H295.083C295.236 39.4997 295.356 39.5378 295.445 39.6141C295.534 39.6776 295.604 39.7602 295.655 39.8618C295.744 40.1032 295.89 40.3446 296.093 40.586C296.309 40.8147 296.608 41.0053 296.989 41.1577C297.37 41.3102 297.846 41.3864 298.418 41.3864C299.333 41.3864 300.013 41.234 300.457 40.929C300.902 40.6241 301.124 40.2112 301.124 39.6903C301.124 39.3219 301.004 39.0296 300.762 38.8137C300.534 38.585 300.165 38.3817 299.657 38.2038C299.149 38.0132 298.482 37.8163 297.656 37.613C296.716 37.3843 295.922 37.1112 295.274 36.7936C294.626 36.4632 294.137 36.0503 293.806 35.5548C293.489 35.0593 293.33 34.4304 293.33 33.6681C293.33 32.6898 293.686 31.8577 294.397 31.1716C295.109 30.4855 296.093 30.0663 297.351 29.9138L297.351 28.5988C297.351 28.4718 297.395 28.3638 297.484 28.2749C297.573 28.1859 297.681 28.1414 297.808 28.1414H298.971C299.098 28.1414 299.206 28.1859 299.295 28.2749C299.384 28.3638 299.428 28.4718 299.428 28.5988L299.428 29.9519C300.292 30.079 301.016 30.3331 301.601 30.7142C302.185 31.0954 302.63 31.5337 302.935 32.0292C303.24 32.512 303.399 32.9821 303.411 33.4394C303.411 33.5411 303.373 33.6364 303.297 33.7253C303.233 33.8015 303.138 33.8396 303.011 33.8396H301.239C301.124 33.8396 301.016 33.8142 300.915 33.7634C300.813 33.7126 300.73 33.6173 300.667 33.4775C300.603 33.0837 300.362 32.747 299.943 32.4675C299.524 32.188 298.977 32.0482 298.304 32.0482C297.618 32.0482 297.065 32.1753 296.646 32.4294C296.239 32.6835 296.036 33.0773 296.036 33.611C296.036 33.9667 296.138 34.2653 296.341 34.5067C296.544 34.7353 296.875 34.9386 297.332 35.1165C297.802 35.2944 298.425 35.4849 299.2 35.6882C300.279 35.9296 301.156 36.2091 301.829 36.5267C302.516 36.8444 303.017 37.2509 303.335 37.7464C303.665 38.2292 303.831 38.8454 303.831 39.595C303.831 40.3319 303.646 40.9799 303.278 41.5389C302.922 42.0852 302.414 42.5299 301.753 42.8729C301.093 43.2032 300.318 43.4192 299.428 43.5209L299.428 44.8358C299.428 44.9629 299.384 45.0709 299.295 45.1598C299.206 45.2487 299.098 45.2932 298.971 45.2932H297.808Z" fill="white"/>
<path d="M35.3742 41.8325C35.2545 41.8325 35.1619 41.7998 35.0966 41.7345C35.0312 41.6583 34.9985 41.5657 34.9985 41.4568L34.9985 30.7901C34.9985 30.6703 35.0312 30.5777 35.0965 30.5124C35.1619 30.4361 35.2545 30.398 35.3742 30.398H42.0389C42.1587 30.398 42.2513 30.4361 42.3166 30.5124C42.382 30.5777 42.4146 30.6703 42.4146 30.7901L42.4146 31.4435C42.4146 31.5632 42.382 31.6558 42.3166 31.7212C42.2513 31.7865 42.1587 31.8192 42.0389 31.8192H36.583L36.583 35.6252H41.7122C41.832 35.6252 41.9246 35.6633 41.9899 35.7396C42.0553 35.8049 42.0879 35.8975 42.0879 36.0173L42.0879 36.6707C42.0879 36.7796 42.0553 36.8721 41.9899 36.9484C41.9246 37.0137 41.832 37.0464 41.7122 37.0464H36.583L36.583 41.4568C36.583 41.5657 36.5449 41.6583 36.4687 41.7345C36.4034 41.7998 36.3108 41.8325 36.191 41.8325H35.3742ZM47.4661 41.9959C46.6385 41.9959 45.947 41.838 45.3916 41.5222C44.8362 41.2063 44.4115 40.7707 44.1174 40.2154C43.8234 39.6491 43.66 39.0066 43.6274 38.2878C43.6165 38.1027 43.611 37.8686 43.611 37.5854C43.611 37.2914 43.6165 37.0573 43.6274 36.883C43.66 36.1534 43.8234 35.5109 44.1174 34.9555C44.4223 34.4001 44.8525 33.9645 45.4079 33.6487C45.9633 33.3329 46.6494 33.175 47.4661 33.175C48.2829 33.175 48.9689 33.3329 49.5243 33.6487C50.0797 33.9645 50.5044 34.4001 50.7984 34.9555C51.1034 35.5109 51.2722 36.1534 51.3048 36.883C51.3157 37.0573 51.3212 37.2914 51.3212 37.5854C51.3212 37.8686 51.3157 38.1027 51.3048 38.2878C51.2722 39.0066 51.1088 39.6491 50.8148 40.2154C50.5208 40.7707 50.096 41.2063 49.5407 41.5222C48.9853 41.838 48.2937 41.9959 47.4661 41.9959ZM47.4661 40.7381C48.1413 40.7381 48.6803 40.5257 49.0833 40.101C49.4862 39.6654 49.704 39.0338 49.7367 38.2061C49.7476 38.0428 49.753 37.8359 49.753 37.5854C49.753 37.3349 49.7476 37.128 49.7367 36.9647C49.704 36.137 49.4862 35.5109 49.0833 35.0862C48.6803 34.6506 48.1413 34.4328 47.4661 34.4328C46.7909 34.4328 46.2464 34.6506 45.8326 35.0862C45.4297 35.5109 45.2173 36.137 45.1955 36.9647C45.1846 37.128 45.1792 37.3349 45.1792 37.5854C45.1792 37.8359 45.1846 38.0428 45.1955 38.2061C45.2173 39.0338 45.4297 39.6654 45.8326 40.101C46.2464 40.5257 46.7909 40.7381 47.4661 40.7381ZM56.6826 41.9959C55.855 41.9959 55.1635 41.838 54.6081 41.5222C54.0527 41.2063 53.628 40.7707 53.3339 40.2154C53.0399 39.6491 52.8766 39.0066 52.8439 38.2878C52.833 38.1027 52.8276 37.8686 52.8276 37.5854C52.8276 37.2914 52.833 37.0573 52.8439 36.883C52.8766 36.1534 53.0399 35.5109 53.3339 34.9555C53.6389 34.4001 54.069 33.9645 54.6244 33.6487C55.1798 33.3329 55.8659 33.175 56.6826 33.175C57.4994 33.175 58.1854 33.3329 58.7408 33.6487C59.2962 33.9645 59.7209 34.4001 60.015 34.9555C60.3199 35.5109 60.4887 36.1534 60.5213 36.883C60.5322 37.0573 60.5377 37.2914 60.5377 37.5854C60.5377 37.8686 60.5322 38.1027 60.5213 38.2878C60.4887 39.0066 60.3253 39.6491 60.0313 40.2154C59.7373 40.7707 59.3126 41.2063 58.7572 41.5222C58.2018 41.838 57.5103 41.9959 56.6826 41.9959ZM56.6826 40.7381C57.3578 40.7381 57.8969 40.5257 58.2998 40.101C58.7027 39.6654 58.9205 39.0338 58.9532 38.2061C58.9641 38.0428 58.9695 37.8359 58.9695 37.5854C58.9695 37.3349 58.9641 37.128 58.9532 36.9647C58.9205 36.137 58.7027 35.5109 58.2998 35.0862C57.8969 34.6506 57.3578 34.4328 56.6826 34.4328C56.0074 34.4328 55.4629 34.6506 55.0491 35.0862C54.6462 35.5109 54.4338 36.137 54.4121 36.9647C54.4012 37.128 54.3957 37.3349 54.3957 37.5854C54.3957 37.8359 54.4012 38.0428 54.4121 38.2061C54.4338 39.0338 54.6462 39.6654 55.0491 40.101C55.4629 40.5257 56.0074 40.7381 56.6826 40.7381ZM65.5234 41.9959C64.9245 41.9959 64.4072 41.8924 63.9716 41.6855C63.536 41.4677 63.1766 41.1791 62.8935 40.8197C62.6212 40.4495 62.4143 40.0302 62.2728 39.562C62.1421 39.0937 62.0659 38.5982 62.0441 38.0755C62.0332 37.9012 62.0277 37.7379 62.0277 37.5854C62.0277 37.433 62.0332 37.2696 62.0441 37.0954C62.0659 36.5835 62.1421 36.0935 62.2728 35.6252C62.4143 35.1569 62.6212 34.7377 62.8935 34.3674C63.1766 33.9972 63.536 33.7086 63.9716 33.5017C64.4072 33.2839 64.9245 33.175 65.5234 33.175C66.1659 33.175 66.6995 33.2893 67.1243 33.518C67.549 33.7467 67.8974 34.0298 68.1697 34.3674L68.1697 30.6104C68.1697 30.5015 68.2024 30.4144 68.2677 30.349C68.3439 30.2728 68.4365 30.2347 68.5454 30.2347H69.3295C69.4384 30.2347 69.5255 30.2728 69.5908 30.349C69.6671 30.4144 69.7052 30.5015 69.7052 30.6104L69.7052 41.4568C69.7052 41.5657 69.6671 41.6583 69.5908 41.7345C69.5255 41.7998 69.4384 41.8325 69.3295 41.8325H68.5944C68.4746 41.8325 68.3821 41.7998 68.3167 41.7345C68.2514 41.6583 68.2187 41.5657 68.2187 41.4568L68.2187 40.7707C67.9465 41.1192 67.5925 41.4133 67.1569 41.6528C66.7213 41.8815 66.1768 41.9959 65.5234 41.9959ZM65.8665 40.6727C66.411 40.6727 66.8466 40.5475 67.1733 40.297C67.5 40.0466 67.745 39.7307 67.9083 39.3496C68.0717 38.9576 68.1588 38.5601 68.1697 38.1571C68.1806 37.9829 68.186 37.776 68.186 37.5364C68.186 37.2859 68.1806 37.0736 68.1697 36.8993C68.1588 36.5182 68.0662 36.1425 67.892 35.7722C67.7287 35.402 67.4782 35.0971 67.1406 34.8575C66.8139 34.6179 66.3892 34.4981 65.8665 34.4981C65.3111 34.4981 64.87 34.6233 64.5433 34.8738C64.2166 35.1134 63.9825 35.4346 63.8409 35.8376C63.6994 36.2296 63.6177 36.6543 63.5959 37.1117C63.585 37.4275 63.585 37.7433 63.5959 38.0591C63.6177 38.5165 63.6994 38.9467 63.8409 39.3496C63.9825 39.7416 64.2166 40.0629 64.5433 40.3134C64.87 40.5529 65.3111 40.6727 65.8665 40.6727Z" fill="white"/>
</svg>
