<svg width="161" height="161" viewBox="0 0 161 161" fill="none" xmlns="http://www.w3.org/2000/svg">
<mask id="mask0_1306_2862" style="mask-type:alpha" maskUnits="userSpaceOnUse" x="0" y="0" width="161" height="161">
<rect x="0.466064" y="0.466064" width="160" height="160" rx="21.9409" fill="#0E0E16"/>
</mask>
<g mask="url(#mask0_1306_2862)">
<rect x="0.466064" y="0.466064" width="160" height="160" rx="21.9409" fill="#3A3C6C"/>
<rect x="63.926" y="119.285" width="20.2532" height="20.2532" rx="10.1266" fill="#7847B6"/>
<rect x="37.5967" y="119.285" width="30.3797" height="20.2532" rx="10.1266" fill="#D5B256"/>
<rect x="21.3943" y="119.285" width="20.2532" height="20.2532" rx="10.1266" fill="#2D6BE6"/>
<path d="M24.6912 32.802V24.5366H21.6938V22.8129H29.7792V24.5366H26.7818V32.802H24.6912ZM33.4966 32.9612C32.7166 32.9612 32.0451 32.8043 31.4821 32.4905C30.9191 32.1721 30.4876 31.7175 30.1876 31.1268C29.8876 30.5314 29.7377 29.8207 29.7377 28.9946V28.9808C29.7377 28.1593 29.89 27.4532 30.1945 26.8625C30.4991 26.2718 30.9306 25.8172 31.489 25.4988C32.0521 25.1758 32.7212 25.0142 33.4966 25.0142C34.2719 25.0142 34.9387 25.1734 35.4972 25.4919C36.0602 25.8103 36.494 26.2672 36.7986 26.8625C37.1032 27.4532 37.2555 28.1593 37.2555 28.9808V28.9946C37.2555 29.8207 37.1055 30.5314 36.8055 31.1268C36.5055 31.7175 36.074 32.1721 35.511 32.4905C34.9526 32.8043 34.2811 32.9612 33.4966 32.9612ZM33.4966 31.376C33.8565 31.376 34.1611 31.2814 34.4103 31.0922C34.6595 30.9029 34.8511 30.6307 34.9849 30.2753C35.1187 29.9199 35.1856 29.4931 35.1856 28.9946V28.9808C35.1856 28.4824 35.1187 28.0578 34.9849 27.7071C34.8511 27.3517 34.6572 27.0794 34.4034 26.8902C34.1542 26.6964 33.8519 26.5995 33.4966 26.5995C33.1412 26.5995 32.8366 26.6964 32.5828 26.8902C32.3336 27.0794 32.1421 27.3517 32.0082 27.7071C31.8744 28.0578 31.8075 28.4824 31.8075 28.9808V28.9946C31.8075 29.4977 31.8721 29.9269 32.0013 30.2822C32.1351 30.6376 32.3267 30.9099 32.5759 31.0991C32.8297 31.2837 33.1366 31.376 33.4966 31.376ZM41.6235 32.9197C40.9913 32.9197 40.4421 32.7628 39.976 32.449C39.5145 32.1305 39.1568 31.6783 38.903 31.0922C38.6538 30.5061 38.5292 29.8069 38.5292 28.9946V28.9808C38.5292 28.1639 38.6515 27.4625 38.8961 26.8764C39.1453 26.2903 39.5006 25.8403 39.9621 25.5265C40.4236 25.2127 40.9774 25.0558 41.6235 25.0558C41.9697 25.0558 42.2904 25.1111 42.5858 25.2219C42.8857 25.328 43.1488 25.4803 43.3749 25.6788C43.6011 25.8772 43.7764 26.1172 43.901 26.3987H44.0256V22.266H46.047V32.802H44.0256V31.6183H43.901C43.7718 31.8905 43.5964 32.1236 43.3749 32.3174C43.158 32.5113 42.9019 32.6612 42.6065 32.7674C42.3112 32.8689 41.9835 32.9197 41.6235 32.9197ZM42.3089 31.2444C42.6688 31.2444 42.978 31.1545 43.2365 30.9745C43.4949 30.7945 43.6934 30.536 43.8318 30.1992C43.9749 29.8623 44.0464 29.4631 44.0464 29.0016V28.9877C44.0464 28.517 43.9749 28.1155 43.8318 27.7832C43.6934 27.4463 43.4926 27.1879 43.2295 27.0079C42.9711 26.8233 42.6642 26.731 42.3089 26.731C41.9581 26.731 41.6512 26.8233 41.3882 27.0079C41.1297 27.1879 40.9313 27.4463 40.7928 27.7832C40.6544 28.1155 40.5852 28.5147 40.5852 28.9808V28.9946C40.5852 29.4608 40.6544 29.8623 40.7928 30.1992C40.9313 30.536 41.1297 30.7945 41.3882 30.9745C41.6466 31.1545 41.9535 31.2444 42.3089 31.2444ZM50.2143 32.9197C49.7344 32.9197 49.3052 32.8274 48.9267 32.6428C48.5529 32.4536 48.2599 32.1882 48.0476 31.8467C47.8353 31.5006 47.7292 31.0968 47.7292 30.6353V30.6214C47.7292 30.1645 47.8422 29.7723 48.0684 29.4446C48.2991 29.1169 48.6337 28.8608 49.0721 28.6762C49.5151 28.487 50.0528 28.3739 50.685 28.337L53.5233 28.1639V29.3961L50.9896 29.5623C50.5558 29.5854 50.2328 29.6777 50.0205 29.8392C49.8082 30.0007 49.7021 30.2199 49.7021 30.4968V30.5107C49.7021 30.8014 49.8128 31.0299 50.0343 31.196C50.2559 31.3621 50.542 31.4452 50.8927 31.4452C51.2065 31.4452 51.4857 31.3829 51.7303 31.2583C51.9749 31.1337 52.1688 30.9652 52.3118 30.753C52.4549 30.536 52.5264 30.2938 52.5264 30.0261V27.5963C52.5264 27.264 52.4157 27.0102 52.1941 26.8348C51.9772 26.6549 51.6611 26.5649 51.2458 26.5649C50.8812 26.5649 50.5835 26.6272 50.3528 26.7518C50.1266 26.8718 49.9743 27.0448 49.8959 27.271L49.882 27.2986H48.013L48.0199 27.2363C48.0753 26.7887 48.2437 26.3987 48.5252 26.0664C48.8114 25.7342 49.1944 25.4757 49.6744 25.2911C50.1589 25.1065 50.7197 25.0142 51.3565 25.0142C52.0303 25.0142 52.6026 25.1181 53.0733 25.3257C53.544 25.5288 53.9017 25.8242 54.1463 26.2118C54.3955 26.5949 54.5201 27.0564 54.5201 27.5963V32.802H52.5264V31.7913H52.4018C52.2726 32.0267 52.0995 32.2297 51.8826 32.4005C51.6703 32.5666 51.4211 32.6959 51.135 32.7882C50.8535 32.8758 50.5466 32.9197 50.2143 32.9197ZM57.1991 35.4879C57.0837 35.4879 56.9637 35.4856 56.8391 35.481C56.7145 35.4764 56.5922 35.4718 56.4722 35.4672V33.9442C56.5415 33.9534 56.6222 33.9581 56.7145 33.9581C56.8114 33.9627 56.906 33.965 56.9983 33.965C57.3583 33.965 57.6444 33.8934 57.8567 33.7504C58.069 33.6073 58.2098 33.3881 58.279 33.0927L58.3482 32.802L55.6692 25.1804H57.8913L59.7119 31.7567L59.2481 30.9537H59.8504L59.4074 31.7567L61.228 25.1804H63.3601L60.7642 32.7951C60.538 33.4643 60.268 33.995 59.9542 34.3872C59.6404 34.7841 59.2597 35.0656 58.812 35.2318C58.3644 35.4025 57.8267 35.4879 57.1991 35.4879Z" fill="white"/>
<path d="M29.5333 101.475C28.0842 101.475 26.8059 101.263 25.6983 100.838C24.5907 100.404 23.7092 99.7814 23.0539 98.9692C22.4078 98.1477 22.0432 97.1647 21.9602 96.0202L21.9463 95.8125H25.6429L25.6706 95.9648C25.7629 96.4356 25.9567 96.8555 26.2521 97.2247C26.5567 97.5847 26.9859 97.8662 27.5397 98.0693C28.0935 98.2723 28.7949 98.3739 29.6441 98.3739C30.484 98.3739 31.167 98.2769 31.6931 98.0831C32.2193 97.8801 32.6069 97.6078 32.8561 97.2663C33.1053 96.9155 33.2299 96.514 33.2299 96.0618V96.0341C33.2299 95.4341 33.013 94.9542 32.5792 94.5942C32.1546 94.225 31.347 93.9112 30.1564 93.6527L27.8166 93.1543C26.589 92.8959 25.5598 92.5313 24.7291 92.0606C23.8984 91.5806 23.2754 90.9853 22.8601 90.2746C22.4447 89.5546 22.2371 88.7055 22.2371 87.7271V87.6994C22.2371 86.5641 22.5416 85.5765 23.1508 84.7366C23.76 83.8874 24.6092 83.2321 25.6983 82.7706C26.7874 82.3091 28.0427 82.0784 29.4641 82.0784C30.8855 82.0784 32.127 82.2953 33.1884 82.7291C34.2591 83.1537 35.1036 83.7721 35.722 84.5843C36.3497 85.3873 36.7096 86.3611 36.8019 87.5056L36.8296 87.741H33.133L33.1053 87.6163C33.0315 87.0902 32.8377 86.6472 32.5238 86.2872C32.21 85.918 31.7947 85.6411 31.2778 85.4565C30.7702 85.2719 30.1656 85.1796 29.4641 85.1796C28.7257 85.1796 28.1073 85.2812 27.6089 85.4842C27.1105 85.6781 26.732 85.9457 26.4736 86.2872C26.2244 86.6195 26.0998 86.9887 26.0998 87.3948V87.4225C26.0998 87.7917 26.1921 88.124 26.3767 88.4194C26.5613 88.7147 26.8613 88.9731 27.2766 89.1947C27.7012 89.4162 28.2596 89.6008 28.9519 89.7485L31.3332 90.2469C33.2622 90.653 34.7021 91.2806 35.6528 92.1298C36.6127 92.979 37.0927 94.1512 37.0927 95.6464V95.6741C37.0927 96.9017 36.765 97.9493 36.1097 98.8169C35.4636 99.6753 34.5729 100.335 33.4376 100.797C32.3023 101.249 31.0009 101.475 29.5333 101.475ZM28.8549 103.773V79.7801H30.2394V103.773H28.8549ZM47.539 102.112C46.0898 102.112 44.8207 101.854 43.7316 101.337C42.6425 100.82 41.7795 100.118 41.1426 99.2322C40.5057 98.3462 40.1458 97.3493 40.0627 96.2417L40.0488 96.0341H43.9116L43.9393 96.131C44.0408 96.6294 44.2531 97.0817 44.5761 97.4878C44.9084 97.8939 45.3284 98.217 45.836 98.4569C46.3437 98.6877 46.9159 98.8031 47.5528 98.8031C48.282 98.8031 48.9234 98.6508 49.4772 98.3462C50.0403 98.0324 50.4787 97.6032 50.7925 97.0586C51.1156 96.514 51.2771 95.8864 51.2771 95.1757V95.148C51.2771 94.4465 51.1156 93.8281 50.7925 93.2928C50.4787 92.7482 50.0403 92.3236 49.4772 92.019C48.9234 91.7144 48.2866 91.5622 47.5666 91.5622C47.059 91.5622 46.5883 91.636 46.1545 91.7837C45.7207 91.9221 45.333 92.1298 44.9915 92.4067C44.7977 92.5636 44.6177 92.7344 44.4515 92.919C44.2854 93.1036 44.1469 93.302 44.0362 93.5143H40.395L41.3087 81.7876H54.0599V85.1104H44.6315L44.1469 90.7315H44.23C44.5069 90.2792 44.8669 89.8961 45.3099 89.5823C45.7622 89.2593 46.2744 89.0101 46.8467 88.8347C47.4282 88.6593 48.0558 88.5716 48.7296 88.5716C50.0033 88.5716 51.1294 88.8532 52.1078 89.4162C53.0862 89.97 53.8569 90.7361 54.4199 91.7144C54.9829 92.6928 55.2644 93.8096 55.2644 95.0649V95.0926C55.2644 96.4863 54.9368 97.7093 54.2814 98.7615C53.6353 99.8137 52.7308 100.635 51.5678 101.226C50.4049 101.817 49.0619 102.112 47.539 102.112ZM58.3452 101.766L66.9429 85.1935V85.1104H56.7807V81.7876H71.0687V85.1519L62.734 101.766H58.3452ZM80.8643 81.4415C82.0734 81.4415 83.181 81.6538 84.187 82.0784C85.2023 82.4937 86.0838 83.126 86.8314 83.9751C87.5883 84.8243 88.1698 85.8857 88.5759 87.1595C88.9912 88.424 89.1989 89.9008 89.1989 91.5898V91.6175C89.1989 93.805 88.862 95.6833 88.1882 97.2524C87.5144 98.8123 86.5545 100.012 85.3085 100.852C84.0624 101.692 82.5672 102.112 80.8227 102.112C79.5398 102.112 78.3768 101.881 77.3338 101.42C76.3 100.958 75.4463 100.331 74.7725 99.5368C74.0987 98.7338 73.6603 97.8154 73.4572 96.7817L73.4295 96.6571H77.5553L77.5969 96.7678C77.763 97.1647 77.9937 97.5155 78.2891 97.8201C78.5937 98.1247 78.9583 98.3646 79.3829 98.54C79.8074 98.7061 80.292 98.7892 80.8366 98.7892C81.8149 98.7892 82.6133 98.5077 83.2317 97.9447C83.8502 97.3816 84.3163 96.6248 84.6301 95.6741C84.9531 94.7142 85.1377 93.6481 85.1839 92.4759C85.1931 92.3375 85.1977 92.2036 85.1977 92.0744C85.207 91.936 85.2116 91.7975 85.2116 91.6591L84.5747 88.3363C84.5747 87.6625 84.4132 87.0579 84.0901 86.5226C83.7671 85.978 83.3287 85.5488 82.7749 85.235C82.2211 84.9212 81.6027 84.7643 80.9196 84.7643C80.2366 84.7643 79.6182 84.9212 79.0644 85.235C78.5106 85.5396 78.0676 85.9596 77.7353 86.4949C77.403 87.021 77.2369 87.6163 77.2369 88.2809V88.3086C77.2369 89.0008 77.3938 89.6146 77.7076 90.15C78.0307 90.6761 78.4645 91.0914 79.009 91.396C79.5628 91.6914 80.1859 91.8391 80.8781 91.8391C81.5796 91.8391 82.2072 91.6914 82.761 91.396C83.324 91.1007 83.7671 90.6899 84.0901 90.1638C84.4132 89.6377 84.5747 89.0331 84.5747 88.3501V88.3363H85.4192V91.7144H85.1285C84.8608 92.3329 84.4732 92.8867 83.9655 93.3758C83.4579 93.8558 82.8395 94.2342 82.1103 94.5111C81.3904 94.788 80.5781 94.9265 79.6736 94.9265C78.3906 94.9265 77.26 94.6496 76.2816 94.0958C75.3032 93.5327 74.5371 92.762 73.9833 91.7837C73.4388 90.8053 73.1665 89.6931 73.1665 88.447V88.4194C73.1665 87.0625 73.4988 85.858 74.1633 84.8058C74.8279 83.7536 75.737 82.9321 76.8908 82.3414C78.0537 81.7415 79.3782 81.4415 80.8643 81.4415Z" fill="white"/>
</g>
</svg>
