<svg width="61" height="61" viewBox="0 0 61 61" fill="none" xmlns="http://www.w3.org/2000/svg">
<mask id="mask0_1339_2782" style="mask-type:alpha" maskUnits="userSpaceOnUse" x="0" y="0" width="61" height="61">
<rect x="0.516113" y="0.516113" width="60" height="60" fill="#D9D9D9"/>
</mask>
<g mask="url(#mask0_1339_2782)">
<path d="M30.2598 52.0171C29.8022 52.0171 29.3861 51.8812 29.0117 51.6096C28.6372 51.3396 28.3668 50.9754 28.2004 50.5171C27.2435 47.5587 26.0369 45.0796 24.5807 43.0796C23.1245 41.0796 21.7099 39.1629 20.337 37.3296C19.0056 35.4963 17.8515 33.6004 16.8746 31.6421C15.896 29.6838 15.4067 27.2671 15.4067 24.3921C15.4067 20.2254 16.8421 16.7046 19.7129 13.8296C22.5837 10.9546 26.0993 9.51709 30.2598 9.51709C34.4204 9.51709 37.936 10.9546 40.8068 13.8296C43.6776 16.7046 45.1129 20.2254 45.1129 24.3921C45.1129 27.2671 44.6345 29.6838 43.6776 31.6421C42.7206 33.6004 41.5557 35.4963 40.1827 37.3296C38.8513 39.1629 37.4476 41.0796 35.9714 43.0796C34.4936 45.0796 33.2762 47.5587 32.3193 50.5171C32.1529 50.9754 31.8824 51.3396 31.508 51.6096C31.1336 51.8812 30.7175 52.0171 30.2598 52.0171ZM30.2598 29.7046C31.716 29.7046 32.9642 29.1838 34.0043 28.1421C35.0445 27.1004 35.5645 25.8504 35.5645 24.3921C35.5645 22.9338 35.0445 21.6838 34.0043 20.6421C32.9642 19.6004 31.716 19.0796 30.2598 19.0796C28.8037 19.0796 27.5555 19.6004 26.5154 20.6421C25.4752 21.6838 24.9552 22.9338 24.9552 24.3921C24.9552 25.8504 25.4752 27.1004 26.5154 28.1421C27.5555 29.1838 28.8037 29.7046 30.2598 29.7046Z" fill="#2E2E43"/>
</g>
</svg>
