<svg width="160" height="160" viewBox="0 0 160 160" fill="none" xmlns="http://www.w3.org/2000/svg">
<rect width="160" height="160" rx="21.9409" fill="#2A2C54"/>
<mask id="mask0_1306_2884" style="mask-type:alpha" maskUnits="userSpaceOnUse" x="0" y="0" width="160" height="160">
<rect width="160" height="160" rx="21.9409" fill="#0E0E16"/>
</mask>
<g mask="url(#mask0_1306_2884)">
<rect width="160" height="160" rx="21.9409" fill="#2A2C54"/>
<rect x="14.8523" y="134.346" width="130.295" height="10.8017" rx="5.40084" fill="#D9D9D9"/>
<rect x="14.8523" y="134.346" width="130.295" height="10.8017" rx="5.40084" fill="url(#paint0_linear_1306_2884)"/>
<path opacity="0.7" d="M14.8523 139.747C14.8523 136.764 17.2703 134.346 20.2531 134.346H113.08V145.148H20.2531C17.2703 145.148 14.8523 142.73 14.8523 139.747V139.747Z" fill="#2A2C54"/>
<path d="M21.127 32.3359V22.3468H27.6687V24.0705H23.2175V26.7495H27.281V28.404H23.2175V32.3359H21.127ZM32.7844 32.4952C32.0045 32.4952 31.333 32.3382 30.77 32.0244C30.2069 31.706 29.7754 31.2514 29.4755 30.6607C29.1755 30.0654 29.0255 29.3547 29.0255 28.5286V28.5147C29.0255 27.6933 29.1778 26.9872 29.4824 26.3965C29.787 25.8057 30.2185 25.3512 30.7769 25.0327C31.3399 24.7097 32.0091 24.5482 32.7844 24.5482C33.5597 24.5482 34.2266 24.7074 34.785 25.0258C35.348 25.3442 35.7818 25.8011 36.0864 26.3965C36.391 26.9872 36.5433 27.6933 36.5433 28.5147V28.5286C36.5433 29.3547 36.3933 30.0654 36.0933 30.6607C35.7934 31.2514 35.3619 31.706 34.7988 32.0244C34.2404 32.3382 33.5689 32.4952 32.7844 32.4952ZM32.7844 30.9099C33.1444 30.9099 33.449 30.8153 33.6982 30.6261C33.9474 30.4369 34.1389 30.1646 34.2727 29.8092C34.4066 29.4539 34.4735 29.027 34.4735 28.5286V28.5147C34.4735 28.0163 34.4066 27.5917 34.2727 27.241C34.1389 26.8856 33.9451 26.6134 33.6912 26.4242C33.442 26.2303 33.1397 26.1334 32.7844 26.1334C32.429 26.1334 32.1245 26.2303 31.8706 26.4242C31.6214 26.6134 31.4299 26.8856 31.2961 27.241C31.1622 27.5917 31.0953 28.0163 31.0953 28.5147V28.5286C31.0953 29.0316 31.1599 29.4608 31.2891 29.8162C31.423 30.1715 31.6145 30.4438 31.8637 30.633C32.1175 30.8176 32.4244 30.9099 32.7844 30.9099ZM41.5759 32.4952C40.796 32.4952 40.1245 32.3382 39.5615 32.0244C38.9985 31.706 38.567 31.2514 38.267 30.6607C37.967 30.0654 37.817 29.3547 37.817 28.5286V28.5147C37.817 27.6933 37.9693 26.9872 38.2739 26.3965C38.5785 25.8057 39.01 25.3512 39.5684 25.0327C40.1314 24.7097 40.8006 24.5482 41.5759 24.5482C42.3512 24.5482 43.0181 24.7074 43.5765 25.0258C44.1395 25.3442 44.5734 25.8011 44.8779 26.3965C45.1825 26.9872 45.3348 27.6933 45.3348 28.5147V28.5286C45.3348 29.3547 45.1848 30.0654 44.8849 30.6607C44.5849 31.2514 44.1534 31.706 43.5904 32.0244C43.032 32.3382 42.3605 32.4952 41.5759 32.4952ZM41.5759 30.9099C41.9359 30.9099 42.2405 30.8153 42.4897 30.6261C42.7389 30.4369 42.9304 30.1646 43.0643 29.8092C43.1981 29.4539 43.265 29.027 43.265 28.5286V28.5147C43.265 28.0163 43.1981 27.5917 43.0643 27.241C42.9304 26.8856 42.7366 26.6134 42.4828 26.4242C42.2336 26.2303 41.9313 26.1334 41.5759 26.1334C41.2206 26.1334 40.916 26.2303 40.6622 26.4242C40.413 26.6134 40.2214 26.8856 40.0876 27.241C39.9538 27.5917 39.8868 28.0163 39.8868 28.5147V28.5286C39.8868 29.0316 39.9515 29.4608 40.0807 29.8162C40.2145 30.1715 40.406 30.4438 40.6552 30.633C40.9091 30.8176 41.216 30.9099 41.5759 30.9099ZM49.7029 32.4536C49.0707 32.4536 48.5215 32.2967 48.0554 31.9829C47.5939 31.6645 47.2362 31.2122 46.9824 30.6261C46.7332 30.04 46.6086 29.3408 46.6086 28.5286V28.5147C46.6086 27.6979 46.7309 26.9964 46.9755 26.4103C47.2247 25.8242 47.58 25.3742 48.0415 25.0604C48.503 24.7466 49.0568 24.5897 49.7029 24.5897C50.049 24.5897 50.3698 24.6451 50.6651 24.7558C50.9651 24.862 51.2282 25.0143 51.4543 25.2127C51.6804 25.4112 51.8558 25.6511 51.9804 25.9327H52.105V21.7999H54.1264V32.3359H52.105V31.1522H51.9804C51.8512 31.4245 51.6758 31.6575 51.4543 31.8514C51.2374 32.0452 50.9813 32.1952 50.6859 32.3013C50.3905 32.4029 50.0629 32.4536 49.7029 32.4536ZM50.3882 30.7784C50.7482 30.7784 51.0574 30.6884 51.3158 30.5084C51.5743 30.3284 51.7727 30.07 51.9112 29.7331C52.0542 29.3962 52.1258 28.997 52.1258 28.5355V28.5217C52.1258 28.0509 52.0542 27.6494 51.9112 27.3171C51.7727 26.9803 51.572 26.7218 51.3089 26.5418C51.0505 26.3572 50.7436 26.2649 50.3882 26.2649C50.0375 26.2649 49.7306 26.3572 49.4675 26.5418C49.2091 26.7218 49.0107 26.9803 48.8722 27.3171C48.7338 27.6494 48.6645 28.0486 48.6645 28.5147V28.5286C48.6645 28.9947 48.7338 29.3962 48.8722 29.7331C49.0107 30.07 49.2091 30.3284 49.4675 30.5084C49.726 30.6884 50.0329 30.7784 50.3882 30.7784ZM64.3716 32.4536C64.0116 32.4536 63.684 32.4029 63.3886 32.3013C63.0933 32.1952 62.8348 32.0452 62.6133 31.8514C62.3964 31.6575 62.221 31.4245 62.0872 31.1522H61.9626V32.3359H59.9412V21.7999H61.9626V25.9327H62.0872C62.2164 25.6511 62.3918 25.4112 62.6133 25.2127C62.8394 25.0143 63.1002 24.862 63.3955 24.7558C63.6955 24.6451 64.0209 24.5897 64.3716 24.5897C65.0131 24.5897 65.5646 24.7466 66.0261 25.0604C66.4876 25.3742 66.8429 25.8242 67.0921 26.4103C67.3414 26.9964 67.466 27.6979 67.466 28.5147V28.5286C67.466 29.3408 67.339 30.04 67.0852 30.6261C66.836 31.2122 66.4807 31.6645 66.0192 31.9829C65.5577 32.2967 65.0085 32.4536 64.3716 32.4536ZM63.6794 30.7784C64.0393 30.7784 64.3462 30.6884 64.6001 30.5084C64.8585 30.3284 65.0569 30.07 65.1954 29.7331C65.3385 29.3962 65.41 28.9947 65.41 28.5286V28.5147C65.41 28.0486 65.3385 27.6494 65.1954 27.3171C65.0569 26.9803 64.8585 26.7218 64.6001 26.5418C64.3462 26.3572 64.0393 26.2649 63.6794 26.2649C63.3286 26.2649 63.0217 26.3572 62.7587 26.5418C62.5002 26.7218 62.2995 26.9803 62.1564 27.3171C62.0134 27.6494 61.9418 28.0509 61.9418 28.5217V28.5355C61.9418 28.997 62.0111 29.3962 62.1495 29.7331C62.2926 30.07 62.4933 30.3284 62.7518 30.5084C63.0148 30.6884 63.324 30.7784 63.6794 30.7784ZM71.6264 32.4952C71.0587 32.4952 70.5811 32.3844 70.1934 32.1629C69.8104 31.9414 69.5219 31.6183 69.3281 31.1937C69.1343 30.7645 69.0374 30.2477 69.0374 29.6431V24.7143H71.0587V29.1793C71.0587 29.7192 71.1649 30.1277 71.3772 30.4046C71.5941 30.6815 71.9425 30.8199 72.4224 30.8199C72.6717 30.8199 72.8909 30.7807 73.0801 30.7022C73.2739 30.6192 73.4354 30.5038 73.5647 30.3561C73.6939 30.2084 73.7908 30.0308 73.8554 29.8231C73.9246 29.6108 73.9592 29.3754 73.9592 29.117V24.7143H75.9806V32.3359H73.9592V31.1591H73.8346C73.7193 31.436 73.5577 31.676 73.3501 31.8791C73.1424 32.0775 72.8932 32.2298 72.6024 32.3359C72.3117 32.4421 71.9863 32.4952 71.6264 32.4952ZM80.7294 32.4536C80.0972 32.4536 79.548 32.2967 79.0819 31.9829C78.6204 31.6645 78.2627 31.2122 78.0089 30.6261C77.7597 30.04 77.6351 29.3408 77.6351 28.5286V28.5147C77.6351 27.6979 77.7574 26.9964 78.002 26.4103C78.2512 25.8242 78.6065 25.3742 79.068 25.0604C79.5295 24.7466 80.0833 24.5897 80.7294 24.5897C81.0755 24.5897 81.3963 24.6451 81.6916 24.7558C81.9916 24.862 82.2547 25.0143 82.4808 25.2127C82.7069 25.4112 82.8823 25.6511 83.0069 25.9327H83.1315V21.7999H85.1529V32.3359H83.1315V31.1522H83.0069C82.8777 31.4245 82.7023 31.6575 82.4808 31.8514C82.2639 32.0452 82.0078 32.1952 81.7124 32.3013C81.417 32.4029 81.0894 32.4536 80.7294 32.4536ZM81.4147 30.7784C81.7747 30.7784 82.0839 30.6884 82.3423 30.5084C82.6008 30.3284 82.7992 30.07 82.9377 29.7331C83.0807 29.3962 83.1523 28.997 83.1523 28.5355V28.5217C83.1523 28.0509 83.0807 27.6494 82.9377 27.3171C82.7992 26.9803 82.5985 26.7218 82.3354 26.5418C82.077 26.3572 81.7701 26.2649 81.4147 26.2649C81.064 26.2649 80.7571 26.3572 80.494 26.5418C80.2356 26.7218 80.0372 26.9803 79.8987 27.3171C79.7603 27.6494 79.691 28.0486 79.691 28.5147V28.5286C79.691 28.9947 79.7603 29.3962 79.8987 29.7331C80.0372 30.07 80.2356 30.3284 80.494 30.5084C80.7525 30.6884 81.0594 30.7784 81.4147 30.7784ZM90.6078 35.0149C89.9017 35.0149 89.2971 34.9226 88.7941 34.738C88.2957 34.558 87.9034 34.3019 87.6173 33.9696C87.3311 33.642 87.1604 33.2635 87.105 32.8344V32.7997H89.1056L89.1125 32.8274C89.1679 33.049 89.3248 33.2289 89.5832 33.3674C89.8463 33.5058 90.2016 33.5751 90.6493 33.5751C91.1893 33.5751 91.6092 33.4528 91.9092 33.2082C92.2092 32.9682 92.3591 32.6267 92.3591 32.1836V30.7645H92.2345C92.0961 31.0322 91.9138 31.2583 91.6877 31.4429C91.4662 31.6275 91.2077 31.7683 90.9124 31.8652C90.6216 31.9575 90.3009 32.0037 89.9501 32.0037C89.3133 32.0037 88.7618 31.8514 88.2957 31.5468C87.8342 31.2376 87.4765 30.8084 87.2227 30.2592C86.9735 29.71 86.8489 29.0755 86.8489 28.3555V28.3417C86.8489 27.594 86.9735 26.9387 87.2227 26.3757C87.4765 25.8127 87.8365 25.3742 88.3026 25.0604C88.7733 24.7466 89.334 24.5897 89.9847 24.5897C90.3355 24.5897 90.6562 24.6451 90.947 24.7558C91.2423 24.8666 91.5008 25.0235 91.7223 25.2266C91.9438 25.4296 92.1215 25.6742 92.2553 25.9603H92.3522V24.7143H94.3736V32.1006C94.3736 32.6959 94.219 33.2105 93.9098 33.6443C93.6052 34.0827 93.1714 34.4196 92.6084 34.655C92.0453 34.8949 91.3785 35.0149 90.6078 35.0149ZM90.6355 30.453C91 30.453 91.3115 30.3653 91.57 30.19C91.8284 30.01 92.0269 29.7631 92.1653 29.4493C92.3084 29.1354 92.3799 28.7686 92.3799 28.3486V28.3348C92.3799 27.9194 92.3084 27.5525 92.1653 27.2341C92.0269 26.9156 91.8284 26.6687 91.57 26.4934C91.3115 26.318 91 26.2303 90.6355 26.2303C90.2709 26.2303 89.9617 26.318 89.7078 26.4934C89.454 26.6687 89.2579 26.9156 89.1194 27.2341C88.9856 27.5479 88.9187 27.9148 88.9187 28.3348V28.3486C88.9187 28.7639 88.9856 29.1308 89.1194 29.4493C89.2579 29.7631 89.454 30.01 89.7078 30.19C89.9617 30.3653 90.2709 30.453 90.6355 30.453ZM99.7454 32.4952C98.9747 32.4952 98.3102 32.3359 97.7518 32.0175C97.198 31.6945 96.7711 31.2376 96.4711 30.6469C96.1711 30.0561 96.0211 29.3524 96.0211 28.5355V28.5286C96.0211 27.721 96.1688 27.0195 96.4642 26.4242C96.7641 25.8288 97.1864 25.3673 97.731 25.0397C98.2802 24.712 98.924 24.5482 99.6624 24.5482C100.405 24.5482 101.047 24.7074 101.587 25.0258C102.127 25.3442 102.542 25.7896 102.833 26.3618C103.124 26.9341 103.269 27.6056 103.269 28.3763V29.0062H97.0318V27.7394H102.3L101.351 28.937V28.1271C101.351 27.6702 101.28 27.2895 101.137 26.9849C100.998 26.6803 100.805 26.4518 100.555 26.2995C100.311 26.1426 100.025 26.0642 99.697 26.0642C99.3739 26.0642 99.0855 26.1449 98.8317 26.3065C98.5824 26.4634 98.384 26.6964 98.2363 27.0056C98.0933 27.3102 98.0217 27.684 98.0217 28.1271V28.9439C98.0217 29.3731 98.0933 29.74 98.2363 30.0446C98.3794 30.3492 98.5824 30.5822 98.8455 30.7438C99.1086 30.9053 99.4224 30.9861 99.787 30.9861C100.082 30.9861 100.334 30.9422 100.542 30.8545C100.749 30.7668 100.915 30.6653 101.04 30.5499C101.169 30.43 101.257 30.3215 101.303 30.2246L101.324 30.1831H103.207L103.193 30.2523C103.133 30.4923 103.024 30.7438 102.867 31.0068C102.711 31.2653 102.494 31.5075 102.217 31.7337C101.944 31.9598 101.603 32.1444 101.192 32.2875C100.786 32.4259 100.304 32.4952 99.7454 32.4952ZM108.087 32.3636C107.164 32.3636 106.499 32.2021 106.093 31.8791C105.687 31.5514 105.484 31.0184 105.484 30.28V26.2372H104.307V24.7143H105.484V22.8937H107.526V24.7143H109.098V26.2372H107.526V29.8162C107.526 30.1577 107.602 30.4092 107.755 30.5707C107.912 30.7276 108.161 30.8061 108.502 30.8061C108.632 30.8061 108.738 30.8038 108.821 30.7991C108.908 30.7899 109.001 30.7807 109.098 30.7715V32.2736C108.973 32.2967 108.823 32.3175 108.648 32.3359C108.472 32.3544 108.285 32.3636 108.087 32.3636Z" fill="white"/>
<path d="M21.5755 115.966V106.995H22.8631V115.966H21.5755ZM27.3638 116.091C26.7349 116.091 26.1949 115.956 25.744 115.687C25.293 115.414 24.9449 115.029 24.6997 114.53C24.4584 114.032 24.3377 113.443 24.3377 112.762V112.756C24.3377 112.084 24.4584 111.496 24.6997 110.994C24.9449 110.492 25.2891 110.1 25.7321 109.819C26.1791 109.538 26.7013 109.398 27.2986 109.398C27.8998 109.398 28.4161 109.532 28.8472 109.801C29.2823 110.07 29.6166 110.448 29.85 110.935C30.0834 111.417 30.2001 111.983 30.2001 112.632V113.083H24.9904V112.163H29.5592L28.9422 113.017V112.501C28.9422 112.042 28.871 111.663 28.7286 111.362C28.5901 111.057 28.3982 110.83 28.153 110.68C27.9077 110.529 27.6249 110.454 27.3045 110.454C26.9841 110.454 26.6973 110.533 26.4441 110.691C26.1949 110.846 25.9971 111.075 25.8508 111.38C25.7084 111.684 25.6372 112.058 25.6372 112.501V113.017C25.6372 113.441 25.7084 113.803 25.8508 114.103C25.9932 114.404 26.1949 114.633 26.456 114.791C26.721 114.95 27.0335 115.029 27.3935 115.029C27.6704 115.029 27.9077 114.991 28.1055 114.916C28.3073 114.837 28.4714 114.74 28.598 114.625C28.7286 114.511 28.8176 114.398 28.865 114.287L28.8888 114.24H30.1348L30.1229 114.293C30.0676 114.507 29.9706 114.72 29.8322 114.934C29.6937 115.144 29.5098 115.335 29.2804 115.509C29.0549 115.683 28.782 115.824 28.4615 115.931C28.1451 116.038 27.7792 116.091 27.3638 116.091ZM32.0663 115.966V110.537H31.0042V109.522H32.0663V108.846C32.0663 108.415 32.1375 108.059 32.2799 107.778C32.4263 107.493 32.6478 107.282 32.9445 107.143C33.2411 107.005 33.6149 106.935 34.0659 106.935C34.2083 106.935 34.3408 106.941 34.4634 106.953C34.59 106.961 34.7107 106.975 34.8254 106.995V107.944C34.7661 107.932 34.6929 107.924 34.6058 107.92C34.5228 107.913 34.4318 107.909 34.3329 107.909C33.9769 107.909 33.7217 107.994 33.5675 108.164C33.4172 108.334 33.342 108.581 33.342 108.905V109.522H34.7661V110.537H33.3539V115.966H32.0663ZM38.5488 116.008C37.8447 116.008 37.3344 115.873 37.0179 115.604C36.7054 115.331 36.5492 114.886 36.5492 114.269V110.537H35.5405V109.522H36.5492V107.897H37.8664V109.522H39.249V110.537H37.8664V113.955C37.8664 114.303 37.9357 114.554 38.0741 114.708C38.2126 114.859 38.442 114.934 38.7624 114.934C38.8573 114.934 38.9384 114.932 39.0057 114.928C39.0769 114.924 39.158 114.918 39.249 114.91V115.943C39.1461 115.958 39.0354 115.972 38.9167 115.984C38.798 116 38.6754 116.008 38.5488 116.008ZM44.2808 115.966V110.537H43.2187V109.522H44.2808V108.846C44.2808 108.415 44.352 108.059 44.4945 107.778C44.6408 107.493 44.8623 107.282 45.159 107.143C45.4557 107.005 45.8295 106.935 46.2804 106.935C46.4229 106.935 46.5554 106.941 46.678 106.953C46.8046 106.961 46.9252 106.975 47.0399 106.995V107.944C46.9806 107.932 46.9074 107.924 46.8204 107.92C46.7373 107.913 46.6464 107.909 46.5475 107.909C46.1914 107.909 45.9363 107.994 45.782 108.164C45.6317 108.334 45.5566 108.581 45.5566 108.905V109.522H46.9806V110.537H45.5684V115.966H44.2808ZM50.7871 116.091C50.1581 116.091 49.6142 115.956 49.1554 115.687C48.7005 115.418 48.3504 115.035 48.1051 114.536C47.8599 114.034 47.7373 113.439 47.7373 112.75V112.738C47.7373 112.046 47.8599 111.451 48.1051 110.952C48.3543 110.454 48.7064 110.07 49.1613 109.801C49.6202 109.532 50.1621 109.398 50.7871 109.398C51.416 109.398 51.958 109.532 52.4129 109.801C52.8678 110.066 53.2179 110.45 53.4631 110.952C53.7123 111.451 53.8369 112.046 53.8369 112.738V112.75C53.8369 113.439 53.7123 114.034 53.4631 114.536C53.2179 115.035 52.8678 115.418 52.4129 115.687C51.9619 115.956 51.42 116.091 50.7871 116.091ZM50.7871 115.011C51.155 115.011 51.4675 114.922 51.7246 114.744C51.9817 114.562 52.1775 114.303 52.312 113.967C52.4465 113.63 52.5138 113.225 52.5138 112.75V112.738C52.5138 112.26 52.4465 111.852 52.312 111.516C52.1775 111.18 51.9817 110.923 51.7246 110.745C51.4675 110.563 51.155 110.472 50.7871 110.472C50.4192 110.472 50.1067 110.563 49.8496 110.745C49.5925 110.923 49.3947 111.18 49.2562 111.516C49.1217 111.852 49.0545 112.26 49.0545 112.738V112.75C49.0545 113.225 49.1217 113.63 49.2562 113.967C49.3947 114.303 49.5925 114.562 49.8496 114.744C50.1067 114.922 50.4192 115.011 50.7871 115.011ZM55.2463 115.966V109.522H56.5338V110.496H56.6347C56.7494 110.151 56.9512 109.884 57.2399 109.695C57.5327 109.505 57.8926 109.41 58.3198 109.41C58.4266 109.41 58.5315 109.416 58.6343 109.428C58.7372 109.439 58.8202 109.453 58.8835 109.469V110.656C58.7688 110.632 58.6541 110.614 58.5394 110.602C58.4286 110.591 58.3119 110.585 58.1893 110.585C57.861 110.585 57.5722 110.648 57.323 110.774C57.0778 110.901 56.8839 111.079 56.7415 111.308C56.6031 111.534 56.5338 111.803 56.5338 112.115V115.966H55.2463ZM66.1583 116.174C65.6005 116.174 65.1061 116.067 64.6749 115.854C64.2437 115.64 63.8996 115.349 63.6425 114.981C63.3854 114.61 63.235 114.194 63.1915 113.735L63.1856 113.658H64.4376L64.4435 113.706C64.4831 113.955 64.578 114.182 64.7283 114.388C64.8826 114.594 65.0843 114.756 65.3335 114.875C65.5827 114.993 65.8616 115.053 66.1702 115.053C66.5222 115.053 66.8327 114.975 67.1017 114.821C67.3707 114.663 67.5804 114.447 67.7307 114.174C67.885 113.901 67.9621 113.587 67.9621 113.231V113.219C67.9621 112.867 67.885 112.555 67.7307 112.282C67.5764 112.009 67.3668 111.797 67.1017 111.647C66.8367 111.492 66.5301 111.415 66.182 111.415C65.9249 111.415 65.6856 111.455 65.4641 111.534C65.2465 111.609 65.0527 111.724 64.8826 111.878C64.8074 111.949 64.7362 112.026 64.669 112.11C64.6017 112.189 64.5424 112.278 64.491 112.377H63.3399L63.7671 107.404H68.7513V108.532H64.8173L64.5562 111.261H64.6512C64.7738 111.067 64.9261 110.903 65.1081 110.769C65.294 110.634 65.5036 110.531 65.737 110.46C65.9704 110.389 66.2176 110.353 66.4787 110.353C67.0167 110.353 67.4914 110.476 67.9028 110.721C68.3181 110.966 68.6445 111.303 68.8818 111.73C69.1191 112.157 69.2378 112.646 69.2378 113.195V113.207C69.2378 113.789 69.1053 114.303 68.8403 114.75C68.5792 115.197 68.2172 115.547 67.7544 115.8C67.2956 116.049 66.7635 116.174 66.1583 116.174ZM76.3227 116.073C75.7847 116.073 75.314 115.939 74.9105 115.67C74.511 115.397 74.2005 115.011 73.9789 114.513C73.7614 114.014 73.6526 113.427 73.6526 112.75V112.738C73.6526 112.058 73.7614 111.469 73.9789 110.97C74.1965 110.472 74.5051 110.088 74.9046 109.819C75.3041 109.546 75.7768 109.41 76.3227 109.41C76.6194 109.41 76.8963 109.457 77.1534 109.552C77.4105 109.643 77.638 109.774 77.8357 109.944C78.0335 110.11 78.1898 110.31 78.3045 110.543H78.3994V106.995H79.6929V115.966H78.3994V114.952H78.3045C78.1779 115.185 78.0177 115.387 77.8239 115.557C77.6301 115.723 77.4066 115.852 77.1534 115.943C76.9002 116.03 76.6233 116.073 76.3227 116.073ZM76.6906 114.969C77.0466 114.969 77.3551 114.88 77.6162 114.702C77.8773 114.524 78.077 114.269 78.2155 113.937C78.3539 113.601 78.4232 113.205 78.4232 112.75V112.738C78.4232 112.28 78.352 111.884 78.2096 111.552C78.0711 111.219 77.8713 110.964 77.6103 110.786C77.3532 110.604 77.0466 110.513 76.6906 110.513C76.3346 110.513 76.026 110.604 75.7649 110.786C75.5078 110.964 75.31 111.219 75.1716 111.552C75.0371 111.88 74.9698 112.276 74.9698 112.738V112.75C74.9698 113.209 75.0371 113.605 75.1716 113.937C75.31 114.269 75.5078 114.524 75.7649 114.702C76.026 114.88 76.3346 114.969 76.6906 114.969ZM83.2502 116.073C82.8428 116.073 82.4769 115.996 82.1525 115.842C81.8321 115.683 81.5789 115.46 81.393 115.171C81.2071 114.882 81.1141 114.544 81.1141 114.157V114.145C81.1141 113.757 81.2071 113.427 81.393 113.154C81.5829 112.881 81.8558 112.667 82.2119 112.513C82.5718 112.355 83.007 112.26 83.5172 112.228L85.8966 112.086V112.994L83.6952 113.136C83.2522 113.164 82.9259 113.259 82.7162 113.421C82.5066 113.579 82.4017 113.803 82.4017 114.091V114.103C82.4017 114.396 82.5145 114.627 82.7399 114.797C82.9654 114.964 83.2502 115.047 83.5944 115.047C83.9148 115.047 84.1996 114.983 84.4488 114.857C84.702 114.726 84.8998 114.552 85.0422 114.335C85.1846 114.113 85.2558 113.864 85.2558 113.587V111.558C85.2558 111.202 85.145 110.931 84.9235 110.745C84.7059 110.555 84.3816 110.46 83.9504 110.46C83.5904 110.46 83.2957 110.523 83.0663 110.65C82.8408 110.776 82.6905 110.954 82.6153 111.184L82.6035 111.202H81.3634L81.3693 111.16C81.4207 110.804 81.5611 110.496 81.7906 110.235C82.024 109.969 82.3285 109.764 82.7043 109.617C83.0841 109.471 83.5172 109.398 84.0038 109.398C84.5457 109.398 85.0046 109.485 85.3804 109.659C85.7601 109.829 86.0469 110.076 86.2407 110.401C86.4385 110.721 86.5374 111.107 86.5374 111.558V115.966H85.2558V115.053H85.1608C85.0342 115.27 84.876 115.456 84.6861 115.61C84.4963 115.761 84.2807 115.875 84.0394 115.954C83.7981 116.034 83.535 116.073 83.2502 116.073ZM88.6469 118.233C88.5678 118.233 88.4827 118.229 88.3918 118.221C88.3008 118.217 88.2138 118.211 88.1307 118.203V117.189C88.194 117.197 88.2632 117.202 88.3384 117.206C88.4175 117.21 88.4926 117.212 88.5638 117.212C88.8645 117.212 89.1077 117.141 89.2937 116.999C89.4796 116.86 89.62 116.629 89.7149 116.305L89.8099 115.972L87.4721 109.522H88.8664L90.688 115.331L90.2846 114.667H90.777L90.3795 115.331L92.1952 109.522H93.5539L91.1568 116.21C90.9748 116.724 90.7731 117.127 90.5516 117.42C90.3301 117.717 90.067 117.926 89.7624 118.049C89.4578 118.172 89.086 118.233 88.6469 118.233ZM96.9095 116.091C96.3913 116.091 95.9403 116.016 95.5566 115.865C95.1729 115.711 94.8683 115.5 94.6429 115.231C94.4174 114.958 94.2849 114.641 94.2453 114.281V114.269H95.5388V114.281C95.6219 114.522 95.7801 114.718 96.0135 114.869C96.2469 115.019 96.5554 115.094 96.9391 115.094C97.2042 115.094 97.4356 115.056 97.6334 114.981C97.8351 114.906 97.9933 114.801 98.1081 114.667C98.2228 114.532 98.2801 114.378 98.2801 114.204V114.192C98.2801 113.99 98.199 113.82 98.0369 113.682C97.8747 113.543 97.6077 113.431 97.2358 113.344L96.2034 113.106C95.7999 113.015 95.4657 112.891 95.2006 112.733C94.9356 112.574 94.7398 112.38 94.6132 112.151C94.4866 111.918 94.4233 111.645 94.4233 111.332V111.326C94.4233 110.95 94.5301 110.618 94.7437 110.329C94.9573 110.037 95.252 109.809 95.6278 109.647C96.0076 109.481 96.4407 109.398 96.9273 109.398C97.4178 109.398 97.845 109.475 98.2089 109.629C98.5768 109.78 98.8676 109.989 99.0812 110.258C99.2948 110.523 99.4213 110.832 99.4609 111.184V111.19H98.2267V111.178C98.1674 110.952 98.025 110.765 97.7995 110.614C97.578 110.464 97.2853 110.389 96.9213 110.389C96.688 110.389 96.4803 110.426 96.2983 110.502C96.1164 110.573 95.972 110.674 95.8652 110.804C95.7623 110.931 95.7109 111.081 95.7109 111.255V111.267C95.7109 111.401 95.7445 111.52 95.8118 111.623C95.883 111.722 95.9937 111.811 96.1441 111.89C96.2944 111.965 96.4882 112.032 96.7255 112.092L97.752 112.323C98.3691 112.469 98.828 112.681 99.1286 112.958C99.4332 113.235 99.5855 113.607 99.5855 114.074V114.085C99.5855 114.481 99.4688 114.831 99.2354 115.136C99.002 115.436 98.6836 115.672 98.2801 115.842C97.8806 116.008 97.4237 116.091 96.9095 116.091Z" fill="white" fill-opacity="0.49"/>
<path d="M29.1652 95.6068C27.6471 95.6068 26.3078 95.3844 25.1475 94.9396C23.9872 94.4851 23.0637 93.8324 22.3772 92.9815C21.7003 92.1209 21.3184 91.0911 21.2314 89.8921L21.2169 89.6746H25.0895L25.1185 89.8341C25.2152 90.3273 25.4182 90.7672 25.7277 91.154C26.0468 91.5311 26.4964 91.826 27.0766 92.0388C27.6567 92.2515 28.3916 92.3578 29.2812 92.3578C30.1611 92.3578 30.8767 92.2563 31.4278 92.0533C31.979 91.8405 32.3851 91.5553 32.6462 91.1975C32.9073 90.8301 33.0378 90.4094 33.0378 89.9356V89.9066C33.0378 89.2781 32.8106 88.7753 32.3561 88.3982C31.9113 88.0114 31.0652 87.6827 29.8179 87.4119L27.3666 86.8898C26.0806 86.619 25.0025 86.2371 24.1322 85.7439C23.262 85.2411 22.6093 84.6174 22.1741 83.8729C21.739 83.1187 21.5214 82.2291 21.5214 81.2041V81.1751C21.5214 79.9857 21.8405 78.9511 22.4787 78.0712C23.1169 77.1816 24.0065 76.4951 25.1475 76.0116C26.2885 75.5281 27.6035 75.2864 29.0926 75.2864C30.5817 75.2864 31.8823 75.5136 32.9943 75.9681C34.1159 76.4129 35.0007 77.0607 35.6486 77.9116C36.3061 78.7529 36.6832 79.773 36.7799 80.972L36.8089 81.2186H32.9363L32.9073 81.0881C32.8299 80.5369 32.6268 80.0728 32.2981 79.6957C31.9693 79.3089 31.5342 79.0188 30.9927 78.8254C30.4609 78.632 29.8275 78.5353 29.0926 78.5353C28.3191 78.5353 27.6712 78.6417 27.1491 78.8544C26.6269 79.0575 26.2305 79.3379 25.9597 79.6957C25.6987 80.0438 25.5681 80.4305 25.5681 80.856V80.885C25.5681 81.2718 25.6648 81.6199 25.8582 81.9293C26.0516 82.2387 26.3659 82.5095 26.801 82.7415C27.2458 82.9736 27.8308 83.167 28.556 83.3217L31.0507 83.8439C33.0716 84.2693 34.5801 84.9269 35.576 85.8164C36.5817 86.706 37.0845 87.9341 37.0845 89.5005V89.5295C37.0845 90.8156 36.7412 91.913 36.0547 92.822C35.3778 93.7212 34.4447 94.4126 33.2554 94.8961C32.066 95.3699 30.7026 95.6068 29.1652 95.6068ZM28.4545 98.0145V72.8787H29.9049V98.0145H28.4545ZM48.0787 96.274C46.4929 96.274 45.1101 96.0177 43.9305 95.5053C42.7508 94.9831 41.8128 94.2627 41.1166 93.3441C40.4301 92.4255 40.0385 91.3667 39.9418 90.1677L39.9273 89.9792H44.1045L44.1335 90.1387C44.2012 90.6415 44.3994 91.0911 44.7282 91.4876C45.0666 91.8744 45.5163 92.1838 46.0771 92.4159C46.6476 92.6383 47.3099 92.7495 48.0642 92.7495C48.8184 92.7495 49.4711 92.6286 50.0222 92.3869C50.5734 92.1354 50.9988 91.7922 51.2986 91.3571C51.608 90.9123 51.7627 90.4046 51.7627 89.8341V89.8051C51.7627 88.7995 51.4098 88.0308 50.7039 87.4989C49.9981 86.9671 49.0118 86.7012 47.7451 86.7012H45.3519V83.5828H47.6871C48.4219 83.5828 49.0601 83.4619 49.6016 83.2202C50.1431 82.9785 50.5589 82.6449 50.849 82.2194C51.1487 81.7843 51.2986 81.2863 51.2986 80.7255V80.6965C51.2986 80.126 51.1681 79.6425 50.907 79.246C50.6556 78.8399 50.2833 78.5305 49.7902 78.3178C49.3067 78.0954 48.7217 77.9842 48.0352 77.9842C47.3583 77.9842 46.7588 78.0954 46.2366 78.3178C45.7145 78.5402 45.2987 78.8544 44.9893 79.2605C44.6798 79.657 44.4913 80.126 44.4236 80.6674L44.4091 80.798H40.3914L40.4059 80.6239C40.5026 79.4056 40.8749 78.3516 41.5228 77.462C42.1803 76.5628 43.065 75.8665 44.177 75.3734C45.289 74.8706 46.5751 74.6192 48.0352 74.6192C49.5436 74.6192 50.849 74.8513 51.9513 75.3154C53.0633 75.7699 53.9239 76.408 54.533 77.2299C55.1422 78.0519 55.4468 79.014 55.4468 80.1163V80.1453C55.4468 81.0155 55.2534 81.7794 54.8666 82.437C54.4799 83.0945 53.9529 83.636 53.2857 84.0614C52.6282 84.4869 51.8933 84.7866 51.081 84.9607V85.0477C52.6378 85.1928 53.8804 85.6956 54.8086 86.5562C55.7466 87.4167 56.2155 88.5577 56.2155 89.9792V90.0082C56.2155 91.2555 55.8771 92.3482 55.2002 93.2861C54.5234 94.2241 53.5758 94.9589 52.3574 95.4908C51.1391 96.0129 49.7128 96.274 48.0787 96.274ZM67.0357 96.274C65.5176 96.274 64.188 96.0032 63.047 95.4617C61.906 94.9203 61.0019 94.1854 60.3347 93.2571C59.6675 92.3288 59.2904 91.2845 59.2034 90.1242L59.1889 89.9066H63.2356L63.2646 90.0082C63.3709 90.5303 63.5933 91.0041 63.9318 91.4296C64.2799 91.855 64.7198 92.1935 65.2517 92.4449C65.7835 92.6866 66.383 92.8075 67.0502 92.8075C67.8141 92.8075 68.4861 92.6479 69.0663 92.3288C69.6561 92.0001 70.1154 91.5504 70.4442 90.9799C70.7826 90.4094 70.9518 89.7519 70.9518 89.0074V88.9784C70.9518 88.2435 70.7826 87.5956 70.4442 87.0348C70.1154 86.4643 69.6561 86.0195 69.0663 85.7004C68.4861 85.3813 67.8189 85.2218 67.0647 85.2218C66.5329 85.2218 66.0397 85.2991 65.5853 85.4538C65.1308 85.5989 64.7247 85.8164 64.3669 86.1065C64.1638 86.2709 63.9753 86.4498 63.8012 86.6432C63.6272 86.8366 63.4821 87.0445 63.3661 87.2669H59.5515L60.5088 74.9818H73.8672V78.4628H63.9898L63.4821 84.3515H63.5692C63.8593 83.8777 64.2364 83.4764 64.7005 83.1477C65.1743 82.8092 65.711 82.5482 66.3105 82.3644C66.9196 82.1807 67.5772 82.0889 68.283 82.0889C69.6174 82.0889 70.7971 82.3838 71.8221 82.9736C72.847 83.5538 73.6544 84.3564 74.2443 85.3813C74.8341 86.4063 75.129 87.5763 75.129 88.8913V88.9203C75.129 90.3804 74.7858 91.6616 74.0992 92.764C73.4224 93.8663 72.4748 94.7269 71.2564 95.3457C70.0381 95.9646 68.6311 96.274 67.0357 96.274ZM82.8018 95.9114V78.9995H82.7147L77.3772 82.6255V78.7384L82.7873 74.9818H87.1385V95.9114H82.8018Z" fill="white"/>
</g>
<defs>
<linearGradient id="paint0_linear_1306_2884" x1="145.148" y1="139.592" x2="14.8523" y2="139.592" gradientUnits="userSpaceOnUse">
<stop offset="0.0416667" stop-color="#1A4AF6"/>
<stop offset="0.505208" stop-color="#B028A3"/>
<stop offset="0.895833" stop-color="#DE5E42"/>
</linearGradient>
</defs>
</svg>
